<?xml version="1.0" encoding="utf-8"?>
<!-- Generator: Adobe Illustrator 17.0.2, SVG Export Plug-In . SVG Version: 6.00 Build 0)  -->
<!DOCTYPE svg PUBLIC "-//W3C//DTD SVG 1.1//EN" "http://www.w3.org/Graphics/SVG/1.1/DTD/svg11.dtd">
<svg version="1.1" id="Layer_1" xmlns="http://www.w3.org/2000/svg" xmlns:xlink="http://www.w3.org/1999/xlink" x="0px" y="0px"
	 width="100px" height="100px" viewBox="0 0 100 100" enable-background="new 0 0 100 100" xml:space="preserve">
<circle fill="#4CB689" cx="50" cy="50" r="49.642"/>
<path fill="#FFFFFF" d="M58.066,32.106c2.041,1.606,3.065,3.993,3.065,7.161c0,1.96-0.428,3.711-1.282,5.254
	c-0.856,1.543-2.013,3.044-3.471,4.503c-1.585,1.585-2.815,3.096-3.69,4.535c-0.864,1.4-1.319,3.014-1.313,4.66
	c0,1.251,0.02,2.086,0.063,2.502l-5.754,0.188c-0.5-1.584-0.751-3.065-0.751-4.441c0-1.876,0.427-3.481,1.282-4.816
	c0.854-1.335,2.116-2.793,3.784-4.378c2.793-2.543,4.191-5.045,4.191-7.505c0-1.292-0.48-2.314-1.439-3.065
	c-0.958-0.751-2.232-1.126-3.815-1.126c-1.087,0-2.314,0.135-3.69,0.407c-1.376,0.272-2.627,0.657-3.754,1.157l-2.127-4.503
	c3.044-1.96,6.651-2.94,10.82-2.94C53.395,29.698,56.022,30.501,58.066,32.106z M51.593,65.974c0.729,0.709,1.095,1.646,1.095,2.815
	c0,1.335-0.375,2.398-1.126,3.19c-0.751,0.791-1.751,1.188-3.002,1.188c-1.21,0-2.179-0.375-2.908-1.126
	c-0.729-0.751-1.095-1.729-1.095-2.94c0-1.251,0.385-2.262,1.157-3.033c0.77-0.771,1.783-1.157,3.033-1.157
	C49.914,64.911,50.862,65.265,51.593,65.974L51.593,65.974z"/>
</svg>
