<svg xmlns="http://www.w3.org/2000/svg" width="826" height="670" viewBox="0 0 826 670"><path fill="none" stroke="#A31C3F" stroke-width="1.5" stroke-miterlimit="10" d="M648.035 27.496c2.8-2.8 5.09-1.85 5.09 2.11V161.77c0 3.96-3.24 7.2-7.2 7.2H513.763c-3.96 0-4.91-2.293-2.11-5.093l136.383-136.38zm19.617 0c-2.8-2.8-5.09-1.85-5.09 2.11V161.77c0 3.96 3.24 7.2 7.2 7.2h132.164c3.96 0 4.91-2.293 2.11-5.093L667.65 27.497zm-163 130.384c-2.8 2.8-5.09 1.85-5.09-2.11V23.605c0-3.96 3.24-7.2 7.2-7.2h132.164c3.96 0 4.91 2.29 2.11 5.09L504.65 157.88zm306.383 0c2.8 2.8 5.09 1.85 5.09-2.11V23.605c0-3.96-3.24-7.2-7.2-7.2H676.763c-3.96 0-4.91 2.29-2.11 5.09L811.036 157.88zm-163 32.616c2.8-2.8 5.09-1.85 5.09 2.11V324.77c0 3.96-3.24 7.2-7.2 7.2H513.763c-3.96 0-4.91-2.293-2.11-5.093l136.383-136.382zm19.617 0c-2.8-2.8-5.09-1.85-5.09 2.11V324.77c0 3.96 3.24 7.2 7.2 7.2h132.164c3.96 0 4.91-2.293 2.11-5.093L667.65 190.497zm-163 130.384c-2.8 2.8-5.09 1.85-5.09-2.11V186.605c0-3.96 3.24-7.2 7.2-7.2h132.164c3.96 0 4.91 2.29 2.11 5.09L504.65 320.88zm306.383 0c2.8 2.8 5.09 1.85 5.09-2.11V186.605c0-3.96-3.24-7.2-7.2-7.2H676.763c-3.96 0-4.91 2.29-2.11 5.09L811.036 320.88zm-163 32.616c2.8-2.8 5.09-1.85 5.09 2.11V487.77c0 3.96-3.24 7.2-7.2 7.2H513.763c-3.96 0-4.91-2.293-2.11-5.093l136.383-136.382zm19.617 0c-2.8-2.8-5.09-1.85-5.09 2.11V487.77c0 3.96 3.24 7.2 7.2 7.2h132.164c3.96 0 4.91-2.293 2.11-5.093L667.65 353.497zm-163 130.384c-2.8 2.8-5.09 1.85-5.09-2.11V349.605c0-3.96 3.24-7.2 7.2-7.2h132.164c3.96 0 4.91 2.29 2.11 5.09L504.65 483.88zm306.383 0c2.8 2.8 5.09 1.85 5.09-2.11V349.605c0-3.96-3.24-7.2-7.2-7.2H676.763c-3.96 0-4.91 2.29-2.11 5.09L811.036 483.88zm-163 32.616c2.8-2.8 5.09-1.85 5.09 2.11V650.77c0 3.96-3.24 7.2-7.2 7.2H513.763c-3.96 0-4.91-2.293-2.11-5.093l136.383-136.382zm19.617 0c-2.8-2.8-5.09-1.85-5.09 2.11V650.77c0 3.96 3.24 7.2 7.2 7.2h132.164c3.96 0 4.91-2.293 2.11-5.093L667.65 516.497zm-163 130.384c-2.8 2.8-5.09 1.85-5.09-2.11V512.605c0-3.96 3.24-7.2 7.2-7.2h132.164c3.96 0 4.91 2.29 2.11 5.09L504.65 646.88zm306.383 0c2.8 2.8 5.09 1.85 5.09-2.11V512.605c0-3.96-3.24-7.2-7.2-7.2H676.763c-3.96 0-4.91 2.29-2.11 5.09L811.036 646.88zM340.652 27.496c-2.8-2.8-5.09-1.85-5.09 2.11V161.77c0 3.96 3.24 7.2 7.2 7.2h132.164c3.96 0 4.91-2.293 2.11-5.093L340.65 27.497zM484.035 157.88c2.8 2.8 5.09 1.85 5.09-2.11V23.605c0-3.96-3.24-7.2-7.2-7.2H349.763c-3.96 0-4.91 2.29-2.11 5.09L484.036 157.88zm-163 32.616c2.8-2.8 5.09-1.85 5.09 2.11V324.77c0 3.96-3.24 7.2-7.2 7.2H186.763c-3.96 0-4.91-2.293-2.11-5.093l136.383-136.382zm19.617 0c-2.8-2.8-5.09-1.85-5.09 2.11V324.77c0 3.96 3.24 7.2 7.2 7.2h132.164c3.96 0 4.91-2.293 2.11-5.093L340.65 190.497zM484.035 320.88c2.8 2.8 5.09 1.85 5.09-2.11V186.605c0-3.96-3.24-7.2-7.2-7.2H349.763c-3.96 0-4.91 2.29-2.11 5.09L484.036 320.88zm-163 32.616c2.8-2.8 5.09-1.85 5.09 2.11V487.77c0 3.96-3.24 7.2-7.2 7.2H186.763c-3.96 0-4.91-2.293-2.11-5.093l136.383-136.382zm19.617 0c-2.8-2.8-5.09-1.85-5.09 2.11V487.77c0 3.96 3.24 7.2 7.2 7.2h132.164c3.96 0 4.91-2.293 2.11-5.093L340.65 353.497zm-163 130.384c-2.8 2.8-5.09 1.85-5.09-2.11V349.605c0-3.96 3.24-7.2 7.2-7.2h132.164c3.96 0 4.91 2.29 2.11 5.09L177.65 483.88zm306.383 0c2.8 2.8 5.09 1.85 5.09-2.11V349.605c0-3.96-3.24-7.2-7.2-7.2H349.763c-3.96 0-4.91 2.29-2.11 5.09L484.036 483.88zm-163 32.616c2.8-2.8 5.09-1.85 5.09 2.11V650.77c0 3.96-3.24 7.2-7.2 7.2H186.763c-3.96 0-4.91-2.293-2.11-5.093l136.383-136.382zm19.617 0c-2.8-2.8-5.09-1.85-5.09 2.11V650.77c0 3.96 3.24 7.2 7.2 7.2h132.164c3.96 0 4.91-2.293 2.11-5.093L340.65 516.497zm-163 130.384c-2.8 2.8-5.09 1.85-5.09-2.11V512.605c0-3.96 3.24-7.2 7.2-7.2h132.164c3.96 0 4.91 2.29 2.11 5.09L177.65 646.88zM20.81 509.996c-2.8-2.8-1.852-5.09 2.108-5.09h132.165c3.96 0 7.2 3.24 7.2 7.2V644.27c0 3.96-2.29 4.907-5.09 2.107L20.808 509.997zM151.192 653.38c2.8 2.8 1.85 5.09-2.11 5.09H16.92c-3.96 0-7.2-3.24-7.2-7.2V519.105c0-3.96 2.29-4.91 5.09-2.11L151.193 653.38zm332.843-6.5c2.8 2.8 5.09 1.85 5.09-2.11V512.605c0-3.96-3.24-7.2-7.2-7.2H349.763c-3.96 0-4.91 2.29-2.11 5.09L484.036 646.88z"/></svg>