<svg xmlns="http://www.w3.org/2000/svg" width="56.5" height="40.313" viewBox="0 0.104 56.5 40.313"><path fill="none" stroke="#4DB789" stroke-width="2" stroke-miterlimit="10" d="M1.234 2.116L27.9 18.08M55.117 1.845L27.644 17.93M55.33 36.693a2.516 2.516 0 0 1-2.515 2.516H3.685a2.516 2.516 0 0 1-2.515-2.52V3.72A2.516 2.516 0 0 1 3.683 1.21h49.13a2.516 2.516 0 0 1 2.515 2.515v32.968z"/><path fill="none" stroke="#4DB789" stroke-width="2" stroke-miterlimit="10" d="M27.67 17.914c2.11.834 3.368 2.423 3.445 4.702.07 2.125-1.513 4.09-3.446 4.09-1.94 0-3.52-1.965-3.45-4.09.073-2.277 1.332-3.867 3.443-4.702"/></svg>