<svg xmlns="http://www.w3.org/2000/svg" width="16" height="16" viewBox="0 0 16 16"><path fill="#7A807C" d="M6.81.985h3.48l-1.074.63H8.14c.377.24.67.574.877 1.004.207.43.31.872.31 1.34 0 .393-.06.742-.182 1.05s-.272.55-.447.736-.35.357-.526.514a3.126 3.126 0 0 0-.446.487.89.89 0 0 0-.184.54c0 .138.044.273.132.406.087.133.202.26.343.383.14.12.295.25.465.38.17.133.34.28.51.442s.326.336.467.525c.14.186.25.412.34.675.09.264.13.547.13.85 0 .85-.37 1.6-1.12 2.247-.807.697-1.922 1.045-3.346 1.045-.314 0-.63-.026-.954-.08-.32-.053-.645-.142-.97-.267s-.615-.28-.865-.464a2.155 2.155 0 0 1-.614-.71 1.96 1.96 0 0 1-.24-.967c0-.325.1-.684.298-1.077.17-.34.424-.634.764-.88.34-.248.726-.437 1.156-.567a9.054 9.054 0 0 1 2.432-.395c-.34-.44-.51-.836-.51-1.187a1.068 1.068 0 0 1 .056-.344l.063-.17a2.15 2.15 0 0 0 .054-.173 4.5 4.5 0 0 1-.56.04c-.79 0-1.47-.26-2.034-.78s-.85-1.175-.85-1.96c0-.745.253-1.41.758-2A3.364 3.364 0 0 1 5.32 1.14c.498-.105.995-.16 1.49-.16zm2 10.655c0-.11-.013-.22-.037-.323s-.05-.2-.076-.287a.98.98 0 0 0-.14-.275l-.167-.243c-.045-.066-.116-.145-.21-.235s-.17-.157-.22-.203a4.07 4.07 0 0 0-.255-.203 15.25 15.25 0 0 0-.753-.53 3.862 3.862 0 0 0-.398-.013c-.287 0-.57.02-.845.057a4.93 4.93 0 0 0-.86.2 3.142 3.142 0 0 0-.79.366c-.222.147-.405.347-.55.597s-.214.535-.214.854c0 .36.094.686.283.97.19.284.436.507.74.67a4.19 4.19 0 0 0 1.973.48c.313 0 .612-.03.896-.1s.55-.17.8-.31c.25-.14.447-.335.594-.584a1.7 1.7 0 0 0 .22-.876zm-.957-6.87c0-.318-.044-.656-.13-1.015a5.277 5.277 0 0 0-.376-1.04 2.288 2.288 0 0 0-.67-.83 1.53 1.53 0 0 0-.952-.326c-.494 0-.876.18-1.147.55s-.408.8-.408 1.31a4.036 4.036 0 0 0 .378 1.616c.127.276.276.525.446.745.17.22.377.4.622.54.244.14.502.207.773.207.51 0 .89-.16 1.12-.48s.34-.75.34-1.28zm7.236-1.745v1.02H13.04v2.04h-1.02v-2.04h-2.04v-1.02h2.04V.985h1.02v2.04h2.04z"/></svg>