<svg baseProfile="basic" xmlns="http://www.w3.org/2000/svg" width="56.5" height="61.453" viewBox="0 0 56.5 61.453"><path fill="#FFF" d="M28.077 51.124c-1.157 0-2.27-.702-2.872-1.304C8.41 36.004 7.877 35.127 7.877 32.8c0-2.264 1.714-4.176 3.743-4.176h5.93V4.274c0-2.26 1.58-4.03 3.598-4.03H35.15c2.018 0 3.6 1.77 3.6 4.03v24.35h5.93c2.028 0 3.742 1.912 3.742 4.176 0 2.482-.81 4.502-17.43 17.11-.698.523-1.754 1.214-2.915 1.214zm-16.457-20.5c-.823 0-1.743.93-1.743 2.176 0 1.477 1.537 3.086 16.67 15.54.42.414 1.05.784 1.53.784.628 0 1.442-.61 1.71-.81 16.635-12.62 16.635-14.16 16.635-15.514 0-1.245-.92-2.176-1.743-2.176h-7.93V4.274c0-1.138-.71-2.03-1.6-2.03H21.142c-.896 0-1.6.892-1.6 2.03v26.35H11.62z"/><path fill="#FFF" d="M51.39 60.624H4.734c-2.328 0-4.152-2.222-4.152-5.058V49.65h2v5.916c0 1.715.945 3.058 2.152 3.058H51.39c1.124 0 2.327-1.23 2.327-3.058V49.65h2v5.916c0 2.79-1.942 5.058-4.327 5.058z"/></svg>