<?xml version="1.0" encoding="utf-8"?>
<!-- Generator: Adobe Illustrator 17.0.2, SVG Export Plug-In . SVG Version: 6.00 Build 0)  -->
<!DOCTYPE svg PUBLIC "-//W3C//DTD SVG 1.1//EN" "http://www.w3.org/Graphics/SVG/1.1/DTD/svg11.dtd">
<svg version="1.1" id="Layer_1" xmlns="http://www.w3.org/2000/svg" xmlns:xlink="http://www.w3.org/1999/xlink" x="0px" y="0px"
	 width="342px" height="107.177px" viewBox="0 0 342 107.177" enable-background="new 0 0 342 107.177" xml:space="preserve">
<g>
	<g>
		<defs>
			<rect id="SVGID_1_" width="342" height="107.177"/>
		</defs>
		<clipPath id="SVGID_2_">
			<use xlink:href="#SVGID_1_"  overflow="visible"/>
		</clipPath>
		<circle clip-path="url(#SVGID_2_)" fill="none" stroke="#90D9B9" stroke-miterlimit="10" cx="153.667" cy="8.215" r="20.5"/>
	</g>
	<g>
		<defs>
			<rect id="SVGID_3_" width="342" height="107.177"/>
		</defs>
		<clipPath id="SVGID_4_">
			<use xlink:href="#SVGID_3_"  overflow="visible"/>
		</clipPath>
		<circle clip-path="url(#SVGID_4_)" fill="none" stroke="#90D9B9" stroke-miterlimit="10" cx="97.179" cy="33.844" r="20.5"/>
	</g>
	<g>
		<defs>
			<rect id="SVGID_5_" width="342" height="107.177"/>
		</defs>
		<clipPath id="SVGID_6_">
			<use xlink:href="#SVGID_5_"  overflow="visible"/>
		</clipPath>
		<circle clip-path="url(#SVGID_6_)" fill="none" stroke="#90D9B9" stroke-miterlimit="10" cx="24.833" cy="25.511" r="20.5"/>
	</g>
	<g>
		<defs>
			<rect id="SVGID_7_" width="342" height="107.177"/>
		</defs>
		<clipPath id="SVGID_8_">
			<use xlink:href="#SVGID_7_"  overflow="visible"/>
		</clipPath>
		<circle clip-path="url(#SVGID_8_)" fill="none" stroke="#90D9B9" stroke-miterlimit="10" cx="57.179" cy="80.844" r="20.5"/>
	</g>
	<g>
		<defs>
			<rect id="SVGID_9_" width="342" height="107.177"/>
		</defs>
		<clipPath id="SVGID_10_">
			<use xlink:href="#SVGID_9_"  overflow="visible"/>
		</clipPath>
		<circle clip-path="url(#SVGID_10_)" fill="#90D9B9" stroke="#90D9B9" stroke-miterlimit="10" cx="133.167" cy="82.844" r="20.5"/>
	</g>
	<g>
		<defs>
			<rect id="SVGID_11_" width="342" height="107.177"/>
		</defs>
		<clipPath id="SVGID_12_">
			<use xlink:href="#SVGID_11_"  overflow="visible"/>
		</clipPath>
		<circle clip-path="url(#SVGID_12_)" fill="none" stroke="#90D9B9" stroke-miterlimit="10" cx="192.667" cy="58.344" r="20.5"/>
	</g>
	<g>
		<defs>
			<rect id="SVGID_13_" width="342" height="107.177"/>
		</defs>
		<clipPath id="SVGID_14_">
			<use xlink:href="#SVGID_13_"  overflow="visible"/>
		</clipPath>
		<circle clip-path="url(#SVGID_14_)" fill="none" stroke="#90D9B9" stroke-miterlimit="10" cx="254.667" cy="80.844" r="20.5"/>
	</g>
	<g>
		<defs>
			<rect id="SVGID_15_" width="342" height="107.177"/>
		</defs>
		<clipPath id="SVGID_16_">
			<use xlink:href="#SVGID_15_"  overflow="visible"/>
		</clipPath>
		
			<line clip-path="url(#SVGID_16_)" fill="none" stroke="#90D9B9" stroke-miterlimit="10" x1="179.333" y1="-26.618" x2="190.798" y2="37.844"/>
	</g>
	<g>
		<defs>
			<rect id="SVGID_17_" width="342" height="107.177"/>
		</defs>
		<clipPath id="SVGID_18_">
			<use xlink:href="#SVGID_17_"  overflow="visible"/>
		</clipPath>
		
			<line clip-path="url(#SVGID_18_)" fill="none" stroke="#90D9B9" stroke-miterlimit="10" x1="211.448" y1="66.562" x2="236.33" y2="71.68"/>
	</g>
	<g>
		<defs>
			<rect id="SVGID_19_" width="342" height="107.177"/>
		</defs>
		<clipPath id="SVGID_20_">
			<use xlink:href="#SVGID_19_"  overflow="visible"/>
		</clipPath>
		
			<line clip-path="url(#SVGID_20_)" fill="none" stroke="#90D9B9" stroke-miterlimit="10" x1="87.152" y1="-15.378" x2="42.651" y2="15.378"/>
	</g>
	<g>
		<defs>
			<rect id="SVGID_21_" width="342" height="107.177"/>
		</defs>
		<clipPath id="SVGID_22_">
			<use xlink:href="#SVGID_21_"  overflow="visible"/>
		</clipPath>
		
			<line clip-path="url(#SVGID_22_)" fill="none" stroke="#90D9B9" stroke-miterlimit="10" x1="45.333" y1="29.844" x2="76.679" y2="32.177"/>
	</g>
	<g>
		<defs>
			<rect id="SVGID_23_" width="342" height="107.177"/>
		</defs>
		<clipPath id="SVGID_24_">
			<use xlink:href="#SVGID_23_"  overflow="visible"/>
		</clipPath>
		
			<line clip-path="url(#SVGID_24_)" fill="none" stroke="#90D9B9" stroke-miterlimit="10" x1="116.679" y1="27.515" x2="135.059" y2="16.817"/>
	</g>
	<g>
		<defs>
			<rect id="SVGID_25_" width="342" height="107.177"/>
		</defs>
		<clipPath id="SVGID_26_">
			<use xlink:href="#SVGID_25_"  overflow="visible"/>
		</clipPath>
		
			<line clip-path="url(#SVGID_26_)" fill="none" stroke="#90D9B9" stroke-miterlimit="10" x1="70.643" y1="65.387" x2="84.406" y2="49.874"/>
	</g>
	<g>
		<defs>
			<rect id="SVGID_27_" width="342" height="107.177"/>
		</defs>
		<clipPath id="SVGID_28_">
			<use xlink:href="#SVGID_27_"  overflow="visible"/>
		</clipPath>
		
			<line clip-path="url(#SVGID_28_)" fill="none" stroke="#90D9B9" stroke-miterlimit="10" x1="139.259" y1="63.264" x2="149.5" y2="28.715"/>
	</g>
	<g>
		<defs>
			<rect id="SVGID_29_" width="342" height="107.177"/>
		</defs>
		<clipPath id="SVGID_30_">
			<use xlink:href="#SVGID_29_"  overflow="visible"/>
		</clipPath>
		
			<line clip-path="url(#SVGID_30_)" fill="none" stroke="#90D9B9" stroke-miterlimit="10" x1="166.266" y1="24.38" x2="180.959" y2="41.52"/>
	</g>
</g>
<g>
	<path fill="#FFFFFF" d="M136.93,73.841c0.979,0.771,1.47,1.916,1.47,3.436c0,0.94-0.205,1.78-0.615,2.52
		c-0.41,0.74-0.965,1.46-1.665,2.16c-0.76,0.761-1.35,1.485-1.77,2.175c-0.42,0.69-0.63,1.436-0.63,2.235c0,0.6,0.01,1,0.03,1.2
		l-2.76,0.09c-0.24-0.76-0.36-1.47-0.36-2.13c0-0.9,0.205-1.67,0.615-2.311c0.41-0.64,1.015-1.34,1.815-2.1
		c1.34-1.22,2.01-2.42,2.01-3.601c0-0.619-0.23-1.109-0.69-1.47c-0.46-0.359-1.07-0.54-1.83-0.54c-0.52,0-1.11,0.065-1.77,0.195
		c-0.66,0.13-1.26,0.314-1.8,0.555l-1.02-2.16c1.46-0.939,3.19-1.409,5.19-1.409C134.69,72.686,135.95,73.071,136.93,73.841z
		 M133.825,90.086c0.35,0.341,0.525,0.79,0.525,1.351c0,0.64-0.18,1.149-0.54,1.529s-0.84,0.57-1.44,0.57
		c-0.581,0-1.045-0.18-1.395-0.54c-0.35-0.36-0.525-0.83-0.525-1.41c0-0.6,0.185-1.085,0.555-1.455s0.855-0.555,1.455-0.555
		C133.02,89.576,133.475,89.746,133.825,90.086z"/>
</g>
</svg>
