<svg xmlns="http://www.w3.org/2000/svg" width="627.91" height="620.008" viewBox="0 0 627.91 620.008"><path fill="none" stroke="#F2CD32" stroke-width="1.5" stroke-miterlimit="10" d="M123.03 160.295c-3.96 0-9.49 2.29-12.29 5.09l-32.53 32.53c-2.8 2.8-5.09 8.33-5.09 12.29v46.002c0 3.96 2.29 9.49 5.09 12.29l32.53 32.53c2.8 2.8 8.33 5.09 12.29 5.09h21.996c3.96 0 7.2-3.24 7.2-7.2V167.495c0-3.96-3.24-7.2-7.2-7.2H123.03z"/><path fill="none" stroke="#F2CD32" stroke-width="1.5" stroke-miterlimit="10" d="M46.323 165.386c-2.8-2.8-8.33-5.09-12.29-5.09H12.425c-3.96 0-7.2 3.24-7.2 7.2v131.422c0 3.96 3.24 7.2 7.2 7.2H34.03c3.96 0 9.492-2.29 12.292-5.09l32.528-32.53c2.8-2.8 5.09-8.33 5.09-12.29v-46.002c0-3.96-2.29-9.49-5.09-12.29l-32.527-32.53zm232.707-5.09c-3.96 0-9.49 2.29-12.29 5.09l-32.53 32.53c-2.8 2.8-5.09 8.33-5.09 12.29v46c0 3.96 2.29 9.49 5.09 12.29l32.53 32.53c2.8 2.8 8.33 5.09 12.29 5.09h21.996c3.96 0 7.2-3.24 7.2-7.2v-131.42c0-3.96-3.24-7.2-7.2-7.2H279.03z"/><path fill="none" stroke="#F2CD32" stroke-width="1.5" stroke-miterlimit="10" d="M202.323 165.386c-2.8-2.8-8.33-5.09-12.29-5.09h-21.606c-3.96 0-7.2 3.24-7.2 7.2v131.422c0 3.96 3.24 7.2 7.2 7.2h21.605c3.96 0 9.49-2.29 12.29-5.09l32.53-32.53c2.8-2.8 5.09-8.33 5.09-12.29v-46.002c0-3.96-2.29-9.49-5.09-12.29l-32.53-32.53zM123.03 6.296c-3.96 0-9.49 2.29-12.29 5.09l-32.53 32.53c-2.8 2.8-5.09 8.33-5.09 12.29v46c0 3.96 2.29 9.49 5.09 12.29l32.53 32.53c2.8 2.8 8.33 5.09 12.29 5.09h21.996c3.96 0 7.2-3.24 7.2-7.2V13.496c0-3.96-3.24-7.2-7.2-7.2H123.03z"/><path fill="none" stroke="#F2CD32" stroke-width="1.5" stroke-miterlimit="10" d="M46.323 11.386c-2.8-2.8-8.33-5.09-12.29-5.09H12.425c-3.96 0-7.2 3.24-7.2 7.2v131.422c0 3.96 3.24 7.2 7.2 7.2H34.03c3.96 0 9.492-2.29 12.292-5.09l32.528-32.53c2.8-2.8 5.09-8.33 5.09-12.29V56.206c0-3.96-2.29-9.49-5.09-12.29l-32.527-32.53zm232.707-5.09c-3.96 0-9.49 2.29-12.29 5.09l-32.53 32.53c-2.8 2.8-5.09 8.33-5.09 12.29v46c0 3.96 2.29 9.49 5.09 12.29l32.53 32.53c2.8 2.8 8.33 5.09 12.29 5.09h21.996c3.96 0 7.2-3.24 7.2-7.2V13.496c0-3.96-3.24-7.2-7.2-7.2H279.03z"/><path fill="none" stroke="#F2CD32" stroke-width="1.5" stroke-miterlimit="10" d="M202.323 11.386c-2.8-2.8-8.33-5.09-12.29-5.09h-21.606c-3.96 0-7.2 3.24-7.2 7.2v131.422c0 3.96 3.24 7.2 7.2 7.2h21.605c3.96 0 9.49-2.29 12.29-5.09l32.53-32.53c2.8-2.8 5.09-8.33 5.09-12.29V56.206c0-3.96-2.29-9.49-5.09-12.29l-32.53-32.53zm156 154c-2.8-2.8-8.33-5.09-12.29-5.09h-21.606c-3.96 0-7.2 3.24-7.2 7.2v131.422c0 3.96 3.24 7.2 7.2 7.2h21.605c3.96 0 9.49-2.29 12.29-5.09l32.53-32.53c2.8-2.8 5.09-8.33 5.09-12.29v-46.002c0-3.96-2.29-9.49-5.09-12.29l-32.53-32.53zM435.03 6.296c-3.96 0-9.49 2.29-12.29 5.09l-32.53 32.53c-2.8 2.8-5.09 8.33-5.09 12.29v46c0 3.96 2.29 9.49 5.09 12.29l32.53 32.53c2.8 2.8 8.33 5.09 12.29 5.09h21.996c3.96 0 7.2-3.24 7.2-7.2V13.496c0-3.96-3.24-7.2-7.2-7.2H435.03z"/><path fill="none" stroke="#F2CD32" stroke-width="1.5" stroke-miterlimit="10" d="M358.323 11.386c-2.8-2.8-8.33-5.09-12.29-5.09h-21.606c-3.96 0-7.2 3.24-7.2 7.2v131.422c0 3.96 3.24 7.2 7.2 7.2h21.605c3.96 0 9.49-2.29 12.29-5.09l32.53-32.53c2.8-2.8 5.09-8.33 5.09-12.29V56.206c0-3.96-2.29-9.49-5.09-12.29l-32.53-32.53zm232.707-5.09c-3.96 0-9.49 2.29-12.29 5.09l-32.53 32.53c-2.8 2.8-5.09 8.33-5.09 12.29v46c0 3.96 2.29 9.49 5.09 12.29l32.53 32.53c2.8 2.8 8.33 5.09 12.29 5.09h21.996c3.96 0 7.2-3.24 7.2-7.2V13.496c0-3.96-3.24-7.2-7.2-7.2H591.03z"/><path fill="none" stroke="#F2CD32" stroke-width="1.5" stroke-miterlimit="10" d="M514.323 11.386c-2.8-2.8-8.33-5.09-12.29-5.09h-21.606c-3.96 0-7.2 3.24-7.2 7.2v131.422c0 3.96 3.24 7.2 7.2 7.2h21.605c3.96 0 9.49-2.29 12.29-5.09l32.53-32.53c2.8-2.8 5.09-8.33 5.09-12.29V56.206c0-3.96-2.29-9.49-5.09-12.29l-32.53-32.53zM123.03 467.55c-3.96 0-9.49 2.29-12.29 5.09l-32.53 32.53c-2.8 2.8-5.09 8.33-5.09 12.29v46.003c0 3.96 2.29 9.49 5.09 12.29l32.53 32.53c2.8 2.8 8.33 5.09 12.29 5.09h21.996c3.96 0 7.2-3.24 7.2-7.2V474.75c0-3.96-3.24-7.2-7.2-7.2H123.03z"/><path fill="none" stroke="#F2CD32" stroke-width="1.5" stroke-miterlimit="10" d="M46.323 472.64c-2.8-2.8-8.33-5.09-12.29-5.09H12.425c-3.96 0-7.2 3.24-7.2 7.2v131.423c0 3.96 3.24 7.2 7.2 7.2H34.03c3.96 0 9.492-2.29 12.292-5.09l32.528-32.53c2.8-2.8 5.09-8.33 5.09-12.29V517.46c0-3.96-2.29-9.49-5.09-12.29l-32.527-32.53zm232.707-5.09c-3.96 0-9.49 2.29-12.29 5.09l-32.53 32.53c-2.8 2.8-5.09 8.33-5.09 12.29v46.002c0 3.96 2.29 9.49 5.09 12.29l32.53 32.53c2.8 2.8 8.33 5.09 12.29 5.09h21.996c3.96 0 7.2-3.24 7.2-7.2V474.75c0-3.96-3.24-7.2-7.2-7.2H279.03z"/><path fill="none" stroke="#F2CD32" stroke-width="1.5" stroke-miterlimit="10" d="M202.323 472.64c-2.8-2.8-8.33-5.09-12.29-5.09h-21.606c-3.96 0-7.2 3.24-7.2 7.2v131.423c0 3.96 3.24 7.2 7.2 7.2h21.605c3.96 0 9.49-2.29 12.29-5.09l32.53-32.53c2.8-2.8 5.09-8.33 5.09-12.29V517.46c0-3.96-2.29-9.49-5.09-12.29l-32.53-32.53zM123.03 313.55c-3.96 0-9.49 2.29-12.29 5.09l-32.53 32.53c-2.8 2.8-5.09 8.33-5.09 12.29v46.003c0 3.96 2.29 9.49 5.09 12.29l32.53 32.53c2.8 2.8 8.33 5.09 12.29 5.09h21.996c3.96 0 7.2-3.24 7.2-7.2V320.75c0-3.96-3.24-7.2-7.2-7.2H123.03z"/><path fill="none" stroke="#F2CD32" stroke-width="1.5" stroke-miterlimit="10" d="M46.323 318.64c-2.8-2.8-8.33-5.09-12.29-5.09H12.425c-3.96 0-7.2 3.24-7.2 7.2v131.423c0 3.96 3.24 7.2 7.2 7.2H34.03c3.96 0 9.492-2.29 12.292-5.09l32.528-32.53c2.8-2.8 5.09-8.33 5.09-12.29V363.46c0-3.96-2.29-9.49-5.09-12.29l-32.527-32.53zm232.707-5.09c-3.96 0-9.49 2.29-12.29 5.09l-32.53 32.53c-2.8 2.8-5.09 8.33-5.09 12.29v46.002c0 3.96 2.29 9.49 5.09 12.29l32.53 32.53c2.8 2.8 8.33 5.09 12.29 5.09h21.996c3.96 0 7.2-3.24 7.2-7.2V320.75c0-3.96-3.24-7.2-7.2-7.2H279.03z"/><path fill="none" stroke="#F2CD32" stroke-width="1.5" stroke-miterlimit="10" d="M202.323 318.64c-2.8-2.8-8.33-5.09-12.29-5.09h-21.606c-3.96 0-7.2 3.24-7.2 7.2v131.423c0 3.96 3.24 7.2 7.2 7.2h21.605c3.96 0 9.49-2.29 12.29-5.09l32.53-32.53c2.8-2.8 5.09-8.33 5.09-12.29V363.46c0-3.96-2.29-9.49-5.09-12.29l-32.53-32.53zM435.03 467.55c-3.96 0-9.49 2.29-12.29 5.09l-32.53 32.53c-2.8 2.8-5.09 8.33-5.09 12.29v46.002c0 3.96 2.29 9.49 5.09 12.29l32.53 32.53c2.8 2.8 8.33 5.09 12.29 5.09h21.996c3.96 0 7.2-3.24 7.2-7.2V474.75c0-3.96-3.24-7.2-7.2-7.2H435.03z"/><path fill="none" stroke="#F2CD32" stroke-width="1.5" stroke-miterlimit="10" d="M358.323 472.64c-2.8-2.8-8.33-5.09-12.29-5.09h-21.606c-3.96 0-7.2 3.24-7.2 7.2v131.423c0 3.96 3.24 7.2 7.2 7.2h21.605c3.96 0 9.49-2.29 12.29-5.09l32.53-32.53c2.8-2.8 5.09-8.33 5.09-12.29V517.46c0-3.96-2.29-9.49-5.09-12.29l-32.53-32.53zm232.707-5.09c-3.96 0-9.49 2.29-12.29 5.09l-32.53 32.53c-2.8 2.8-5.09 8.33-5.09 12.29v46.002c0 3.96 2.29 9.49 5.09 12.29l32.53 32.53c2.8 2.8 8.33 5.09 12.29 5.09h21.996c3.96 0 7.2-3.24 7.2-7.2V474.75c0-3.96-3.24-7.2-7.2-7.2H591.03z"/><path fill="none" stroke="#F2CD32" stroke-width="1.5" stroke-miterlimit="10" d="M514.323 472.64c-2.8-2.8-8.33-5.09-12.29-5.09h-21.606c-3.96 0-7.2 3.24-7.2 7.2v131.423c0 3.96 3.24 7.2 7.2 7.2h21.605c3.96 0 9.49-2.29 12.29-5.09l32.53-32.53c2.8-2.8 5.09-8.33 5.09-12.29V517.46c0-3.96-2.29-9.49-5.09-12.29l-32.53-32.53zm-156-154c-2.8-2.8-8.33-5.09-12.29-5.09h-21.606c-3.96 0-7.2 3.24-7.2 7.2v131.423c0 3.96 3.24 7.2 7.2 7.2h21.605c3.96 0 9.49-2.29 12.29-5.09l32.53-32.53c2.8-2.8 5.09-8.33 5.09-12.29V363.46c0-3.96-2.29-9.49-5.09-12.29l-32.53-32.53z"/></svg>