<svg xmlns="http://www.w3.org/2000/svg" width="342" height="245.333" viewBox="0 0 342 245.333"><circle fill="none" stroke="#4DB789" stroke-miterlimit="10" cx="61.167" cy="25.167" r="20.5"/><circle fill="none" stroke="#4DB789" stroke-miterlimit="10" cx="96.179" cy="104.371" r="20.5"/><circle fill="none" stroke="#4DB789" stroke-miterlimit="10" cx="116.679" cy="51.038" r="20.5"/><circle fill="none" stroke="#4DB789" stroke-miterlimit="10" cx="46.333" cy="94.038" r="20.5"/><circle fill="none" stroke="#4DB789" stroke-miterlimit="10" cx="177.333" cy="25.167" r="20.5"/><circle fill="none" stroke="#4DB789" stroke-miterlimit="10" cx="176" cy="91.038" r="20.5"/><circle fill="none" stroke="#4DB789" stroke-miterlimit="10" cx="238" cy="24.167" r="20.5"/><circle fill="none" stroke="#4DB789" stroke-miterlimit="10" cx="316" cy="36.667" r="20.5"/><circle fill="none" stroke="#4DB789" stroke-miterlimit="10" cx="153.667" cy="146.371" r="20.5"/><circle fill="none" stroke="#4DB789" stroke-miterlimit="10" cx="97.179" cy="172" r="20.5"/><circle fill="none" stroke="#4DB789" stroke-miterlimit="10" cx="24.833" cy="163.667" r="20.5"/><circle fill="none" stroke="#4DB789" stroke-miterlimit="10" cx="57.179" cy="219" r="20.5"/><circle fill="none" stroke="#4DB789" stroke-miterlimit="10" cx="133.167" cy="221" r="20.5"/><circle fill="none" stroke="#4DB789" stroke-miterlimit="10" cx="192.667" cy="196.5" r="20.5"/><circle fill="none" stroke="#4DB789" stroke-miterlimit="10" cx="254.667" cy="219" r="20.5"/><path fill="none" stroke="#4DB789" stroke-miterlimit="10" d="M190.798 76.86l32.952-37.964M258.5 28l37 7M176 45.667v24.87m3.333 41L190.798 176m20.65 28.718l24.882 5.118M67.494 44.666l19.658 41.298m18.054 0l6.138-15.426m-45.738 30.5L75.68 103m11.472 19.778l-44.5 30.756M45.332 168l31.347 2.333m40-4.663l18.38-10.697m-64.42 48.57L84.4 188.03m54.854 13.39l10.24-34.55m16.765-4.334l14.693 17.14"/><circle fill="#4DB789" cx="274.663" cy="124.534" r="63.496"/><path fill="none" d="M258.5 93.207h101.747v116.587H258.5z"/><path fill="#FFF" d="M284.98 101.646c2.61 2.054 3.92 5.107 3.92 9.16 0 2.507-.548 4.747-1.64 6.72-1.095 1.974-2.575 3.894-4.44 5.76-2.027 2.027-3.6 3.96-4.72 5.8a11.27 11.27 0 0 0-1.68 5.96c0 1.6.025 2.668.08 3.2l-7.36.24c-.64-2.026-.96-3.92-.96-5.68 0-2.4.546-4.453 1.64-6.16 1.092-1.707 2.706-3.573 4.84-5.6 3.572-3.253 5.36-6.453 5.36-9.6 0-1.653-.614-2.96-1.84-3.92s-2.855-1.44-4.88-1.44c-1.39 0-2.96.173-4.72.52-1.76.348-3.36.84-4.802 1.48l-2.72-5.76c3.894-2.507 8.507-3.76 13.84-3.76 4.108 0 7.468 1.027 10.082 3.08zm-8.28 43.32c.933.907 1.4 2.106 1.4 3.6 0 1.707-.48 3.067-1.44 4.08-.96 1.012-2.24 1.52-3.84 1.52-1.548 0-2.787-.48-3.72-1.44s-1.4-2.212-1.4-3.76c0-1.6.492-2.893 1.48-3.88.985-.986 2.28-1.48 3.88-1.48 1.493 0 2.706.453 3.64 1.36z"/></svg>