<?xml version="1.0" encoding="utf-8"?>
<!-- Generator: Adobe Illustrator 17.0.2, SVG Export Plug-In . SVG Version: 6.00 Build 0)  -->
<!DOCTYPE svg PUBLIC "-//W3C//DTD SVG 1.1//EN" "http://www.w3.org/Graphics/SVG/1.1/DTD/svg11.dtd">
<svg version="1.1" id="Layer_1" xmlns="http://www.w3.org/2000/svg" xmlns:xlink="http://www.w3.org/1999/xlink" x="0px" y="0px"
	 width="500px" height="84px" viewBox="0 0 500 84" enable-background="new 0 0 500 84" xml:space="preserve">
<path fill="#242A6A" d="M498.745,0.229c-0.36,0-0.652,0.292-0.652,0.65v17.498l-17.377-17.38c-0.99-0.99-2.717-0.99-3.71,0
	l-16.93,16.932V0.879c0-0.36-0.292-0.652-0.652-0.652c-0.36,0-0.652,0.292-0.652,0.652v17.498l-17.377-17.38
	c-0.99-0.99-2.717-0.99-3.71,0l-17.733,17.735V0.88c0-0.36-0.292-0.652-0.652-0.652c-0.36,0-0.652,0.292-0.652,0.652v17.495
	L401.274,0.997c-1.026-1.022-2.684-1.022-3.71,0l-17.58,17.58V0.879c0-0.36-0.292-0.651-0.651-0.651
	c-0.36,0-0.652,0.292-0.652,0.651l0,0v17.494l-17.37-17.376c-0.99-0.99-2.717-0.99-3.707,0l-17.37,17.37V0.879
	c0-0.36-0.292-0.652-0.652-0.652c-0.36,0-0.652,0.292-0.652,0.652v17.495L321.55,0.997c-1.026-1.022-2.684-1.022-3.71,0
	l-17.245,17.24V0.874c0-0.36-0.292-0.651-0.651-0.651c-0.36,0-0.651,0.292-0.651,0.651v17.493l-17.38-17.374
	c-0.99-0.99-2.72-0.99-3.71,0l-17.5,17.5V0.873c0-0.36-0.292-0.652-0.652-0.652c-0.36,0-0.652,0.292-0.652,0.652v17.5l-17.38-17.378
	c-0.99-0.99-2.716-0.993-3.706,0l-16.935,16.93V0.875c0-0.36-0.291-0.651-0.651-0.651c-0.36,0-0.651,0.291-0.651,0.651l0,0v17.5
	l-17.38-17.38c-0.99-0.99-2.715-0.99-3.705,0l-17.736,17.736V0.877c-0.002-0.359-0.294-0.649-0.653-0.647
	c-0.357,0.002-0.646,0.29-0.647,0.647v17.495l-17.38-17.378c-0.99-0.996-2.717-0.996-3.707,0l-17.58,17.58v-17.7
	c0-0.36-0.292-0.652-0.652-0.652c-0.36,0-0.651,0.292-0.651,0.652v17.5l-17.38-17.38c-0.99-0.99-2.717-0.99-3.707,0l-17.368,17.37
	V0.874c0-0.36-0.291-0.651-0.651-0.651c-0.36,0-0.651,0.291-0.651,0.651l0,0v17.495L82.846,0.991c-0.99-0.99-2.717-0.99-3.707,0
	L61.89,18.237l0-17.364c0-0.36-0.292-0.652-0.652-0.652c-0.36,0-0.652,0.292-0.652,0.652v17.494L43.208,0.987
	c-0.99-0.99-2.72-0.99-3.71,0L0.348,40.141c-0.494,0.49-0.771,1.158-0.77,1.854c0,0.7,0.274,1.36,0.77,1.854l39.15,39.153
	c0.491,0.494,1.159,0.771,1.855,0.77c0.7,0,1.36-0.274,1.854-0.77l17.38-17.377v17.952c0.028,0.359,0.342,0.627,0.701,0.599
	c0.32-0.025,0.574-0.279,0.599-0.599V65.763l17.248,17.248c0.49,0.492,1.156,0.768,1.85,0.768c0.7,0,1.36-0.273,1.854-0.768
	l17.375-17.378v17.944c0.02,0.36,0.328,0.635,0.687,0.615c0.332-0.018,0.597-0.283,0.615-0.615V65.64l17.37,17.37
	c0.496,0.495,1.154,0.768,1.854,0.768s1.36-0.27,1.854-0.76l17.376-17.381v17.94c0.002,0.36,0.295,0.651,0.655,0.649
	c0.358-0.002,0.647-0.291,0.649-0.649v-18.15l17.58,17.583c0.492,0.494,1.16,0.77,1.857,0.768c0.7,0,1.36-0.272,1.855-0.767
	l17.38-17.377v17.94c0.028,0.359,0.342,0.627,0.701,0.599c0.32-0.025,0.574-0.279,0.599-0.599V65.272l17.735,17.736
	c0.491,0.493,1.159,0.77,1.855,0.768c0.7,0,1.36-0.273,1.854-0.768l17.376-17.378l0,17.947c0.014,0.36,0.317,0.64,0.677,0.626
	c0.34-0.013,0.613-0.286,0.626-0.626l0-17.5l16.93,16.934c0.491,0.493,1.159,0.77,1.855,0.768c0.7,0,1.36-0.273,1.856-0.768
	l17.38-17.377v17.943c0,0.36,0.292,0.652,0.652,0.652s0.652-0.292,0.652-0.652v-18.07l17.503,17.5
	c0.49,0.495,1.159,0.772,1.855,0.77c0.7,0,1.36-0.273,1.854-0.768l17.374-17.376v17.944c0,0.36,0.292,0.652,0.652,0.652
	s0.652-0.292,0.652-0.652V65.762l17.246,17.247c0.491,0.493,1.158,0.77,1.854,0.768c0.7,0,1.358-0.273,1.854-0.768l17.378-17.376
	l0,17.944c0,0.36,0.292,0.652,0.652,0.652s0.652-0.292,0.652-0.652V65.639l17.37,17.37c0.491,0.494,1.159,0.771,1.855,0.768
	c0.696,0.002,1.363-0.274,1.853-0.768l17.376-17.376v17.944c0.014,0.36,0.317,0.64,0.677,0.626c0.34-0.013,0.613-0.286,0.626-0.626
	V65.429l17.58,17.58c0.49,0.494,1.158,0.771,1.854,0.77c0.7,0,1.36-0.274,1.857-0.77l17.372-17.375v17.943
	c0,0.36,0.292,0.652,0.652,0.652c0.36,0,0.652-0.292,0.652-0.652V65.275l17.734,17.735c0.491,0.493,1.159,0.77,1.855,0.768
	c0.7,0,1.36-0.27,1.852-0.76l17.385-17.381v17.94c0.014,0.36,0.317,0.64,0.677,0.626c0.34-0.013,0.613-0.286,0.626-0.626l0-17.5
	l16.932,16.932c0.491,0.493,1.159,0.77,1.855,0.768c0.7,0,1.36-0.273,1.854-0.768l17.38-17.375v17.943
	c0.014,0.36,0.317,0.64,0.677,0.626c0.34-0.013,0.613-0.286,0.626-0.626l0-82.697c0-0.36-0.292-0.65-0.652-0.65V0.229z
	 M458.773,62.932l-19.996-19.995c-0.515-0.515-0.515-1.351,0-1.866l19.996-19.994V62.932z M338.926,62.494l-19.558-19.558
	c-0.516-0.511-0.52-1.345-0.009-1.861c0.003-0.003,0.006-0.006,0.009-0.009l19.56-19.56v40.98L338.926,62.494z M299.291,62.617
	l-19.68-19.68c-0.515-0.515-0.515-1.351,0-1.866l19.68-19.68V62.617L299.291,62.617z M220.089,62.934L200.09,42.937
	c-0.514-0.516-0.514-1.35,0-1.866l19.996-19.997v41.86L220.089,62.934z M100.24,62.497l-19.56-19.56
	c-0.516-0.516-0.517-1.353,0-1.87c0,0,0,0,0,0l19.56-19.56l0,40.984V62.497z M60.604,62.617L40.921,42.931
	c-0.515-0.516-0.515-1.351,0-1.867l19.685-19.68l0,41.23L60.604,62.617z M42.304,82.087c-0.496,0.5-1.365,0.5-1.864,0L1.286,42.931
	c-0.515-0.516-0.515-1.351,0-1.867L40.438,1.911c0.515-0.516,1.351-0.516,1.867,0c0,0,0,0,0,0L60.27,19.877l-20.268,20.27
	c-0.494,0.49-0.77,1.157-0.768,1.853c0,0.7,0.27,1.36,0.767,1.854l20.27,20.27L42.308,82.086L42.304,82.087z M81.941,82.087
	c-0.5,0.5-1.366,0.5-1.865,0l-18.17-18.17l0-43.838l18.17-18.166c0.515-0.516,1.351-0.516,1.867-0.001c0,0,0.001,0.001,0.001,0.001
	L99.97,19.937L79.762,40.145c-0.494,0.49-0.771,1.158-0.77,1.854c0,0.7,0.274,1.36,0.77,1.854l20.207,20.206L81.943,82.084
	L81.941,82.087z M121.699,82.087c-0.498,0.5-1.367,0.5-1.866,0l-18.29-18.29l0-43.59l18.29-18.29c0.515-0.515,1.351-0.515,1.866,0
	l18.13,18.13l-20.1,20.1c-1.024,1.025-1.024,2.685,0,3.71l20.1,20.1L121.699,82.087z M139.99,21.717l0,40.563l-19.347-19.348
	c-0.25-0.25-0.386-0.58-0.386-0.935c0-0.353,0.137-0.684,0.386-0.933L139.99,21.717z M161.66,82.083c-0.497,0.5-1.366,0.5-1.865,0
	l-18.502-18.5l0-43.168l18.5-18.5c0.515-0.516,1.351-0.516,1.867-0.001c0,0,0.001,0.001,0.001,0.001l18.21,18.207l-20.02,20.02
	c-0.494,0.491-0.772,1.159-0.77,1.855c0,0.7,0.275,1.36,0.77,1.854l20.024,20.024l-18.21,18.206L161.66,82.083z M179.96,21.873
	l0,40.254l-19.195-19.193c-0.516-0.516-0.517-1.353,0-1.87c0,0,0,0,0,0l19.195-19.19V21.873z M201.783,82.085
	c-0.497,0.5-1.366,0.5-1.866,0L181.26,63.429l0-42.858l18.656-18.658c0.515-0.515,1.351-0.515,1.866,0l17.806,17.806l-20.425,20.424
	c-0.493,0.491-0.77,1.158-0.768,1.854c0,0.7,0.273,1.36,0.768,1.854l20.425,20.427L201.783,82.085L201.783,82.085z M241.103,82.085
	c-0.497,0.5-1.366,0.5-1.866,0l-17.854-17.853V19.765l17.853-17.853c0.515-0.515,1.351-0.515,1.866,0l18.09,18.09l-20.138,20.14
	c-1.024,1.025-1.024,2.685,0,3.71l20.14,20.14l-18.09,18.09L241.103,82.085z M259.403,21.641v40.716l-19.427-19.424
	c-0.25-0.25-0.386-0.58-0.386-0.932c0-0.353,0.137-0.684,0.386-0.933l19.426-19.424L259.403,21.641z M280.993,82.083
	c-0.496,0.497-1.367,0.498-1.864,0l-18.43-18.425l0-43.322l18.422-18.423c0.497-0.496,1.368-0.496,1.865,0l17.964,17.964
	l-20.266,20.268c-1.021,1.025-1.021,2.683,0,3.708l20.267,20.27l-17.96,17.964L280.993,82.083z M320.629,82.083
	c-0.515,0.516-1.35,0.518-1.867,0.003c-0.001-0.001-0.002-0.002-0.003-0.003l-18.17-18.17V20.079l18.17-18.17
	c0.515-0.513,1.348-0.513,1.863,0l18.028,18.028l-20.205,20.206c-0.496,0.496-0.77,1.154-0.77,1.854s0.274,1.36,0.77,1.854
	l20.205,20.206l-18.022,18.025L320.629,82.083z M360.379,82.083c-0.498,0.497-1.37,0.498-1.866,0l-18.29-18.292V20.204l18.29-18.29
	c0.495-0.498,1.366-0.498,1.863,0l18.13,18.13l-20.1,20.1c-1.022,1.025-1.022,2.685,0,3.71l20.1,20.1l-18.13,18.13L360.379,82.083z
	 M378.675,21.718v40.56l-19.347-19.347c-0.516-0.515-0.518-1.35-0.003-1.867c0.001-0.001,0.002-0.002,0.003-0.003l19.347-19.345
	V21.718z M400.353,82.088c-0.515,0.515-1.351,0.515-1.866,0l-18.505-18.5V20.421l18.502-18.5c0.515-0.514,1.35-0.515,1.866-0.002
	l18.21,18.21l-20.022,20.025c-1.021,1.025-1.021,2.683,0,3.708l20.022,20.025l-18.206,18.206L400.353,82.088z M418.65,21.877v40.252
	l-19.192-19.193c-0.516-0.515-0.518-1.35-0.003-1.867c0.001-0.001,0.002-0.002,0.003-0.003L418.65,21.877z M440.476,82.089
	c-0.498,0.498-1.368,0.497-1.866,0l-18.656-18.657V20.574L438.61,1.919c0.495-0.498,1.367-0.5,1.865,0l17.805,17.804l-20.424,20.425
	c-1.022,1.025-1.022,2.685,0,3.71l20.424,20.429l-17.804,17.807V82.089z M479.796,82.089c-0.498,0.498-1.368,0.497-1.866,0
	l-17.854-17.855V19.771L477.93,1.917c0.494-0.497,1.366-0.5,1.865,0l18.298,18.3v43.574
	C498.093,63.791,479.796,82.089,479.796,82.089z"/>
</svg>
