<?xml version="1.0" encoding="utf-8"?>
<!-- Generator: Adobe Illustrator 17.0.2, SVG Export Plug-In . SVG Version: 6.00 Build 0)  -->
<!DOCTYPE svg PUBLIC "-//W3C//DTD SVG 1.1//EN" "http://www.w3.org/Graphics/SVG/1.1/DTD/svg11.dtd">
<svg version="1.1" id="Layer_1" xmlns="http://www.w3.org/2000/svg" xmlns:xlink="http://www.w3.org/1999/xlink" x="0px" y="0px"
	 width="500px" height="84px" viewBox="0 0 500 84" enable-background="new 0 0 500 84" xml:space="preserve">
<path fill="#0067A0" d="M0.23,84.221c0.36,0,0.652-0.292,0.652-0.65V66.073l17.377,17.38c0.99,0.99,2.717,0.99,3.71,0l16.93-16.932
	v17.05c0,0.36,0.292,0.652,0.652,0.652c0.36,0,0.652-0.292,0.652-0.652V66.073l17.377,17.38c0.99,0.99,2.717,0.99,3.71,0
	l17.733-17.735V83.57c0,0.36,0.292,0.652,0.652,0.652c0.36,0,0.652-0.292,0.652-0.652V66.075l17.374,17.378
	c1.026,1.022,2.684,1.022,3.71,0l17.58-17.58v17.698c0,0.36,0.292,0.651,0.651,0.651c0.36,0,0.652-0.292,0.652-0.651l0,0V66.077
	l17.37,17.376c0.99,0.99,2.717,0.99,3.707,0l17.37-17.37v17.488c0,0.36,0.292,0.652,0.652,0.652c0.36,0,0.652-0.292,0.652-0.652
	V66.076l17.38,17.377c1.026,1.022,2.684,1.022,3.71,0l17.245-17.24v17.363c0,0.36,0.292,0.651,0.651,0.651
	c0.36,0,0.651-0.292,0.651-0.651V66.083l17.38,17.374c0.99,0.99,2.72,0.99,3.71,0l17.5-17.5v17.62c0,0.36,0.292,0.652,0.652,0.652
	c0.36,0,0.652-0.292,0.652-0.652v-17.5l17.38,17.378c0.99,0.99,2.716,0.993,3.706,0l16.935-16.93v17.05
	c0,0.36,0.291,0.651,0.651,0.651c0.36,0,0.651-0.291,0.651-0.651l0,0v-17.5l17.38,17.38c0.99,0.99,2.715,0.99,3.705,0l17.736-17.736
	v17.854c0.002,0.359,0.294,0.649,0.653,0.647c0.357-0.002,0.646-0.29,0.647-0.647V66.078l17.38,17.378
	c0.99,0.996,2.717,0.996,3.707,0l17.58-17.58v17.7c0,0.36,0.292,0.652,0.652,0.652c0.36,0,0.651-0.292,0.651-0.652v-17.5
	l17.38,17.38c0.99,0.99,2.717,0.99,3.707,0l17.368-17.37v17.49c0,0.36,0.291,0.651,0.651,0.651c0.36,0,0.651-0.291,0.651-0.651l0,0
	V66.081l17.382,17.378c0.99,0.99,2.717,0.99,3.707,0l17.249-17.246v17.364c0,0.36,0.292,0.652,0.652,0.652
	c0.36,0,0.652-0.292,0.652-0.652V66.083l17.378,17.38c0.99,0.99,2.72,0.99,3.71,0l39.15-39.154c0.494-0.49,0.771-1.158,0.77-1.854
	c0-0.7-0.274-1.36-0.77-1.854l-39.15-39.153c-0.491-0.494-1.159-0.771-1.855-0.77c-0.7,0-1.36,0.274-1.854,0.77l-17.38,17.377V0.873
	c-0.028-0.359-0.342-0.627-0.701-0.599c-0.32,0.025-0.574,0.279-0.599,0.599v17.814L419.84,1.439
	c-0.49-0.492-1.156-0.768-1.85-0.768c-0.7,0-1.36,0.273-1.854,0.768l-17.375,17.378V0.873c-0.02-0.36-0.328-0.635-0.687-0.615
	c-0.332,0.018-0.597,0.283-0.615,0.615V18.81l-17.37-17.37c-0.496-0.495-1.154-0.768-1.854-0.768c-0.7,0-1.36,0.27-1.854,0.76
	l-17.376,17.381V0.873c-0.002-0.36-0.295-0.651-0.655-0.649c-0.358,0.002-0.647,0.291-0.649,0.649v18.15L340.121,1.44
	c-0.492-0.494-1.16-0.77-1.857-0.768c-0.7,0-1.36,0.272-1.855,0.767l-17.38,17.377V0.876c-0.028-0.359-0.342-0.627-0.701-0.599
	c-0.32,0.025-0.574,0.279-0.599,0.599v18.302L299.994,1.442c-0.491-0.493-1.159-0.77-1.855-0.768c-0.7,0-1.36,0.273-1.854,0.768
	L278.909,18.82V0.873c-0.014-0.36-0.317-0.64-0.677-0.626c-0.34,0.013-0.613,0.286-0.626,0.626v17.5l-16.93-16.934
	c-0.491-0.493-1.159-0.77-1.855-0.768c-0.7,0-1.36,0.273-1.856,0.768l-17.38,17.377V0.873c0-0.36-0.292-0.652-0.652-0.652
	s-0.652,0.292-0.652,0.652v18.07l-17.503-17.5c-0.49-0.495-1.159-0.772-1.855-0.77c-0.7,0-1.36,0.273-1.854,0.768l-17.374,17.376
	V0.873c0-0.36-0.292-0.652-0.652-0.652s-0.652,0.292-0.652,0.652v17.815L181.145,1.441c-0.491-0.493-1.158-0.77-1.854-0.768
	c-0.7,0-1.358,0.273-1.854,0.768l-17.378,17.376V0.873c0-0.36-0.292-0.652-0.652-0.652s-0.652,0.292-0.652,0.652v17.938
	l-17.37-17.37c-0.491-0.494-1.159-0.771-1.855-0.768c-0.696-0.002-1.363,0.274-1.853,0.768l-17.376,17.376V0.873
	c-0.014-0.36-0.317-0.64-0.677-0.626c-0.34,0.013-0.613,0.286-0.626,0.626v18.148l-17.58-17.58c-0.49-0.494-1.158-0.771-1.854-0.77
	c-0.7,0-1.36,0.274-1.857,0.77L80.335,18.816V0.873c0-0.36-0.292-0.652-0.652-0.652c-0.36,0-0.652,0.292-0.652,0.652v18.302
	L61.297,1.44c-0.491-0.493-1.159-0.77-1.855-0.768c-0.7,0-1.36,0.27-1.852,0.76L40.205,18.813V0.873
	c-0.014-0.36-0.317-0.64-0.677-0.626c-0.34,0.013-0.613,0.286-0.626,0.626v17.5L21.97,1.441c-0.491-0.493-1.159-0.77-1.855-0.768
	c-0.7,0-1.36,0.273-1.854,0.768L0.881,18.816V0.873c-0.014-0.36-0.317-0.64-0.677-0.626c-0.34,0.013-0.613,0.286-0.626,0.626
	l0,82.697C-0.422,83.93-0.13,84.22,0.23,84.221L0.23,84.221L0.23,84.221z M40.202,21.518l19.996,19.995
	c0.515,0.515,0.515,1.351,0,1.866L40.202,63.373V21.518z M160.049,21.956l19.558,19.558c0.516,0.511,0.52,1.345,0.009,1.861
	c-0.003,0.003-0.006,0.006-0.009,0.009l-19.56,19.56v-40.98L160.049,21.956z M199.684,21.833l19.68,19.68
	c0.515,0.515,0.515,1.351,0,1.866l-19.68,19.68V21.833L199.684,21.833z M278.886,21.516l19.999,19.997
	c0.514,0.516,0.514,1.35,0,1.866l-19.996,19.997v-41.86H278.886z M398.735,21.953l19.56,19.56c0.516,0.516,0.517,1.353,0,1.87l0,0
	l-19.56,19.56V21.959V21.953z M438.371,21.833l19.683,19.686c0.515,0.516,0.515,1.351,0,1.867l-19.685,19.68v-41.23L438.371,21.833z
	 M456.671,2.363c0.496-0.5,1.365-0.5,1.864,0l39.154,39.156c0.515,0.516,0.515,1.351,0,1.867l-39.152,39.153
	c-0.515,0.516-1.351,0.516-1.867,0l0,0l-17.965-17.966l20.268-20.27c0.494-0.49,0.77-1.157,0.768-1.853c0-0.7-0.27-1.36-0.767-1.854
	l-20.27-20.27l17.963-17.962L456.671,2.363z M417.034,2.363c0.5-0.5,1.366-0.5,1.865,0l18.17,18.17v43.838l-18.17,18.166
	c-0.515,0.516-1.351,0.516-1.867,0.001l-0.001-0.001l-18.026-18.024l20.208-20.208c0.494-0.49,0.771-1.158,0.77-1.854
	c0-0.7-0.274-1.36-0.77-1.854l-20.207-20.206l18.026-18.025L417.034,2.363z M377.276,2.363c0.498-0.5,1.367-0.5,1.866,0l18.29,18.29
	v43.59l-18.29,18.29c-0.515,0.515-1.351,0.515-1.866,0l-18.13-18.13l20.1-20.1c1.024-1.025,1.024-2.685,0-3.71l-20.1-20.1
	L377.276,2.363z M358.985,62.733V22.17l19.347,19.348c0.25,0.25,0.386,0.58,0.386,0.935c0,0.353-0.137,0.684-0.386,0.933
	L358.985,62.733z M337.315,2.367c0.497-0.5,1.366-0.5,1.865,0l18.502,18.5v43.168l-18.5,18.5c-0.515,0.516-1.351,0.516-1.867,0.001
	l-0.001-0.001l-18.21-18.207l20.02-20.02c0.494-0.491,0.772-1.159,0.77-1.855c0-0.7-0.275-1.36-0.77-1.854L319.1,20.575
	l18.21-18.206L337.315,2.367z M319.015,62.577V22.323l19.195,19.193c0.516,0.516,0.517,1.353,0,1.87l0,0L319.015,62.577
	L319.015,62.577L319.015,62.577z M297.192,2.365c0.497-0.5,1.366-0.5,1.866,0l18.657,18.656v42.858l-18.656,18.658
	c-0.515,0.515-1.351,0.515-1.866,0l-17.806-17.806l20.425-20.424c0.493-0.491,0.77-1.158,0.768-1.854c0-0.7-0.273-1.36-0.768-1.854
	l-20.425-20.427L297.192,2.365L297.192,2.365z M257.872,2.365c0.497-0.5,1.366-0.5,1.866,0l17.854,17.853v44.467l-17.853,17.853
	c-0.515,0.515-1.351,0.515-1.866,0l-18.09-18.09l20.138-20.14c1.024-1.025,1.024-2.685,0-3.71l-20.14-20.14l18.09-18.09
	L257.872,2.365z M239.572,62.809V22.093l19.427,19.424c0.25,0.25,0.386,0.58,0.386,0.932c0,0.353-0.137,0.684-0.386,0.933
	l-19.426,19.424L239.572,62.809z M217.982,2.367c0.496-0.497,1.367-0.498,1.864,0l18.43,18.425v43.322l-18.422,18.423
	c-0.497,0.496-1.368,0.496-1.865,0l-17.964-17.964l20.266-20.268c1.021-1.025,1.021-2.683,0-3.708l-20.267-20.27l17.96-17.964
	L217.982,2.367z M178.346,2.367c0.515-0.516,1.35-0.518,1.867-0.003c0.001,0.001,0.002,0.002,0.003,0.003l18.17,18.17v43.834
	l-18.17,18.17c-0.515,0.513-1.348,0.513-1.863,0l-18.028-18.028l20.205-20.206c0.496-0.496,0.77-1.154,0.77-1.854
	s-0.274-1.36-0.77-1.854l-20.205-20.206L178.346,2.367L178.346,2.367z M138.596,2.367c0.498-0.497,1.37-0.498,1.866,0l18.29,18.292
	v43.587l-18.29,18.29c-0.495,0.498-1.366,0.498-1.863,0l-18.13-18.13l20.1-20.1c1.022-1.025,1.022-2.685,0-3.71l-20.1-20.1
	l18.13-18.13L138.596,2.367z M120.3,62.732v-40.56l19.347,19.347c0.516,0.515,0.518,1.35,0.003,1.867
	c-0.001,0.001-0.002,0.002-0.003,0.003L120.3,62.734V62.732z M98.622,2.362c0.515-0.515,1.351-0.515,1.866,0l18.505,18.5v43.167
	l-18.502,18.5c-0.515,0.514-1.35,0.515-1.866,0.002l-18.21-18.21l20.022-20.025c1.021-1.025,1.021-2.683,0-3.708L80.415,20.563
	L98.621,2.357L98.622,2.362z M80.325,62.573V22.321l19.192,19.193c0.516,0.515,0.518,1.35,0.003,1.867
	c-0.001,0.001-0.002,0.002-0.003,0.003L80.325,62.573z M58.499,2.361c0.498-0.498,1.368-0.497,1.866,0l18.656,18.657v42.858
	L60.365,82.531c-0.495,0.498-1.367,0.5-1.865,0L40.695,64.727l20.424-20.425c1.022-1.025,1.022-2.685,0-3.71L40.695,20.163
	L58.499,2.356L58.499,2.361L58.499,2.361z M19.179,2.361c0.498-0.498,1.368-0.497,1.866,0l17.854,17.855v44.463L21.045,82.533
	c-0.494,0.497-1.366,0.5-1.865,0l-18.298-18.3V20.659L19.179,2.361z"/>
</svg>
