<svg baseProfile="basic" xmlns="http://www.w3.org/2000/svg" width="150" height="150" viewBox="0 0 150 150"><path fill-rule="evenodd" clip-rule="evenodd" fill="#4CB689" d="M145.835 114.758a21.2 21.2 0 0 0-13.986-8.443 21.598 21.598 0 0 0-3.23-.244c-4.47 0-8.686 1.44-12.17 3.89l-10.496-11.48a20.716 20.716 0 0 0 6.396-12.1c1.725-11.37-6.096-21.985-17.467-23.71a20.822 20.822 0 0 0-4.953-.135l-8.06-22.107c6.035-3.04 10.537-8.87 11.598-15.874A21.207 21.207 0 0 0 89.55 8.69 21.206 21.206 0 0 0 75.563.244 21.44 21.44 0 0 0 72.34 0C61.89 0 52.825 7.803 51.257 18.15c-.826 5.45.465 10.885 3.605 15.39L37.36 47.395a21.17 21.17 0 0 0-12.813-7.003 21.574 21.574 0 0 0-3.225-.244c-10.45 0-19.51 7.802-21.08 18.15-1.763 11.636 6.27 22.54 17.907 24.304a21.55 21.55 0 0 0 3.22.244c10.45 0 19.51-7.803 21.08-18.15a21.204 21.204 0 0 0-3.92-15.86c-.16-.22-.346-.42-.516-.633L55.48 34.38c3.37 4.374 8.204 7.243 13.683 8.073 1.068.162 2.154.244 3.226.244 3.01 0 5.89-.666 8.53-1.836l7.94 21.78c-8.882 1.247-16.275 8.173-17.69 17.496-1.722 11.373 6.1 21.988 17.47 23.713 6.17.934 12.106-.957 16.53-4.684l10.443 11.42c-4.22 3.275-7.233 8.082-8.075 13.637a21.202 21.202 0 0 0 3.92 15.86 21.2 21.2 0 0 0 13.985 8.444c1.07.163 2.154.245 3.226.245 10.45 0 19.512-7.803 21.08-18.15a21.205 21.205 0 0 0-3.92-15.86zM41.423 64.54c-1.492 9.843-10.11 17.265-20.05 17.265-1.02 0-2.053-.078-3.068-.232-11.07-1.678-18.71-12.05-17.032-23.12 1.492-9.84 10.11-17.263 20.05-17.263 1.02 0 2.052.078 3.068.232a20.17 20.17 0 0 1 13.31 8.032 20.172 20.172 0 0 1 3.73 15.087zM69.32 41.426a20.17 20.17 0 0 1-13.304-8.032 20.17 20.17 0 0 1-3.728-15.086C53.78 8.465 62.4 1.042 72.338 1.042c1.02 0 2.053.078 3.07.232 5.36.814 10.085 3.666 13.302 8.032s4.54 9.725 3.727 15.088c-1.492 9.84-10.11 17.263-20.048 17.263-1.02 0-2.06-.08-3.07-.232zM91.75 93.79c-.36.36-.835.534-1.423.523-.57-.01-1.02-.194-1.357-.55-.336-.354-.5-.81-.488-1.373.01-.58.202-1.045.572-1.397.37-.35.85-.52 1.437-.51.55.012 1 .185 1.33.52.34.336.5.774.49 1.316-.01.62-.2 1.11-.56 1.47zm4.145-12.662c-.416.708-.974 1.394-1.673 2.057-.76.72-1.35 1.41-1.776 2.07a4.04 4.04 0 0 0-.66 2.15c-.01.58-.01.968.007 1.16l-2.708.035c-.22-.74-.325-1.43-.313-2.067.017-.87.232-1.61.646-2.222.414-.61 1.02-1.27 1.82-1.99 1.335-1.153 2.015-2.3 2.037-3.442.012-.6-.205-1.078-.65-1.435-.443-.357-1.038-.543-1.783-.557a9.23 9.23 0 0 0-1.74.156c-.648.113-1.24.28-1.774.5l-.96-2.11c1.45-.88 3.155-1.3 5.115-1.26 1.51.03 2.737.425 3.684 1.19.946.762 1.405 1.88 1.376 3.35-.016.907-.233 1.715-.648 2.423zm52.83 49.334c-1.492 9.842-10.112 17.264-20.05 17.264a20.56 20.56 0 0 1-3.07-.232 20.176 20.176 0 0 1-13.303-8.03 20.166 20.166 0 0 1-3.727-15.087c1.492-9.842 10.112-17.264 20.05-17.264 1.02 0 2.05.078 3.068.232a20.176 20.176 0 0 1 13.304 8.03 20.175 20.175 0 0 1 3.727 15.087z"/></svg>