<svg xmlns="http://www.w3.org/2000/svg" width="122" height="28" viewBox="-141.5 274.5 122 28"><path fill="#FFF" d="M-101.305 286.276c-1.384.518-2.316.7-3.53.7-3.418 0-5.92-2.4-5.92-5.7 0-3.214 2.5-5.714 5.717-5.714 1.148 0 1.984.166 2.93.617v-.64h.785v2.714h-.784v-.818c-1.014-.75-1.766-1.03-2.833-1.03-2.415 0-4.166 1.964-4.166 4.697 0 2.117.834 3.6 2.517 4.482.64.332 1.3.516 1.92.516.82 0 1.5-.235 2.568-.835v-1.1h.8v2.1m11.27.485v-.616h-1.25v-6.464h1.25v-.616H-93.8v.617h1.23v2.85h-4.548v-2.85h1.25v-.614h-3.765v.618h1.25v6.465h-1.25v.615h3.765v-.618h-1.25v-2.95h4.548v2.95h-1.23v.616h3.764zm5.576 0v-.616h-1.25v-6.414h1.25v-.666h-3.765v.667h1.25v6.418h-1.25v.614h3.764zm7.708 0v-1.534h-.6v.868h-2.8v-6.363h1.25v-.666h-3.764v.666h1.248v6.413h-1.246v.616h5.916zm5.15-.666h-1.3v-6.363h1.32c1.53 0 2.714 1.4 2.714 3.2 0 1.798-1.182 3.165-2.732 3.165zm-3.814.05v.617h3.95c2.3 0 4.032-1.65 4.032-3.85 0-2.15-1.765-3.85-4.032-3.85h-3.95v.62h1.25v6.465h-1.25zm26.88.617v-.615h-1.25v-9.765h1.25v-.618h-2.6l-3.917 8.5-3.796-8.5h-2.686v.618h1.265v9.766h-1.266v.615h3.365v-.614h-1.27v-8.38l4.1 9.163 4.086-8.98v8.196h-1.25v.615h3.965zm5.508 0v-.615h-1.25v-6.415h1.25v-.668h-3.765v.668h1.25v6.416h-1.25v.615h3.766zm9.288.134v-7.165h1.25v-.67h-3.35v.67h1.27v4.764l-4.684-5.43h-2.152v.667h1.17l.333.434v5.983h-1.25v.618h3.35v-.62h-1.267v-4.914l4.833 5.665c0 .002.5.002.5.002zm6.56-.8h-1.3v-6.364h1.32c1.532 0 2.714 1.396 2.714 3.197 0 1.8-1.18 3.167-2.73 3.167zm-3.812.05v.616h3.947c2.3 0 4.033-1.65 4.033-3.85 0-2.15-1.767-3.85-4.033-3.85H-31v.617h1.247v6.467H-31zm-74.023 14.672v-.618h-1.25v-9.765h1.25v-.616h-3.967v.618h1.25v9.764h-1.25v.613h3.967zm9.29.13v-7.163h1.25v-.667h-3.35v.67h1.27v4.766l-4.684-5.432h-2.153v.667h1.167l.335.435v5.982h-1.25v.616h3.35v-.616h-1.267v-4.916l4.833 5.667h.5zm3.247-.033v-.43c.652.366 1.25.55 1.883.55 1.383 0 2.417-.95 2.417-2.2 0-1.083-.4-1.616-1.834-2.417-.35-.2-.75-.432-1.182-.68-.565-.333-.75-.566-.75-1 0-.683.518-1.116 1.3-1.116.45 0 .75.082 1.4.432v.6h.617v-1.766h-.617v.42a3.038 3.038 0 0 0-1.517-.384c-1.334 0-2.384.95-2.384 2.15 0 .983.5 1.565 1.964 2.3 1.385.7 1.834 1.133 1.834 1.767 0 .65-.6 1.114-1.434 1.114-.567 0-1.033-.15-1.7-.55v-.795h-.617v2.01h.618zm12.118-7.797h-6.73v1.535h.597v-.864h2.435v6.414h-1.417v.613h4.1v-.616h-1.42v-6.416h2.436v.866h.615V293.1h-.615zm1.89.67h1.25v6.415h-1.25v.617h3.763v-.615h-1.247v-6.414h1.247v-.67h-3.762v.67zm11.77-.668h-6.73v1.534h.597v-.865h2.435v6.416h-1.417v.616h4.098v-.614h-1.416v-6.416h2.434v.866h.618v-1.534h-.616zm7.13.668h1.25v4.164c0 1.35-.897 2.32-2.15 2.32-1.215 0-2.03-.936-2.03-2.3v-4.184h1.265v-.665h-3.785v.67h1.268v4.533c0 1.566 1.3 2.714 3.083 2.714 1.9 0 3.2-1.23 3.2-3.03v-4.216h1.25v-.666h-3.35v.667zm11.1-.667h-6.73v1.532h.6v-.865h2.433v6.418h-1.417v.615h4.1v-.615h-1.42v-6.416h2.438v.864h.618v-1.534h-.617zm7.24 7.03h-2.83v-2.916h2.13v.83h.617v-2.316l-.614.016v.8h-2.132v-2.782h2.733v.866h.6V293.1h-5.85v.617h1.25v6.467h-1.25v.616h5.964v-1.55h-.614v.884zm-96.502.587c.587-1.077 1.106-2.228 1.15-3.845.034-1.29-.434-2.476-1.325-3.622-2.085-2.67-3.59-4.598-3.585-8.32.005-2.55 1.09-5.163 2.985-7.168 1.99-2.107 4.69-3.276 7.303-3.276 4.265 0 7.47 2.325 8.856 5.35.647 1.41.957 3.018.587 4.266.098.17.436.812.577 1.1.614 1.26 1.847 1.913 1.847 2.984 0 .66-.555.953-.555.953-.165.13-.73.32-.73.5 0 .284.45.68.44 1.135-.006.24-.106.66-.703.937.345.275.72.597.365 1.293-.366.712-.046.864-.17 1.477-.14.703-.4 1.113-.922 1.458-.506.338-1.18.525-1.9.527 0 0-1.166-.066-1.82.227-.535.24-.84.646-.993 1.308-.11.496-.12 1.36-.12 1.376 1.603.1 3.067.414 4.355.935a.35.35 0 0 1 .197.457c-.053.132-.18.234-.323.22-.15-.02-2.376-1-5.38-.947-4.33.076-7.74 1.25-8.965 1.854-.132.065-.57.217-.96-.09a.868.868 0 0 1-.207-1.085m6.524-25.535c-2.52 0-4.934 1.085-6.796 3.06-1.774 1.88-2.79 4.317-2.79 6.686.005 3.473 1.297 5.137 3.436 7.89.98 1.256 1.48 2.62 1.473 4.053-.01 2.03-.983 3.64-1.228 4.17-.034.078-.052.166.01.214.105.086.25.004.304-.022 2.116-.997 5.375-1.63 7.276-1.8 1.406-.124 2.372-.085 2.372-.085 0-.572.05-1.087.14-1.496.18-.85.676-1.488 1.393-1.796.6-.26 1.237-.29 1.785-.29 0 0 1.18.08 1.834-.404.373-.28.574-.48.62-1.003.033-.366-.05-.65-.015-.887.09-.627.322-.835.316-.967 0-.067-.464-.447-.742-.494-.032-.006-.325-.056-.336-.35a.346.346 0 0 1 .28-.35s.91-.207.98-.46c.04-.146-.044-.265-.137-.408-.21-.317-.298-.59-.29-.81a.863.863 0 0 1 .36-.68c.49-.365.93-.38.925-.767-.008-.39-.327-.722-.714-1.163-.417-.478-1.347-1.88-1.37-2.113-.36.617-1.1 1.04-1.877 1.03-1.47-.02-1.84-1.13-1.82-1.702.024-.7.58-1.634 1.802-1.617a2.334 2.334 0 0 1 1.69.713c.015-.145.264-1.747-1.06-3.966-1.574-2.63-4.466-4.18-7.82-4.183zm7.184 8.134c-.79.01-1.083.51-1.094.975.008.275.133.94 1.12.945.79.004 1.22-.45 1.46-1.054-.323-.47-.732-.86-1.484-.866z"/><path fill="#FFF" d="M-131.9 296.246c-1.775.058-3.337-.898-3.362-.913-.187-.11-.176-.365-.177-.546 0-.278-.01-.66-.02-.76-.12-1.093-.83-2.29-2.09-3.552-1.78-1.77-2.44-3.295-2.43-5.628.004-3.323 2.855-7.033 6.936-7.043 2.436 0 4.56 1.143 5.68 3.056.524.888.8 1.792.8 2.615 0 .29-.034.563-.103.81.22.413.446.888.68 1.203.486.65.94.975.94 1.54 0 .693-.823.828-.857.952-.015.133.29.504.292.782 0 .164-.076.446-.428.635.04.034.312.24.3.515a1.16 1.16 0 0 1-.135.434c-.146.233-.06.57-.06.702 0 .553-.23.913-.658 1.212-.258.18-.558.266-.864.325-.374.072-.94 0-1.297.208-.19.112-.496.345-.187 1.298.07.218.11.42.114.65.006.312-.145.61-.426.84-.22.18-1.083.672-2.644.672m-2.97-1.34a5.946 5.946 0 0 0 2.97.77c1.428-.02 2.163-.442 2.275-.54.2-.174.216-.274.224-.404.01-.172-.253-.966-.245-1.36.01-.46.217-.862.6-1.072.29-.165.664-.245 1.142-.247.377 0 .735-.098.985-.265.274-.186.403-.42.405-.74 0-.054-.08-.586.107-.93.064-.12.077-.18.083-.197-.224-.234-.485-.292-.487-.293a.285.285 0 0 1-.01-.558c.004 0 .61-.138.63-.308.013-.096-.585-.665-.124-1.18.227-.257.693-.31.693-.545 0-.19-.14-.387-.27-.528-.783-.846-1.085-1.575-1.085-1.575-.327.43-.675.623-1.25.64-1.034.024-1.266-.85-1.266-1.156s.194-1.13 1.246-1.168c.435-.015.828.172 1.098.418.006-.064.078-1.262-.713-2.52-1.122-1.787-2.963-2.776-5.19-2.776-1.673 0-3.276.72-4.513 2.032-1.18 1.25-1.857 2.87-1.855 4.443.006 2.208.58 3.527 2.267 5.226 1.354 1.354 2.112 2.66 2.254 3.89.03.21.03.88.03.94zm5.948-10.486c0 .155.095.65.88.574.487-.047.71-.56.743-.636-.21-.293-.437-.506-.845-.532-.674-.044-.78.443-.78.597z"/><path fill="#FFF" d="M-129.606 285.38c-.106-.127-.324-.362-.506-.746a4.604 4.604 0 0 0-.136-.26c.038-.15.058-.314.058-.487 0-.517-.173-1.084-.5-1.64-.7-1.194-2.026-1.908-3.544-1.908-2.544.002-4.32 2.32-4.326 4.39-.006 1.43.418 2.41 1.513 3.5.62.62 1.025 1.162 1.21 1.62.157.38.13 1.02.13 1.02-.003.19.04.25.13.315a4.193 4.193 0 0 0 2.133.587h.003c.912 0 1.43-.29 1.57-.406.184-.153.29-.36.284-.57a1.796 1.796 0 0 0-.075-.423c-.03-.113-.077-.27-.074-.42.004-.172.056-.232.16-.3.16-.1.494-.095.494-.095.225 0 .55-.04.84-.234.28-.18.5-.508.42-1.02-.01-.05.015-.116.05-.186.002-.013.08-.16.083-.29.006-.266-.265-.316-.268-.318.104-.038.353-.118.347-.39-.004-.213-.17-.402-.177-.45.015-.013.195-.104.25-.14a.56.56 0 0 0 .275-.475c0-.345-.28-.604-.347-.683m-.15.726c-.016.024-.3.15-.39.253a.47.47 0 0 0-.12.27c-.04.207.17.454.177.498-.028.085-.512.052-.52.367-.008.235.312.213.432.365a.983.983 0 0 0-.115.575c.04.277-.085.418-.212.497a1.1 1.1 0 0 1-.568.15c-.31.002-.544.053-.735.162a.8.8 0 0 0-.4.715c0 .29.148.726.148.84 0 .375-.98.496-1.378.496a3.72 3.72 0 0 1-1.78-.457s.036-.68-.167-1.167c-.218-.522-.642-1.108-1.317-1.783-1.033-1.04-1.366-1.81-1.372-3.16 0-.95.407-1.925 1.12-2.68.748-.79 1.722-1.225 2.722-1.225 1.337 0 2.51.625 3.127 1.67.27.46.422.938.43 1.354a1.092 1.092 0 0 0-.61-.185c-.645 0-.85.51-.85.803 0 .274.182.776.86.79 0 0 .46.03.767-.338.2.42.595.84.62.87.114.133.178.247.134.314zm-.953-1.68c-.02.047-.15.354-.454.385-.48.05-.535-.255-.535-.346 0-.09.05-.384.476-.364.202.01.377.127.514.325zm109.12-9.22c.36 0 .7.09 1.03.265.33.178.59.43.775.76a2.04 2.04 0 0 1 .005 2.058 1.954 1.954 0 0 1-.77.76 2.124 2.124 0 0 1-2.08 0 1.954 1.954 0 0 1-.773-.76 2.035 2.035 0 0 1 .006-2.055c.188-.33.446-.583.775-.76a2.17 2.17 0 0 1 1.03-.263m.003.402c-.283 0-.56.07-.822.21a1.547 1.547 0 0 0-.623.61 1.643 1.643 0 0 0 .616 2.266 1.695 1.695 0 0 0 1.67 0 1.6 1.6 0 0 0 .62-.61 1.635 1.635 0 0 0-.004-1.654 1.543 1.543 0 0 0-.623-.61 1.725 1.725 0 0 0-.828-.212zm-.942 2.75v-2.18h.45c.422 0 .658 0 .71.006.15.014.264.043.347.088a.6.6 0 0 1 .29.522.57.57 0 0 1-.155.402.722.722 0 0 1-.44.207.54.54 0 0 1 .153.08.953.953 0 0 1 .15.165c.016.022.07.11.163.265l.262.44h-.557l-.185-.352c-.124-.238-.23-.39-.31-.45a.504.504 0 0 0-.31-.093h-.117v.896h-.45zm.45-1.24h.183c.26 0 .423-.007.485-.027a.28.28 0 0 0 .204-.27.264.264 0 0 0-.054-.163.286.286 0 0 0-.15-.1c-.066-.02-.226-.032-.482-.032h-.182l-.002.595z"/></svg>