<svg baseProfile="tiny" xmlns="http://www.w3.org/2000/svg" width="115" height="35" viewBox="0 0 115 35"><path fill="none" d="M70.708 12.858c0-1.577-1.037-2.802-2.38-2.802h-1.153v5.576h1.14c1.356 0 2.393-1.198 2.393-2.774zm36.532-2.802h-1.154v5.576h1.14c1.357 0 2.393-1.198 2.393-2.774 0-1.577-1.04-2.802-2.38-2.802zM20.775 12.55c.01.35.17 1.19 1.42 1.2 1.003.005 1.546-.572 1.856-1.336-.41-.602-.93-1.095-1.88-1.103-1.003.02-1.375.65-1.39 1.24z"/><path fill="none" d="M5.247 23.367c1.242 1.592 1.876 3.32 1.87 5.14-.012 2.576-1.246 4.62-1.558 5.29-.05.1-.07.21.01.27.13.106.31.002.38-.03 2.685-1.265 6.82-2.068 9.23-2.282 1.784-.16 3.01-.11 3.01-.11 0-.726.06-1.38.176-1.9.23-1.076.86-1.885 1.77-2.276.762-.34 1.566-.37 2.26-.37 0 0 1.5.1 2.326-.52.474-.356.73-.61.79-1.273.04-.465-.063-.825-.02-1.127.115-.794.41-1.06.403-1.225-.003-.085-.59-.566-.946-.627-.04-.005-.41-.07-.426-.442a.44.44 0 0 1 .35-.444s1.153-.264 1.244-.584c.05-.187-.058-.338-.176-.52-.26-.4-.374-.75-.365-1.025a1.1 1.1 0 0 1 .455-.865c.62-.463 1.184-.48 1.177-.97-.01-.498-.413-.917-.905-1.477-.53-.603-1.71-2.38-1.74-2.68-.456.784-1.397 1.32-2.38 1.308-1.87-.028-2.338-1.438-2.31-2.16.032-.89.734-2.078 2.287-2.056a2.96 2.96 0 0 1 2.14.905c.02-.183.338-2.216-1.342-5.03-1.99-3.337-5.66-5.3-9.917-5.3-3.196 0-6.257 1.378-8.62 3.88-2.25 2.387-3.54 5.48-3.54 8.485.007 4.407 1.645 6.517 4.36 10.012z"/><path fill="#007FB1" d="M77.13 15.675v.54h2.95v-.54h-1.11V8.333l3.59 8.028 3.578-7.86v7.18h-1.096v.54h3.474v-.54H87.42V7.123h1.096v-.54H86.24l-3.432 7.445-3.326-7.444h-2.35v.54h1.108v8.555zm11.985 7.453v-1.344h-6.438v1.344h.526v-.76h2.13v5.62h-1.24v.54h3.59v-.54h-1.24v-5.62h2.132v.76zM39.04 19.435v-.54h-3.476v.54h1.095v8.553h-1.1v.54h3.472v-.54H37.94v-8.553zm3.307 2.35h-1.884v.584h1.02l.294.372v5.24h-1.095v.54h2.934v-.54h-1.11V23.68l4.234 4.964h.438V22.37h1.096v-.586h-2.936v.585h1.11v4.17zM107.342 9.47h-3.458v.54h1.093v5.665h-1.093v.54h3.458c2.016 0 3.533-1.446 3.533-3.372 0-1.882-1.548-3.372-3.533-3.372zm-.117 6.16h-1.14v-5.575h1.155c1.343 0 2.38 1.225 2.38 2.802s-1.037 2.774-2.395 2.774zM54.74 23.128h.524v-.76h2.132v5.62h-1.24v.54h3.59v-.54h-1.24v-5.62h2.13v.76h.54v-1.344H54.74zm35.49-.804h1.095v5.664H90.23v.54h5.225v-1.356h-.54v.772h-2.48V25.39h1.867v.73h.54v-2.03l-.54.016v.7h-1.867V22.37h2.393v.758h.525v-1.344H90.23zm-.187-6.65v.54h3.3v-.54h-1.096v-5.62h1.095V9.47h-3.3v.588h1.096v5.62zm6.604-6.204H94.76v.586h1.024l.293.38v5.24h-1.095v.54h2.934v-.54h-1.11V11.37l4.234 4.96h.438v-6.274h1.095V9.47h-2.936v.586h1.11v4.174zm-22.57 12.9h1.11v3.97c0 1.37 1.14 2.377 2.7 2.377 1.664 0 2.804-1.08 2.804-2.656v-3.69h1.1v-.58H78.86v.585h1.093v3.647c0 1.185-.785 2.03-1.883 2.03-1.065 0-1.78-.82-1.78-2.013v-3.67h1.11v-.586H74.08v.585zM42.28 8.77V6.392h-.687v.554c-.83-.394-1.562-.54-2.568-.54-2.818 0-5.01 2.19-5.01 5.006 0 2.89 2.192 4.993 5.186 4.993 1.07 0 1.888-.16 3.1-.615v-1.838h-.7v.963c-.935.525-1.533.73-2.25.73-.54 0-1.123-.16-1.68-.453-1.472-.774-2.203-2.072-2.203-3.926 0-2.394 1.534-4.116 3.65-4.116.934 0 1.592.248 2.48.903v.717h.688zm11.113 14.358V21.58h-.54v.365a2.663 2.663 0 0 0-1.328-.336c-1.168 0-2.088.83-2.088 1.88 0 .86.438 1.37 1.723 2.01 1.21.615 1.605.994 1.605 1.548 0 .57-.526.98-1.256.98-.5 0-.91-.13-1.49-.48v-.698h-.54v1.76h.54v-.38c.57.323 1.09.482 1.65.482 1.21 0 2.112-.83 2.112-1.926 0-.95-.35-1.416-1.606-2.117-.307-.174-.657-.38-1.035-.598-.496-.292-.66-.496-.66-.876 0-.596.456-.975 1.14-.975.395 0 .66.073 1.227.38v.525h.54zm.357-7.453v.54h3.3v-.54h-1.096v-5.62h1.095V9.47h-3.3v.587h1.09v5.62zm8.543 6.695h1.094v5.618h-1.094v.54h3.296v-.54h-1.1v-5.62h1.092v-.584H62.29zm-18.536-6.695v.54h3.298v-.54H45.96v-2.583h3.985v2.583h-1.08v.54h3.3v-.54H51.07v-5.663h1.095v-.54h-3.3v.54h1.08v2.495H45.96v-2.495h1.095v-.54h-3.298v.54h1.095v5.663zm29.387 7.453v-1.344h-6.438v1.344h.525v-.76h2.14v5.62h-1.24v.54h3.59v-.54h-1.25v-5.62h2.133v.76zm-8.174-7.453v.54h3.46c2.016 0 3.533-1.446 3.533-3.372 0-1.883-1.546-3.372-3.532-3.372h-3.46v.54h1.1v5.67h-1.1zm2.205-5.62h1.154c1.34 0 2.372 1.226 2.372 2.803 0 1.576-1.037 2.774-2.394 2.774h-1.14v-5.576zm-8.555 5.62v.54h5.18V14.87h-.526v.76h-2.452v-5.574h1.094V9.47H58.62v.586h1.092v5.62z"/><path fill="#A5B3AB" d="M.02 12.957v.82c.11 4.437 1.966 6.854 4.527 10.134 1.13 1.46 1.725 2.96 1.682 4.6-.06 2.05-.72 3.51-1.46 4.88a1.113 1.113 0 0 0 .253 1.38c.495.39 1.05.197 1.22.11 1.555-.77 5.88-2.252 11.372-2.35 3.81-.07 6.635 1.178 6.826 1.2.18.02.343-.11.41-.276a.444.444 0 0 0-.244-.58H24.6c-1.634-.66-3.49-1.06-5.524-1.187 0-.02.013-1.116.153-1.746.19-.84.58-1.353 1.26-1.66.83-.37 2.31-.29 2.31-.29.91-.002 1.77-.24 2.41-.67.666-.433.993-.955 1.173-1.85.155-.773-.25-.97.212-1.87.452-.885-.025-1.294-.464-1.64.757-.35.884-.887.89-1.185.017-.578-.56-1.08-.56-1.44 0-.234.72-.473.93-.64 0 0 .705-.37.705-1.21 0-1.358-1.564-2.187-2.344-3.786a36.77 36.77 0 0 0-.732-1.396c.47-1.58.075-3.62-.746-5.412C22.524 3.05 18.46.104 13.05.104c-3.315 0-6.74 1.484-9.265 4.157C1.482 6.7.133 9.85.02 12.954zM13.05.99c4.255.002 7.925 1.968 9.92 5.307 1.68 2.815 1.364 4.848 1.344 5.03a2.962 2.962 0 0 0-2.14-.904c-1.554-.022-2.257 1.166-2.29 2.053-.026.725.443 2.135 2.31 2.16.985.013 1.925-.524 2.38-1.305.03.3 1.21 2.08 1.74 2.68.492.56.897.98.905 1.48 0 .49-.56.51-1.18.97a1.1 1.1 0 0 0-.46.867c-.01.277.105.626.367 1.027.12.18.227.33.174.518-.09.32-1.245.585-1.245.585a.44.44 0 0 0-.35.444c.012.373.383.436.424.444.353.06.942.542.945.626.01.166-.287.43-.402 1.225-.046.3.06.66.017 1.126-.06.664-.314.92-.79 1.275-.825.62-2.324.515-2.324.515-.694.002-1.5.033-2.26.366-.91.393-1.538 1.2-1.77 2.28-.115.52-.175 1.172-.176 1.9 0 0-1.226-.05-3.01.11-2.41.212-6.545 1.016-9.23 2.28-.07.033-.253.137-.387.03-.08-.06-.057-.17-.01-.27.31-.67 1.545-2.714 1.556-5.29.01-1.82-.627-3.55-1.87-5.14-2.707-3.5-4.344-5.61-4.354-10.016 0-3.006 1.29-6.097 3.543-8.485C6.79 2.37 9.85.99 13.05.99zm11 11.424c-.308.765-.852 1.34-1.856 1.335-1.25-.01-1.41-.85-1.42-1.2.015-.598.386-1.23 1.39-1.24.956.01 1.474.5 1.887 1.1z"/><path fill="none" d="M15.958 12.69c0 .195.12.822 1.116.727.617-.06.9-.71.942-.807-.264-.374-.55-.644-1.07-.678-.855-.055-.988.563-.988.758zm-3.518.06c0 .114.068.503.677.44.383-.04.546-.43.573-.49-.174-.25-.396-.398-.65-.41-.543-.026-.6.344-.6.46z"/><path fill="none" d="M16.843 14.153c-1.312.034-1.606-1.077-1.606-1.462s.246-1.43 1.58-1.48c.553-.02 1.05.22 1.395.53.005-.08.097-1.6-.906-3.194-1.425-2.266-3.76-3.52-6.584-3.52-2.124 0-4.158.915-5.727 2.58C3.498 9.19 2.64 11.246 2.64 13.24c.01 2.8.74 4.474 2.88 6.63 1.72 1.72 2.68 3.38 2.86 4.933.035.276.036 1.123.04 1.197 1.435.81 2.84.993 3.765.98 1.813-.027 2.745-.56 2.888-.686.256-.222.275-.35.285-.514.014-.22-.317-1.226-.307-1.724.014-.584.278-1.094.76-1.36.37-.21.847-.313 1.45-.315.48 0 .936-.12 1.254-.333.346-.238.51-.537.513-.94 0-.07-.1-.745.136-1.18a.99.99 0 0 0 .105-.25c-.285-.298-.617-.372-.618-.373a.36.36 0 0 1-.015-.707c.004 0 .77-.175.8-.39.014-.12-.744-.842-.16-1.498.29-.325.88-.395.88-.69 0-.24-.177-.493-.342-.67-.99-1.075-1.373-2-1.373-2-.415.547-.856.79-1.587.81zm-1.66 1.23c-.072.044-.3.16-.32.176.008.06.22.3.227.57.008.34-.308.44-.44.49.003 0 .346.063.34.4-.004.17-.104.352-.11.37-.04.09-.07.17-.06.233.102.652-.177 1.065-.53 1.295-.366.242-.78.294-1.062.295 0 0-.426-.008-.63.123-.128.082-.194.16-.2.38-.004.19.058.386.095.526.044.168.09.34.095.535.008.27-.127.53-.362.725-.176.146-.834.515-2 .515h-.004a5.32 5.32 0 0 1-2.704-.744c-.116-.084-.17-.164-.166-.403 0 0 .034-.81-.165-1.297C6.95 19 6.44 18.306 5.65 17.52c-1.386-1.376-1.924-2.62-1.92-4.44.008-2.626 2.263-5.56 5.49-5.57 1.926 0 3.607.905 4.497 2.422.414.705.633 1.424.633 2.08 0 .22-.026.43-.075.62.062.11.12.22.173.328.23.487.507.785.642.948.083.1.44.43.44.87 0 .29-.182.508-.348.604z"/><path fill="none" d="M13.946 13.328c-.39.464-.973.428-.975.428-.852-.018-1.082-.654-1.082-1.004 0-.37.26-1.02 1.078-1.02.08-.01.477.02.776.232-.012-.527-.204-1.135-.55-1.718-.78-1.326-2.27-2.12-3.965-2.12-1.27 0-2.504.553-3.452 1.556-.904.957-1.42 2.196-1.42 3.4.007 1.714.43 2.688 1.74 4.01.855.855 1.394 1.598 1.67 2.26.26.616.21 1.478.21 1.478.876.48 1.71.58 2.26.58.504 0 1.75-.152 1.75-.628 0-.144-.19-.697-.19-1.063 0-.39.187-.74.51-.91.242-.14.54-.21.93-.21a1.4 1.4 0 0 0 .72-.19c.16-.1.32-.28.27-.63-.055-.37.14-.72.144-.73-.153-.196-.558-.167-.55-.465.012-.4.625-.36.66-.467-.01-.055-.274-.37-.223-.63a.606.606 0 0 1 .154-.34c.116-.13.475-.29.496-.32.056-.087-.025-.23-.168-.4-.03-.037-.53-.574-.782-1.104zm98.51-5.818c0-.053-.014-.1-.045-.142s-.07-.07-.13-.09a2.008 2.008 0 0 0-.42-.027h-.16v.53h.16c.23 0 .37-.01.425-.027a.244.244 0 0 0 .178-.237z"/><path fill="none" d="M112.855 6.633a1.512 1.512 0 0 0-1.45 0 1.36 1.36 0 0 0-.545.534 1.44 1.44 0 0 0 .54 1.986 1.483 1.483 0 0 0 2.005-.536 1.43 1.43 0 0 0-.004-1.45 1.36 1.36 0 0 0-.54-.534zm-.35 2.226l-.163-.31c-.11-.21-.2-.34-.272-.4a.437.437 0 0 0-.272-.08h-.103v.784h-.394v-1.91h.4c.37 0 .577 0 .62.004a.76.76 0 0 1 .307.076.523.523 0 0 1 .254.456.5.5 0 0 1-.137.353.624.624 0 0 1-.385.18.46.46 0 0 1 .136.073.93.93 0 0 1 .13.145c.016.02.064.098.145.234l.23.384h-.488z"/><path fill="#46C3D3" d="M17.927 8.174c-1.425-2.428-4.12-3.878-7.208-3.878-5.18.013-8.8 4.72-8.808 8.936-.01 2.96.827 4.895 3.087 7.14 1.602 1.602 2.495 3.12 2.655 4.507.014.12.025.61.026.96 0 .23-.012.55.225.69.034.02 2.015 1.23 4.267 1.16 1.98 0 3.074-.627 3.35-.857.357-.29.55-.67.54-1.067a2.784 2.784 0 0 0-.146-.814c-.39-1.21-.004-1.506.24-1.648.452-.267 1.17-.174 1.646-.266.388-.076.77-.184 1.096-.413.542-.38.833-.837.833-1.54 0-.166-.11-.595.076-.89.017-.028.154-.3.17-.55.016-.35-.33-.61-.38-.653.445-.24.543-.598.542-.806-.002-.353-.39-.824-.37-.993.043-.156 1.087-.33 1.087-1.21 0-.713-.576-1.125-1.19-1.95-.3-.4-.588-1.003-.866-1.526.087-.314.13-.66.132-1.028 0-1.043-.35-2.19-1.014-3.317zm1.88 7.167c.164.18.342.43.342.67 0 .3-.598.37-.88.69-.59.66.17 1.38.15 1.5-.027.22-.794.39-.8.39a.36.36 0 0 0 .016.71c.002 0 .334.077.62.375-.01.024-.024.096-.107.25-.237.436-.136 1.11-.136 1.18-.004.403-.168.702-.515.94-.32.212-.77.334-1.25.334-.608 0-1.084.104-1.453.314-.482.266-.75.776-.76 1.36-.01.5.32 1.506.31 1.725-.01.164-.03.29-.283.513-.143.124-1.075.66-2.887.686A7.54 7.54 0 0 1 8.41 26c0-.076-.002-.923-.034-1.198-.18-1.554-1.14-3.214-2.86-4.934-2.143-2.155-2.87-3.83-2.877-6.63 0-1.996.856-4.05 2.353-5.636 1.57-1.664 3.603-2.58 5.727-2.58 2.826 0 5.16 1.255 6.585 3.522 1.003 1.596.91 3.115.906 3.197a1.994 1.994 0 0 0-1.392-.53c-1.335.045-1.58 1.096-1.58 1.48s.292 1.496 1.605 1.46c.73-.02 1.173-.26 1.59-.81 0 0 .386.927 1.38 2zm-1.79-2.73c-.042.1-.325.75-.943.81-.997.1-1.116-.53-1.116-.724 0-.194.134-.813.988-.757.518.033.806.303 1.07.677z"/><path fill="#C2CD23" d="M14.448 12.962a4.75 4.75 0 0 0-.173-.33c.05-.19.074-.398.074-.618 0-.656-.22-1.375-.64-2.08-.89-1.517-2.57-2.422-4.497-2.422-3.228.01-5.482 2.944-5.49 5.57-.007 1.82.53 3.065 1.92 4.443.79.786 1.3 1.48 1.537 2.057.2.487.166 1.297.166 1.297-.005.232.05.312.165.4a5.324 5.324 0 0 0 2.706.74h.003c1.164 0 1.82-.37 2-.514.233-.194.37-.456.36-.725a2.198 2.198 0 0 0-.095-.534c-.036-.14-.097-.34-.093-.526.005-.22.07-.295.2-.38.2-.13.63-.12.63-.12.283 0 .696-.05 1.06-.295.355-.23.634-.643.53-1.296-.01-.065.022-.146.06-.234a.89.89 0 0 0 .11-.37c.01-.337-.335-.4-.338-.403.13-.047.448-.15.44-.494-.007-.27-.22-.51-.226-.57.02-.014.25-.13.32-.175a.712.712 0 0 0 .35-.603c0-.44-.36-.768-.442-.87-.134-.164-.41-.46-.642-.948zm-.045 2.19a.603.603 0 0 0-.154.34c-.058.264.21.577.22.633-.04.108-.65.066-.66.466-.01.3.393.27.55.47-.01.013-.2.363-.148.73.052.353-.108.53-.27.63a1.39 1.39 0 0 1-.72.19c-.392 0-.69.067-.93.205-.323.175-.51.525-.51.91 0 .367.188.92.188 1.064 0 .475-1.243.63-1.747.63-.55 0-1.384-.104-2.26-.583 0 0 .048-.86-.21-1.477-.277-.663-.815-1.406-1.67-2.26-1.31-1.324-1.733-2.298-1.74-4.01-.002-1.205.516-2.444 1.42-3.4.95-1.01 2.19-1.56 3.457-1.56 1.697 0 3.187.793 3.968 2.12.342.582.534 1.19.547 1.717-.3-.21-.695-.243-.775-.233-.818 0-1.078.65-1.078 1.02 0 .35.23.987 1.09 1.005 0 0 .584.03.974-.43.25.53.753 1.062.784 1.1.144.17.224.314.168.4-.022.03-.382.19-.497.32zm-.713-2.45c-.026.057-.19.447-.573.487-.61.06-.678-.33-.678-.44 0-.12.05-.49.6-.46.25.01.47.16.65.41z"/><path fill="#007FB1" d="M112.62 8.24a.93.93 0 0 0-.132-.146.486.486 0 0 0-.136-.072.635.635 0 0 0 .385-.182.503.503 0 0 0 .138-.354.532.532 0 0 0-.254-.457.778.778 0 0 0-.3-.08 12.47 12.47 0 0 0-.62-.008h-.393v1.91h.395V8.07h.103c.11 0 .2.028.273.08.07.056.162.187.272.395l.163.31H113l-.23-.385a4.493 4.493 0 0 0-.143-.23zm-.34-.493c-.055.018-.197.026-.425.026h-.16V7.25h.16c.225 0 .365.01.423.03.057.017.1.046.133.088s.05.09.05.142a.244.244 0 0 1-.18.237z"/><path fill="#007FB1" d="M113.03 6.326a1.89 1.89 0 0 0-1.806 0 1.688 1.688 0 0 0-.68.664 1.783 1.783 0 0 0-.004 1.802c.16.285.387.506.676.665a1.865 1.865 0 0 0 1.822 0c.29-.16.514-.38.676-.665a1.783 1.783 0 0 0-.005-1.802 1.688 1.688 0 0 0-.68-.664zm.375 2.29c-.13.23-.312.408-.543.537a1.484 1.484 0 0 1-1.463 0 1.38 1.38 0 0 1-.55-.536 1.438 1.438 0 0 1 .004-1.45 1.36 1.36 0 0 1 .546-.534 1.51 1.51 0 0 1 1.45 0c.23.124.414.302.546.534a1.432 1.432 0 0 1 .005 1.45z"/></svg>