<?xml version="1.0" encoding="utf-8"?>
<!-- Generator: Adobe Illustrator 19.2.1, SVG Export Plug-In . SVG Version: 6.00 Build 0)  -->
<svg version="1.1" id="Layer_1" xmlns="http://www.w3.org/2000/svg" xmlns:xlink="http://www.w3.org/1999/xlink" x="0px" y="0px"
	 viewBox="0 0 324 26" style="enable-background:new 0 0 324 26;" xml:space="preserve">
<style type="text/css">
	.st0{fill:#242A6A;}
</style>
<g id="Layer_1_1_">
</g>
<g>
	<g>
		<path class="st0" d="M11.7,4.1v11.2c0,0.7,0,1.4,0.1,2c0.9,0.1,1.7,0.2,2.5,0.5c0,0.4,0,0.8-0.2,1.2c-0.8,0-2.6,0-3.5,0
			c-1.2,0-2.4,0-3.6,0c-0.2-0.4-0.2-0.8-0.2-1.2c0.9-0.1,1.7-0.2,2.6-0.5c0.1-0.5,0.1-1,0.1-1.5V4.1h-4c-0.2,1-0.3,2-0.4,3
			c-0.4,0.1-0.9,0.2-1.3,0C3.6,5.7,3.5,4.2,3.6,2.7l0.2-0.2c1.5,0,4,0,5.8,0h2.2c1.7,0,4.2,0,5.8,0l0.2,0.2c0,1.5,0,2.9-0.2,4.4
			c-0.5,0.1-0.9,0.1-1.3,0c0-1-0.2-2-0.4-3H11.7z"/>
		<path class="st0" d="M21.9,7.3c0.1,0.4,0.3,1.4,0.4,2.1c0.8-1.2,1.9-2.3,3.4-2.3c0.7,0,1.4,0.1,2,0.3c0,1.7-0.1,2.8-0.4,4.2
			c-0.4,0.1-0.9,0.1-1.3,0c0-0.8-0.1-2-0.3-2.7c-0.2,0-0.4,0-0.6,0c-0.9,0-1.8,0.3-2.7,1.9v4.7c0,0.7,0,1.2,0.1,1.8
			c1.1,0.1,2.3,0.2,2.9,0.4c0,0.4,0,0.9-0.1,1.1c-0.9,0-3,0-3.8,0c-1,0-2,0-3,0c-0.1-0.2-0.2-0.7-0.2-1.1c0.7-0.1,1.5-0.2,2-0.4
			c0.1-0.5,0.1-0.9,0.1-1.4V9.4C19.6,9.2,18.9,9,18.3,9c-0.1-0.3-0.1-0.7-0.1-1c0.9-0.4,2.2-0.8,3.5-0.9L21.9,7.3z"/>
		<path class="st0" d="M35.5,11.7c0-1.9-0.4-3.1-2.1-3.1c-0.6,0-1.3,0-1.9,0.2c-0.1,0.6-0.2,1.3-0.2,2c-0.5,0.2-1,0.3-1.4,0.2
			c-0.4-0.8-0.6-1.8-0.6-2.6c1.2-0.7,2.7-1.2,4.4-1.2c1.4,0,3.9,0.5,3.9,3.9v4.6c0,0.7,0,1.4,0.1,1.9c0.5-0.1,1.1-0.2,1.6-0.4
			c0.2,0.2,0.4,0.5,0.4,0.9c-0.8,0.7-1.9,1.2-2.8,1.2c-0.5,0-1-0.8-1.2-1.9c-1.4,1.2-2.9,1.9-4,1.9c-1.6,0-2.8-1.1-2.8-2.9
			C28.8,13.6,32.4,12.3,35.5,11.7z M35.5,16.1v-2.9c-1.9,0.2-3.7,0.7-4,1s-0.5,1-0.5,1.5c0,0.9,0.5,1.7,1.8,1.7
			C33.6,17.4,34.7,16.8,35.5,16.1z"/>
		<path class="st0" d="M44.4,7.3c0.1,0.3,0.2,0.9,0.3,1.4c1.4-1,2.7-1.6,4.1-1.6c2.2,0,3.4,1.2,3.4,3.9v4.6c0,0.7,0,1.2,0.1,1.8
			c0.6,0.1,1.4,0.2,1.8,0.4c0,0.4,0,0.9-0.2,1.1c-0.6,0-2.2,0-2.7,0c-1,0-2,0-3,0c-0.1-0.2-0.1-0.7-0.1-1.1c0.7-0.1,1.5-0.2,2-0.4
			c0.1-0.5,0.1-0.9,0.1-1.4v-4.1c0-1.8-0.3-3.2-2.2-3.2c-1,0-2,0.4-3.1,1.1v5.7c0,0.7,0,1.2,0.1,1.8c0.7,0.1,1.4,0.2,1.8,0.4
			c0,0.4,0,0.9-0.1,1.1c-0.7,0-2.2,0-2.7,0c-1,0-2,0-3,0c-0.1-0.2-0.2-0.7-0.2-1.1c0.7-0.1,1.5-0.2,2-0.4c0.1-0.5,0.1-0.9,0.1-1.4
			V9.4C42.1,9.2,41.4,9,40.8,9c-0.1-0.3-0.1-0.7-0.1-1c0.9-0.4,2.2-0.8,3.5-0.9L44.4,7.3z"/>
		<path class="st0" d="M55.5,18.5c0-1.2,0.1-2.4,0.4-3.6c0.4-0.2,0.8-0.2,1.2,0c0,0.8,0.1,1.6,0.2,2.5c0.4,0.2,1.4,0.3,2.2,0.3
			c1.6,0,2.2-0.4,2.2-1.8c0-0.8-0.5-1.3-1.3-1.7c-1.8-1-4.7-1.2-4.7-3.8c0-2.5,2.3-3.3,4.3-3.3c1.3,0,2.5,0.2,3.5,0.5
			c0,1.1-0.2,2.2-0.4,3c-0.4,0.1-0.9,0.1-1.2,0c0-0.6-0.2-1.3-0.3-1.9c-0.4-0.1-1-0.2-1.6-0.2c-2,0-2.1,0.6-2.1,1.4
			c0,2.5,6,1.7,6,5.6c0,2.4-2,3.7-4.5,3.7C57.7,19.2,56.3,18.9,55.5,18.5z"/>
		<path class="st0" d="M65.7,7.6c0.5-0.1,1.2-0.2,1.9-0.3V7.1c0-4.2,1.8-6.9,4.8-6.9c1.2,0,2.3,0.2,3.2,0.6C75.5,1.9,75.3,3,75,4
			c-0.5,0.1-1,0.1-1.3-0.1c0-0.7-0.1-1.4-0.2-2.1c-0.4-0.1-0.9-0.1-1.3-0.1c-0.8,0-1.5,0.3-1.7,0.5c-0.5,0.6-0.9,2.2-0.9,4.4v0.8
			l3,0c0,0.5,0,1-0.1,1.5h-2.9v6.7c0,0.7,0,1.2,0.1,1.8c0.9,0,2.1,0.2,2.9,0.4c0,0.4,0,0.9-0.1,1.1c-1.3,0-2.7,0-3.8,0c-1,0-2,0-3,0
			c-0.1-0.2-0.2-0.7-0.2-1.1c0.7-0.1,1.5-0.2,2-0.4c0.1-0.5,0.1-0.9,0.1-1.4V8.9c-0.4-0.1-1.2-0.2-1.8-0.3
			C65.6,8.3,65.6,7.9,65.7,7.6z"/>
		<path class="st0" d="M84.8,13c0,3-2,6.3-5.4,6.3c-3.5,0-5.2-2.5-5.2-5.9c0-3,2-6.3,5.4-6.3C83.1,7.1,84.8,9.6,84.8,13z M81.4,17.2
			c0.7-0.7,1.2-2,1.2-3.5c0-2.1-0.9-5-3.5-5c-0.5,0-1.4,0.2-1.7,0.5c-0.7,0.7-1.2,2-1.2,3.5c0,2.1,0.9,5,3.5,5
			C80.3,17.6,81.2,17.5,81.4,17.2z"/>
		<path class="st0" d="M90.2,7.3c0.1,0.4,0.3,1.4,0.4,2.1c0.8-1.2,1.9-2.3,3.4-2.3c0.7,0,1.4,0.1,2,0.3c0,1.7-0.1,2.8-0.4,4.2
			c-0.4,0.1-0.9,0.1-1.3,0c0-0.8-0.1-2-0.3-2.7c-0.2,0-0.4,0-0.6,0c-0.9,0-1.8,0.3-2.7,1.9v4.7c0,0.7,0,1.2,0.1,1.8
			c1.1,0.1,2.3,0.2,2.9,0.4c0,0.4,0,0.9-0.1,1.1c-0.9,0-3,0-3.8,0c-1,0-2,0-3,0c-0.1-0.2-0.2-0.7-0.2-1.1c0.7-0.1,1.5-0.2,2-0.4
			c0.1-0.5,0.1-0.9,0.1-1.4V9.4C87.9,9.2,87.3,9,86.6,9c-0.1-0.3-0.1-0.7-0.1-1c0.9-0.4,2.2-0.8,3.5-0.9L90.2,7.3z"/>
		<path class="st0" d="M106,11.9c0-1.8-0.2-3.2-2.1-3.2c-1.1,0-2,0.5-2.7,1v5.8c0,0.7,0,1.2,0.1,1.8c0.7,0.1,1.4,0.2,1.8,0.4
			c0,0.4,0,0.9-0.1,1.1c-0.7,0-2.2,0-2.7,0c-1,0-2,0-3,0c-0.1-0.2-0.2-0.7-0.2-1.1c0.7-0.1,1.5-0.2,2-0.4c0.1-0.5,0.1-0.9,0.1-1.4
			V9.4C98.5,9.2,97.8,9,97.2,9c-0.1-0.3-0.1-0.7-0.1-1c0.9-0.4,2.2-0.8,3.5-0.9l0.2,0.2c0.1,0.3,0.2,0.9,0.3,1.4
			c0.9-0.9,2.3-1.7,3.7-1.7c1.5,0,2.5,0.6,3,1.9c0.9-1,2.4-1.9,4-1.9c2.2,0,3.3,1.2,3.3,3.9v4.6c0,0.7,0,1.2,0.1,1.8
			c0.7,0.1,1.4,0.2,1.8,0.4c0,0.4,0,0.9-0.2,1.1c-0.6,0-2.1,0-2.7,0c-1,0-2,0-3,0c-0.1-0.2-0.2-0.7-0.2-1.1c0.7-0.1,1.5-0.2,2-0.4
			c0.1-0.5,0.1-0.9,0.1-1.4v-4.1c0-1.8-0.2-3.2-2.1-3.2c-1.1,0-2.2,0.6-2.8,1.1c0,0.3,0.1,0.7,0.1,1.2v4.6c0,0.7,0,1.2,0,1.8
			c0.7,0.1,1.1,0.2,1.6,0.4c0,0.4,0,0.9-0.1,1.1c-0.7,0-1.9,0-2.5,0c-1,0-2,0-2.7,0c-0.1-0.2-0.2-0.7-0.2-1.1
			c0.7-0.1,1.2-0.2,1.7-0.4c0.1-0.5,0.1-0.9,0.1-1.4V11.9z"/>
		<path class="st0" d="M122.2,15.6c0,0.7,0,1.2,0.1,1.8c0.7,0.1,1.4,0.2,1.8,0.4c0,0.4,0,0.9-0.1,1.1c-0.7,0-2.2,0-2.7,0
			c-1,0-2,0-3,0c-0.1-0.2-0.2-0.7-0.2-1.1c0.7-0.1,1.5-0.3,2-0.4c0.1-0.5,0.1-0.9,0.1-1.3V9.3c-0.6-0.2-1.3-0.3-1.9-0.4
			c-0.1-0.3-0.1-0.6-0.1-1c1-0.4,2.6-0.7,4-0.9l0.2,0.2c-0.1,2.5-0.1,4.4-0.1,7.1V15.6z M119.4,3.9c0-0.9,0.8-1.9,1.7-1.9
			c0.7,0,1.5,0.6,1.5,1.3c0,0.9-0.7,1.9-1.7,1.9C120.2,5.2,119.4,4.6,119.4,3.9z"/>
		<path class="st0" d="M129.2,7.3c0.1,0.3,0.2,0.9,0.3,1.4c1.4-1,2.7-1.6,4.1-1.6c2.2,0,3.4,1.2,3.4,3.9v4.6c0,0.7,0,1.2,0.1,1.8
			c0.6,0.1,1.4,0.2,1.8,0.4c0,0.4,0,0.9-0.2,1.1c-0.6,0-2.2,0-2.7,0c-1,0-2,0-3,0c-0.1-0.2-0.1-0.7-0.1-1.1c0.7-0.1,1.5-0.2,2-0.4
			c0.1-0.5,0.1-0.9,0.1-1.4v-4.1c0-1.8-0.3-3.2-2.2-3.2c-1,0-2,0.4-3.1,1.1v5.7c0,0.7,0,1.2,0.1,1.8c0.7,0.1,1.4,0.2,1.8,0.4
			c0,0.4,0,0.9-0.1,1.1c-0.7,0-2.2,0-2.7,0c-1,0-2,0-3,0c-0.1-0.2-0.2-0.7-0.2-1.1c0.7-0.1,1.5-0.2,2-0.4c0.1-0.5,0.1-0.9,0.1-1.4
			V9.4C127,9.2,126.3,9,125.7,9c-0.1-0.3-0.1-0.7-0.1-1c0.9-0.4,2.2-0.8,3.5-0.9L129.2,7.3z"/>
		<path class="st0" d="M144.1,15.5c-0.2,0.3-0.3,0.7-0.3,1c0,0.3,0,0.6,0.1,0.7c0.1,0.2,1.6,0.2,2.4,0.2c3.2,0,4.8,1.2,4.8,2.9
			c0,3.5-2.6,5.1-6.6,5.1c-2.9,0-4.6-1.8-4.6-3.4c0-1.5,1.2-2.7,2.4-3.4c-0.3-0.3-0.3-0.6-0.3-1c0-0.7,0.5-1.5,1.1-2.3
			c-1.6-0.4-2.7-1.6-2.7-3.7c0-2.2,1.6-4.6,4.9-4.6c1.1,0,2,0.2,2.6,0.6c0.7-0.8,1.6-1.3,2.8-1.9c0.5,0.4,0.8,1,0.9,1.7
			c-0.7,0.3-1.8,0.6-2.8,0.9c0.6,0.7,0.8,1.5,0.8,2.5c0,2.2-1.6,4.5-5,4.5C144.5,15.5,144.3,15.5,144.1,15.5z M143.1,19
			c-0.7,0.7-1.1,1.6-1.1,2.5c0,0.9,0.6,2.3,3.2,2.3c1.2,0,2.4-0.2,3.2-0.7c0.3-0.2,0.7-1.2,0.7-2c0-1.2-0.9-1.7-3.2-1.7
			C144.5,19.3,143.6,19.2,143.1,19z M144.9,8.7c-0.6,0-1.3,0.1-1.5,0.3c-0.5,0.3-1,1.2-1,2.1c0,1.6,1.1,2.9,2.6,2.9
			c0.7,0,1.5-0.2,1.7-0.3c0.4-0.2,1-1.3,1-2.3C147.7,10.1,146.6,8.7,144.9,8.7z"/>
		<path class="st0" d="M161.2,9.2c-0.7,0.7-1.2,2-1.2,3.4c0,2,0.8,4.8,3.3,4.8c1.1,0,2.1-0.2,3.7-0.8c0.3,0.2,0.4,0.5,0.4,0.9
			c-1.1,0.8-3,1.7-4.5,1.7c-3.5,0-5-2.6-5-5.9c0-2.9,2.1-6.2,5.4-6.2c1.7,0,3,0.3,3.9,0.7c0,1.2-0.2,2.2-0.5,3.2
			c-0.6,0.2-1,0.1-1.4-0.1c0-0.7-0.1-1.3-0.2-2c-0.4-0.1-1.1-0.1-1.8-0.1C162.6,8.8,161.5,8.9,161.2,9.2z"/>
		<path class="st0" d="M177.9,11.9c0-1.8-0.3-3.2-2.2-3.2c-1.2,0-2.2,0.3-3.1,0.7v6.1c0,0.7,0,1.2,0.1,1.8c0.7,0.1,1.4,0.2,1.8,0.4
			c0,0.4,0,0.9-0.1,1.1c-0.7,0-2.2,0-2.7,0c-1,0-2,0-3,0c-0.1-0.2-0.2-0.7-0.2-1.1c0.7-0.1,1.5-0.2,2-0.4c0.1-0.5,0.1-0.9,0.1-1.4
			V2.4c-0.6-0.2-1.3-0.3-1.9-0.4c-0.1-0.3-0.1-0.6-0.1-1c1-0.4,2.6-0.7,4-0.9l0.2,0.2c-0.1,2.5-0.1,4.4-0.1,7.1v0.9
			c0.9-0.6,2.4-1.3,4-1.3c2.2,0,3.4,1.2,3.4,3.9v4.6c0,0.7,0,1.2,0.1,1.8c0.7,0.1,1.4,0.2,1.9,0.4c0,0.4,0,0.9-0.2,1.1
			c-0.7,0-2.2,0-2.7,0c-1,0-2,0-3,0c-0.1-0.2-0.2-0.7-0.2-1.1c0.7-0.1,1.5-0.2,2-0.4c0-0.5,0.1-0.9,0.1-1.4V11.9z"/>
		<path class="st0" d="M187.1,15.6c0,0.7,0,1.2,0.1,1.8c0.7,0.1,1.4,0.2,1.8,0.4c0,0.4,0,0.9-0.1,1.1c-0.7,0-2.2,0-2.7,0
			c-1,0-2,0-3,0c-0.1-0.2-0.2-0.7-0.2-1.1c0.7-0.1,1.5-0.3,2-0.4c0.1-0.5,0.1-0.9,0.1-1.3V9.3c-0.6-0.2-1.3-0.3-1.9-0.4
			c-0.1-0.3-0.1-0.6-0.1-1c1-0.4,2.6-0.7,4-0.9l0.2,0.2c-0.1,2.5-0.1,4.4-0.1,7.1V15.6z M184.3,3.9c0-0.9,0.8-1.9,1.7-1.9
			c0.7,0,1.5,0.6,1.5,1.3c0,0.9-0.7,1.9-1.7,1.9C185.2,5.2,184.3,4.6,184.3,3.9z"/>
		<path class="st0" d="M194.3,15.6c0,0.7,0,1.2,0.1,1.8c0.7,0.1,1.4,0.2,1.8,0.4c0,0.4,0,0.9-0.1,1.1c-0.7,0-2.2,0-2.7,0
			c-1,0-2,0-3,0c-0.1-0.2-0.2-0.7-0.2-1.1c0.7-0.1,1.5-0.2,2-0.4c0.1-0.5,0.1-0.9,0.1-1.4V2.4c-0.6-0.2-1.3-0.3-1.9-0.4
			c-0.1-0.3-0.1-0.6-0.1-1c1-0.4,2.6-0.7,4-0.9l0.2,0.2c-0.1,2.5-0.1,4.4-0.1,7.1V15.6z"/>
		<path class="st0" d="M203,7.1c0.8,0,2,0.4,2.7,0.9V2.4C205,2.2,204.2,2,203.5,2c-0.1-0.3-0.1-0.6-0.1-1c1.1-0.4,2.8-0.7,4.3-0.9
			l0.2,0.2c-0.1,2.5-0.1,4.4-0.1,7.1v8.2c0,0.7,0,1.4,0.1,1.9c0.5-0.1,1.1-0.2,1.6-0.4c0.2,0.2,0.4,0.5,0.4,0.9
			c-0.8,0.7-1.9,1.2-2.8,1.2c-0.6,0-1.1-1.1-1.2-2.3c-1,1.2-2.4,2.3-3.7,2.3c-2.9,0-4.3-2.6-4.3-5.9C197.8,9.9,200.3,7.1,203,7.1z
			 M205.7,15.7V9.4c-0.8-0.3-1.9-0.6-3-0.6c-0.5,0-1.4,0.2-1.7,0.5c-0.7,0.7-1.2,2-1.2,3.4c0,2.5,0.9,4.8,2.8,4.8
			C203.4,17.5,204.7,16.6,205.7,15.7z"/>
		<path class="st0" d="M214.7,7.3c0.1,0.4,0.3,1.4,0.4,2.1c0.8-1.2,1.9-2.3,3.4-2.3c0.7,0,1.4,0.1,2,0.3c0,1.7-0.1,2.8-0.4,4.2
			c-0.4,0.1-0.9,0.1-1.3,0c0-0.8-0.1-2-0.3-2.7c-0.2,0-0.4,0-0.6,0c-0.9,0-1.8,0.3-2.7,1.9v4.7c0,0.7,0,1.2,0.1,1.8
			c1.1,0.1,2.3,0.2,2.9,0.4c0,0.4,0,0.9-0.1,1.1c-0.9,0-3,0-3.8,0c-1,0-2,0-3,0c-0.1-0.2-0.2-0.7-0.2-1.1c0.7-0.1,1.5-0.2,2-0.4
			c0.1-0.5,0.1-0.9,0.1-1.4V9.4c-0.6-0.2-1.3-0.3-1.9-0.4c-0.1-0.3-0.1-0.7-0.1-1c0.9-0.4,2.2-0.8,3.5-0.9L214.7,7.3z"/>
		<path class="st0" d="M227.1,7.1c3.4,0,4.4,2.3,4.4,4.4c0,0.6,0,1.2-0.1,1.5l-0.2,0.2c-1,0-2.6,0-4.4,0h-2.8c0.1,2,0.9,4.4,3.3,4.4
			c1.1,0,2.4-0.3,3.9-0.9c0.3,0.2,0.4,0.5,0.4,0.9c-1.1,0.8-3.1,1.8-4.7,1.8c-3.5,0-5-2.6-5-5.9C221.8,10.3,224,7.1,227.1,7.1z
			 M223.9,11.8h2.4c1.3,0,2.4,0,3-0.1c0-1.6-0.4-3.1-2.5-3.1c-0.5,0-1.4,0.2-1.7,0.5C224.5,9.7,224.1,10.7,223.9,11.8z"/>
		<path class="st0" d="M237.1,7.3c0.1,0.3,0.2,0.9,0.3,1.4c1.4-1,2.7-1.6,4.1-1.6c2.2,0,3.4,1.2,3.4,3.9v4.6c0,0.7,0,1.2,0.1,1.8
			c0.6,0.1,1.4,0.2,1.8,0.4c0,0.4,0,0.9-0.2,1.1c-0.6,0-2.2,0-2.7,0c-1,0-2,0-3,0c-0.1-0.2-0.1-0.7-0.1-1.1c0.7-0.1,1.5-0.2,2-0.4
			c0.1-0.5,0.1-0.9,0.1-1.4v-4.1c0-1.8-0.3-3.2-2.2-3.2c-1,0-2,0.4-3.1,1.1v5.7c0,0.7,0,1.2,0.1,1.8c0.7,0.1,1.4,0.2,1.8,0.4
			c0,0.4,0,0.9-0.1,1.1c-0.7,0-2.2,0-2.7,0c-1,0-2,0-3,0c-0.1-0.2-0.2-0.7-0.2-1.1c0.7-0.1,1.5-0.2,2-0.4c0.1-0.5,0.1-0.9,0.1-1.4
			V9.4c-0.6-0.2-1.3-0.3-1.9-0.4c-0.1-0.3-0.1-0.7-0.1-1c0.9-0.4,2.2-0.8,3.5-0.9L237.1,7.3z"/>
		<path class="st0" d="M248.7-0.3c1,0,1.6,0.7,1.6,1.7c0,1.7-1.7,3.7-3.3,4.5c-0.3-0.1-0.5-0.3-0.6-0.7c0.7-0.7,1.5-1.9,1.5-2.8
			c0-0.5-0.2-1-0.9-1.2C247.1,0.3,247.8-0.3,248.7-0.3z"/>
		<path class="st0" d="M250.6,18.5c0-1.2,0.1-2.4,0.4-3.6c0.4-0.2,0.8-0.2,1.2,0c0,0.8,0.1,1.6,0.2,2.5c0.4,0.2,1.4,0.3,2.2,0.3
			c1.6,0,2.2-0.4,2.2-1.8c0-0.8-0.5-1.3-1.3-1.7c-1.8-1-4.7-1.2-4.7-3.8c0-2.5,2.3-3.3,4.3-3.3c1.3,0,2.5,0.2,3.5,0.5
			c0,1.1-0.2,2.2-0.4,3c-0.4,0.1-0.9,0.1-1.2,0c0-0.6-0.2-1.3-0.3-1.9c-0.4-0.1-1-0.2-1.6-0.2c-2,0-2.1,0.6-2.1,1.4
			c0,2.5,6,1.7,6,5.6c0,2.4-2,3.7-4.5,3.7C252.9,19.2,251.4,18.9,250.6,18.5z"/>
		<path class="st0" d="M269.7,15.6c0,0.7,0,1.2,0.1,1.8c0.7,0.1,1.4,0.2,1.8,0.4c0,0.4,0,0.9-0.1,1.1c-0.7,0-2.2,0-2.7,0
			c-1,0-2,0-3,0c-0.1-0.2-0.2-0.7-0.2-1.1c0.7-0.1,1.5-0.2,2-0.4c0.1-0.5,0.1-0.9,0.1-1.4V2.4C267,2.2,266.3,2,265.7,2
			c-0.1-0.3-0.1-0.6-0.1-1c1-0.4,2.6-0.7,4-0.9l0.2,0.2c-0.1,2.5-0.1,4.4-0.1,7.1V15.6z"/>
		<path class="st0" d="M277,15.6c0,0.7,0,1.2,0.1,1.8c0.7,0.1,1.4,0.2,1.8,0.4c0,0.4,0,0.9-0.1,1.1c-0.7,0-2.2,0-2.7,0c-1,0-2,0-3,0
			c-0.1-0.2-0.2-0.7-0.2-1.1c0.7-0.1,1.5-0.3,2-0.4c0.1-0.5,0.1-0.9,0.1-1.3V9.3c-0.6-0.2-1.3-0.3-1.9-0.4c-0.1-0.3-0.1-0.6-0.1-1
			c1-0.4,2.6-0.7,4-0.9l0.2,0.2c-0.1,2.5-0.1,4.4-0.1,7.1V15.6z M274.3,3.9c0-0.9,0.8-1.9,1.7-1.9c0.7,0,1.5,0.6,1.5,1.3
			c0,0.9-0.7,1.9-1.7,1.9C275.1,5.2,274.3,4.6,274.3,3.9z"/>
		<path class="st0" d="M287.1,18.7c-0.7,0.2-1.5,0.3-2.3,0.3l-3.7-10.1c-0.3-0.2-0.9-0.4-1.3-0.4c0-0.4,0.1-0.8,0.2-1.1
			c0.6,0,1.5,0,2.4,0c0.9,0,1.9,0,2.8,0c0.1,0.3,0.2,0.7,0.1,1.1l-1.9,0.4l2.5,6.7l0.1,1.8h0l3.1-8.6l-1.9-0.4
			c0-0.4,0.1-0.8,0.2-1.1c0.8,0,1.7,0,2.8,0c0.6,0,1.2,0,1.9,0c0.1,0.3,0.2,0.7,0.1,1.1c-0.4,0.2-0.9,0.4-1.4,0.4L287.1,18.7z"/>
		<path class="st0" d="M298.1,7.1c3.4,0,4.4,2.3,4.4,4.4c0,0.6,0,1.2-0.1,1.5l-0.2,0.2c-1,0-2.6,0-4.4,0h-2.8c0.1,2,0.9,4.4,3.3,4.4
			c1.1,0,2.4-0.3,3.9-0.9c0.3,0.2,0.4,0.5,0.4,0.9c-1.1,0.8-3.1,1.8-4.7,1.8c-3.5,0-5-2.6-5-5.9C292.8,10.3,295,7.1,298.1,7.1z
			 M294.9,11.8h2.4c1.3,0,2.4,0,3-0.1c0-1.6-0.4-3.1-2.5-3.1c-0.5,0-1.4,0.2-1.7,0.5C295.5,9.7,295.1,10.7,294.9,11.8z"/>
		<path class="st0" d="M304.7,18.5c0-1.2,0.1-2.4,0.4-3.6c0.4-0.2,0.8-0.2,1.2,0c0,0.8,0.1,1.6,0.2,2.5c0.4,0.2,1.4,0.3,2.2,0.3
			c1.6,0,2.2-0.4,2.2-1.8c0-0.8-0.5-1.3-1.3-1.7c-1.8-1-4.7-1.2-4.7-3.8c0-2.5,2.3-3.3,4.3-3.3c1.3,0,2.5,0.2,3.5,0.5
			c0,1.1-0.2,2.2-0.4,3c-0.4,0.1-0.9,0.1-1.2,0c0-0.6-0.2-1.3-0.3-1.9c-0.4-0.1-1-0.2-1.6-0.2c-2,0-2.1,0.6-2.1,1.4
			c0,2.5,6,1.7,6,5.6c0,2.4-2,3.7-4.5,3.7C306.9,19.2,305.5,18.9,304.7,18.5z"/>
		<path class="st0" d="M318.2,1.6c2.1,0,3.9,1.7,3.9,3.8c0,2.1-1.8,3.8-3.9,3.8c-2.1,0-3.9-1.7-3.9-3.8C314.2,3.3,316,1.6,318.2,1.6
			z M318.2,8.4c1.7,0,3-1.3,3-3c0-1.7-1.4-3-3-3c-1.7,0-3,1.4-3,3C315.1,7.1,316.5,8.4,318.2,8.4z M318.4,3.4c0.8,0,1.1,0.5,1.1,1.1
			c0,0.4-0.3,0.8-0.7,1c0.2,0.4,0.5,1,0.9,1c0.1,0,0.2,0,0.3,0c0.1,0.1,0.2,0.3,0.2,0.4c-0.2,0.1-0.5,0.2-0.8,0.2
			c-0.5,0-1-0.8-1.2-1.4l-0.4,0v0.7l0.4,0.1c0,0.2,0,0.4,0,0.5h-1.6c-0.1-0.2-0.1-0.4-0.1-0.5l0.5-0.1V4.1L316.5,4
			c0-0.2,0-0.4,0.1-0.5L318.4,3.4z M317.8,4.1v0.9h0.3c0.5,0,0.6-0.2,0.6-0.5c0-0.3-0.2-0.4-0.5-0.4H317.8z"/>
	</g>
</g>
</svg>
