<svg baseProfile="tiny" xmlns="http://www.w3.org/2000/svg" width="86" height="73" viewBox="0 0 86 73"><path fill="none" d="M30.605 37.952c-.014 3.417-1.65 6.128-2.065 7.018-.06.13-.09.28.013.36.178.14.42 0 .513-.042 3.564-1.677 9.047-2.744 12.247-3.028 2.365-.21 3.992-.144 3.992-.144 0-.965.08-1.83.234-2.52.3-1.43 1.132-2.503 2.34-3.02 1.01-.444 2.08-.485 3-.488 0 0 1.99.138 3.084-.684.63-.472.966-.81 1.045-1.69.056-.615-.084-1.093-.025-1.494.153-1.055.546-1.405.536-1.627-.003-.11-.784-.75-1.253-.83-.055-.01-.548-.093-.567-.588a.585.585 0 0 1 .468-.587s1.532-.35 1.65-.774c.07-.247-.073-.448-.23-.687-.35-.53-.496-.996-.486-1.36.014-.373.16-.816.605-1.147.825-.614 1.57-.638 1.56-1.29-.01-.658-.546-1.214-1.198-1.957-.705-.802-2.27-3.16-2.31-3.553-.605 1.037-1.85 1.75-3.16 1.732-2.476-.033-3.097-1.904-3.062-2.865.042-1.177.974-2.752 3.034-2.724.904.013 1.915.273 2.84 1.2.026-.243.445-2.94-1.784-6.673-2.644-4.43-7.512-7.038-13.156-7.038-4.24 0-8.302 1.828-11.436 5.148-2.99 3.167-4.7 7.268-4.7 11.255.01 5.844 2.185 8.643 5.786 13.28 1.65 2.11 2.49 4.404 2.48 6.817zM23.713 17.69c.01-5.593 4.807-11.837 11.674-11.854 4.097 0 7.67 1.922 9.56 5.144.88 1.495 1.344 3.017 1.345 4.4 0 .49-.06.948-.175 1.364.37.694.75 1.495 1.146 2.025.817 1.09 1.58 1.64 1.58 2.59 0 1.16-1.385 1.39-1.443 1.6-.024.22.49.85.493 1.313.002.275-.128.75-.72 1.068.068.058.526.404.502.867-.018.332-.2.693-.224.73-.24.39-.1.96-.1 1.182 0 .93-.38 1.536-1.1 2.04-.435.304-.94.447-1.455.546-.63.12-1.584 0-2.186.35-.32.187-.835.58-.315 2.184.114.358.186.704.194 1.08.01.528-.245 1.03-.718 1.415-.37.303-1.82 1.13-4.446 1.13-2.985.1-5.612-1.51-5.66-1.536-.312-.187-.294-.616-.295-.92 0-.47-.017-1.11-.036-1.28-.215-1.842-1.4-3.853-3.525-5.98-2.996-2.977-4.106-5.543-4.094-9.47z"/><path fill="none" d="M48.725 16.783c.014.465.224 1.582 1.883 1.592 1.332.008 2.053-.757 2.463-1.77-.54-.8-1.23-1.453-2.5-1.464-1.33.02-1.82.86-1.84 1.65zm-12.5 36.427h-1.218v5.89h1.203c1.433 0 2.528-1.266 2.528-2.93 0-1.666-1.096-2.96-2.513-2.96zm6.11-36.24c0 .26.158 1.092 1.48.965.82-.078 1.196-.942 1.25-1.07-.35-.496-.73-.854-1.42-.9-1.133-.073-1.31.747-1.31 1.006z"/><path fill="none" d="M32.328 34.617a10 10 0 0 0 4.995 1.3c2.404-.035 3.64-.744 3.83-.91.338-.294.364-.462.377-.68.017-.29-.423-1.627-.41-2.287.017-.777.367-1.453 1.01-1.806.49-.28 1.12-.415 1.925-.418.637 0 1.238-.162 1.66-.445.46-.31.676-.71.68-1.24 0-.092-.133-.986.18-1.566.11-.202.132-.3.142-.33-.38-.395-.82-.494-.822-.495a.478.478 0 0 1-.017-.94c.005 0 1.023-.23 1.06-.52.02-.16-.986-1.116-.21-1.985.384-.43 1.168-.522 1.168-.915 0-.32-.236-.65-.455-.89-1.31-1.426-1.82-2.65-1.82-2.65-.55.724-1.134 1.05-2.103 1.073-1.74.045-2.13-1.43-2.13-1.94 0-.513.328-1.906 2.1-1.97.73-.025 1.39.29 1.848.704.008-.107.13-2.123-1.202-4.242-1.89-3.007-4.986-4.672-8.733-4.672-2.817 0-5.515 1.215-7.596 3.42-1.986 2.105-3.126 4.83-3.124 7.478.013 3.72.976 5.94 3.817 8.8 2.28 2.28 3.558 4.48 3.795 6.543.042.366.044 1.49.048 1.588zm-1.41-6.785s.047-1.074-.217-1.72c-.31-.765-.99-1.685-2.03-2.728-1.843-1.828-2.557-3.48-2.546-5.893.008-3.48 3-7.37 7.28-7.38 2.554 0 4.783 1.2 5.964 3.21.55.935.84 1.89.84 2.76 0 .29-.034.57-.098.82.08.146.16.29.23.437.303.646.67 1.04.85 1.257.11.134.584.57.584 1.154a.94.94 0 0 1-.463.8c-.092.06-.394.214-.42.236.01.08.29.397.298.754.012.458-.41.593-.583.656.002.005.46.088.45.535-.007.222-.14.465-.148.49-.052.117-.093.224-.08.31.137.865-.233 1.413-.703 1.72-.485.32-1.03.39-1.408.39 0 0-.565-.01-.834.163-.17.11-.26.21-.265.5-.006.25.075.513.124.7.057.22.12.45.124.71.01.356-.17.703-.48.96-.234.193-1.106.684-2.652.684h-.004a7.064 7.064 0 0 1-3.588-.988c-.156-.113-.227-.22-.22-.536z"/><path fill="none" d="M34.732 28.54c.668 0 2.32-.203 2.32-.834 0-.192-.252-.924-.252-1.41 0-.512.25-.975.677-1.207.323-.19.717-.27 1.237-.278.366 0 .715-.104.955-.254.21-.133.42-.37.35-.836-.073-.49.184-.953.19-.97-.2-.257-.74-.22-.727-.614.014-.53.828-.472.875-.616-.014-.074-.364-.49-.296-.84a.788.788 0 0 1 .203-.45c.15-.174.63-.386.656-.427.075-.112-.032-.304-.223-.532-.043-.047-.707-.76-1.04-1.463-.517.616-1.29.57-1.293.57-1.14-.024-1.444-.868-1.444-1.333 0-.495.343-1.357 1.428-1.357.108-.014.63.03 1.03.31-.017-.7-.27-1.506-.728-2.28-1.037-1.758-3.013-2.81-5.264-2.81-1.68 0-3.32.732-4.58 2.064-1.2 1.268-1.887 2.913-1.886 4.51.01 2.273.57 3.565 2.31 5.318 1.133 1.136 1.847 2.12 2.214 3 .34.817.276 1.96.276 1.96a6.263 6.263 0 0 0 3 .772z"/><path fill="none" d="M37.668 17.05c0 .15.09.668.9.582.508-.054.724-.57.76-.647-.232-.334-.526-.53-.865-.545-.72-.034-.795.456-.795.61zm42.15 39.12c0-1.666-1.095-2.96-2.513-2.96h-1.218v5.89h1.203c1.433 0 2.527-1.266 2.527-2.93zm4.15-6.864a.3.3 0 0 0-.06-.186.335.335 0 0 0-.174-.117c-.075-.024-.26-.036-.553-.036h-.202v.683h.21c.297 0 .482-.01.553-.034a.317.317 0 0 0 .233-.31z"/><path fill="none" d="M84.49 48.16a1.978 1.978 0 0 0-1.896 0 1.77 1.77 0 0 0-.715.697 1.88 1.88 0 0 0-.01 1.898c.17.3.404.533.71.7a1.95 1.95 0 0 0 1.912 0c.303-.167.54-.4.71-.7a1.878 1.878 0 0 0-.004-1.898 1.778 1.778 0 0 0-.715-.698zm-.46 2.91l-.212-.405c-.143-.272-.262-.445-.356-.515a.58.58 0 0 0-.356-.106h-.135v1.027h-.51v-2.5h.517c.484 0 .755.01.813.01.17.017.302.05.4.1a.69.69 0 0 1 .332.6.664.664 0 0 1-.182.464.818.818 0 0 1-.504.238c.078.03.137.06.18.095.04.036.1.1.17.194.02.025.082.126.19.305l.3.504h-.64z"/><path fill="#0067A1" d="M53.87 59.144v.57h3.668v-.57H56.38v-9.03h1.158v-.57h-2.404l-3.62 7.86-3.516-7.86h-2.48v.57h1.17v9.03h-1.17v.57h3.113v-.57h-1.17v-7.75l3.797 8.474 3.776-8.306v7.582zm11.527 13v.57h5.517V71.28h-.57v.818h-2.62V69.4h1.973v.772h.57V68.03l-.57.016v.738h-1.973v-2.572h2.526v.8h.555v-1.417h-5.408v.567h1.156v5.98zm-33.952-13.85h-.557v.804H28.3v-5.89h1.155v-.616h-3.482v.616h1.155v5.934h-1.155v.57h5.472zM28.48 66.21h2.253v5.93h-1.31v.57h3.79v-.57h-1.31v-5.93h2.25v.8h.57v-1.415H27.93v1.417h.55zm7.852-13.615H32.68v.57h1.156v5.98H32.68v.57h3.652c2.126 0 3.73-1.528 3.73-3.56 0-1.99-1.635-3.56-3.73-3.56zM36.21 59.1h-1.204v-5.89h1.218c1.418 0 2.512 1.294 2.512 2.96 0 1.664-1.094 2.93-2.527 2.93zm4.353 6.495v1.417h.554v-.8h2.25v5.93h-1.31v.57h3.79v-.57h-1.31v-5.93h2.25v.8h.572v-1.417h-.578zm-1.18.617v-.617h-3.48v.617h1.154v5.93h-1.155v.57h3.48v-.57H38.23v-5.93zM66.12 52.595h-1.988v.616h1.08l.307.4v5.54h-1.16v.57h3.094v-.57h-1.17V54.6l4.47 5.238h.46V53.21h1.158v-.615h-3.1v.616h1.173v4.41zm-8.142 13.617h2.25v5.93h-1.31v.57h3.79v-.57h-1.31v-5.93h2.25v.8h.57v-1.417h-6.795v1.417h.555zm15.784-7.068v.57h3.65c2.13 0 3.73-1.527 3.73-3.56 0-1.988-1.633-3.56-3.73-3.56h-3.65v.57h1.154v5.98h-1.154zm2.325-5.933h1.218c1.418 0 2.512 1.3 2.512 2.96s-1.094 2.93-2.527 2.93h-1.203v-5.89zM59.15 59.15v.57h3.48v-.57h-1.154v-5.94h1.155v-.615h-3.48v.616h1.16v5.94zm-3.824 10.96v-3.898h1.156v-.617h-3.098v.617h1.155v3.85c0 1.25-.83 2.144-1.99 2.144-1.13 0-1.88-.863-1.88-2.126v-3.868h1.17v-.617h-3.5v.617h1.17v4.19c0 1.45 1.202 2.51 2.852 2.51 1.755 0 2.958-1.138 2.958-2.802zm-31.01-16.9v-.615h-3.483v.616h1.156v5.94h-1.16v.57h3.48v-.57h-1.15v-5.94zM7.682 72.143v.57h3.67v-.57h-1.156v-9.03h1.156v-.57h-3.67v.57H8.84v9.03zm10.32-5.93h1.173v4.404l-4.33-5.022h-1.99v.617h1.08l.308.4v5.53h-1.155v.57h3.096v-.57h-1.17v-4.546l4.47 5.24h.46v-6.624H21.1v-.617h-3.097zm8.922 4.667c0-1.003-.37-1.495-1.696-2.235-.324-.184-.694-.4-1.094-.632-.524-.307-.694-.522-.694-.924 0-.638.478-1.04 1.203-1.04.415 0 .694.078 1.293.4v.557h.57v-1.63h-.57v.382a2.807 2.807 0 0 0-1.402-.354c-1.233 0-2.204.876-2.204 1.987 0 .91.462 1.447 1.82 2.126 1.28.647 1.693 1.047 1.693 1.633 0 .6-.554 1.033-1.325 1.033-.524 0-.956-.14-1.572-.505v-.734h-.57v1.857h.57v-.4c.602.34 1.155.51 1.742.51 1.28-.002 2.236-.878 2.236-2.035zm-16.64-11.736v.57h3.482v-.57H12.61v-2.728h4.207v2.728h-1.14v.57h3.482v-.57H18v-5.98h1.155v-.57h-3.483v.57h1.14V55.8H12.61v-2.635h1.156v-.57h-3.483v.57h1.156v5.98zm-4.812.772c1.125 0 1.986-.17 3.267-.65v-1.94H8v1.017c-.988.554-1.62.772-2.375.772-.57 0-1.185-.17-1.77-.48-1.557-.816-2.33-2.188-2.33-4.145 0-2.528 1.62-4.345 3.854-4.345.98 0 1.68.262 2.62.955v.755h.72v-2.512H7.99v.586c-.877-.42-1.648-.57-2.712-.57C2.313 49.35 0 51.67 0 54.64c0 3.05 2.312 5.27 5.472 5.27z"/><path fill="#A5B3AB" d="M29.43 37.952c-.073 2.722-.947 4.66-1.932 6.472a1.475 1.475 0 0 0 .34 1.83c.66.515 1.395.26 1.62.15 2.062-1.018 7.8-2.992 15.085-3.12 5.057-.09 8.802 1.56 9.055 1.59.24.027.455-.143.545-.366a.59.59 0 0 0-.324-.766c-.01 0-.01-.003-.01-.004-2.17-.875-4.63-1.404-7.33-1.572 0-.027.015-1.482.2-2.316.257-1.113.77-1.795 1.673-2.2 1.098-.494 3.062-.383 3.062-.383 1.21-.004 2.346-.32 3.2-.886.88-.572 1.314-1.27 1.553-2.45.21-1.03-.33-1.282.284-2.483.6-1.17-.033-1.713-.616-2.174 1.003-.466 1.17-1.175 1.182-1.57.02-.77-.743-1.434-.743-1.912 0-.31.954-.626 1.23-.846 0 0 .934-.492.934-1.605 0-1.803-2.075-2.903-3.11-5.024a48.06 48.06 0 0 0-.97-1.85c.622-2.1.1-4.803-.99-7.18C51.046 4.19 45.65.28 38.476.28c-4.397 0-8.943 1.968-12.29 5.514-3.185 3.374-5.015 7.77-5.02 12.064-.01 6.263 2.523 9.51 6.03 14.003 1.5 1.93 2.29 3.92 2.233 6.098zM27.042 6.6c3.134-3.32 7.195-5.148 11.436-5.148 5.644 0 10.512 2.61 13.157 7.038 2.23 3.734 1.81 6.43 1.784 6.672-.93-.927-1.94-1.187-2.84-1.2-2.06-.028-3 1.547-3.04 2.725-.038.96.584 2.832 3.06 2.865 1.308.017 2.555-.695 3.16-1.732.04.393 1.606 2.75 2.31 3.553.65.743 1.19 1.3 1.2 1.958.01.658-.737.68-1.56 1.29a1.45 1.45 0 0 0-.605 1.15c-.012.367.137.83.485 1.36.16.24.3.44.23.69-.12.424-1.65.774-1.65.774a.583.583 0 0 0-.465.587c.02.495.512.58.566.588.47.08 1.25.72 1.258.83.01.222-.382.572-.535 1.627-.055.4.08.88.028 1.497-.08.88-.417 1.218-1.045 1.69-1.096.82-3.085.684-3.085.684-.92.002-1.99.044-3 .486-1.207.517-2.04 1.59-2.346 3.02-.154.69-.234 1.555-.235 2.52 0 0-1.63-.066-3.994.144-3.2.287-8.683 1.35-12.247 3.03-.094.043-.336.18-.514.04-.104-.08-.074-.23-.013-.36.415-.89 2.05-3.6 2.066-7.016.01-2.413-.83-4.707-2.48-6.818-3.6-4.637-5.774-7.436-5.785-13.28-.003-3.988 1.71-8.09 4.698-11.255zm26.03 10.004c-.41 1.014-1.133 1.78-2.464 1.77-1.66-.01-1.87-1.126-1.883-1.59.02-.784.512-1.628 1.844-1.642 1.26.01 1.95.663 2.5 1.462z"/><path fill="#46C3D3" d="M31.367 34.418c0 .305-.017.734.298.92.044.024 2.672 1.633 5.66 1.536 2.627 0 4.077-.83 4.445-1.133.473-.38.726-.88.717-1.41a3.645 3.645 0 0 0-.196-1.08c-.52-1.6 0-1.994.32-2.18.6-.353 1.556-.23 2.187-.35.517-.1 1.02-.243 1.455-.547.72-.504 1.108-1.11 1.108-2.04 0-.223-.146-.79.1-1.183.023-.038.207-.4.224-.73.025-.464-.433-.81-.5-.867.59-.32.72-.793.72-1.07-.003-.466-.517-1.09-.494-1.315.058-.21 1.444-.436 1.444-1.604 0-.95-.765-1.495-1.58-2.59-.398-.53-.78-1.33-1.148-2.025a5.12 5.12 0 0 0 .176-1.365c0-1.38-.466-2.903-1.344-4.4-1.89-3.22-5.463-5.14-9.56-5.14-6.87.016-11.667 6.26-11.676 11.853-.012 3.927 1.098 6.493 4.096 9.47 2.124 2.127 3.31 4.14 3.522 5.98.018.17.034.81.035 1.28zM24.67 17.69c-.004-2.647 1.136-5.373 3.123-7.476 2.08-2.206 4.78-3.42 7.596-3.42 3.74 0 6.84 1.664 8.73 4.67 1.33 2.12 1.21 4.136 1.2 4.243-.456-.414-1.117-.73-1.85-.703-1.77.063-2.097 1.456-2.097 1.968s.39 1.985 2.13 1.94c.968-.024 1.554-.348 2.105-1.075 0 0 .51 1.227 1.824 2.65.218.238.454.57.454.89 0 .393-.785.485-1.17.915-.775.87.23 1.827.21 1.986-.035.286-1.054.517-1.06.518a.48.48 0 0 0 .018.938c.002 0 .442.1.82.495-.01.03-.03.122-.14.33-.314.58-.18 1.47-.18 1.56-.005.535-.22.93-.682 1.246-.424.283-1.025.445-1.66.445-.806.004-1.436.14-1.927.42-.64.353-.99 1.03-1.008 1.806-.016.66.424 1.996.407 2.286-.012.22-.037.387-.376.682-.19.16-1.424.87-3.83.91a10 10 0 0 1-4.993-1.304c-.004-.096-.006-1.22-.05-1.584-.236-2.06-1.513-4.263-3.793-6.544-2.84-2.86-3.803-5.08-3.815-8.795zm20.395-.825c-.055.128-.43.992-1.25 1.07-1.322.127-1.48-.706-1.48-.964s.177-1.072 1.31-1c.69.046 1.07.4 1.42.9z"/><path fill="#C2CD23" d="M34.732 29.354c1.546 0 2.418-.49 2.652-.684.31-.258.49-.605.48-.96-.005-.26-.067-.488-.126-.71-.048-.187-.13-.45-.124-.702.007-.29.094-.393.265-.503.262-.173.83-.164.83-.164.372 0 .92-.07 1.404-.39.47-.3.84-.85.703-1.72-.014-.08.03-.19.08-.302.01-.024.14-.268.145-.49.008-.448-.447-.53-.452-.535.175-.063.596-.2.584-.656-.008-.356-.29-.675-.298-.755.023-.02.325-.176.42-.236a.944.944 0 0 0 .463-.8c0-.583-.475-1.02-.586-1.154-.18-.217-.547-.61-.85-1.258a7.344 7.344 0 0 0-.23-.436 3.28 3.28 0 0 0 .097-.82c0-.87-.29-1.824-.84-2.76-1.18-2.01-3.41-3.21-5.963-3.21-4.28.013-7.27 3.904-7.28 7.387-.01 2.414.704 4.065 2.547 5.893 1.046 1.043 1.724 1.964 2.037 2.728.266.647.22 1.72.22 1.72-.006.317.065.423.22.536a7.064 7.064 0 0 0 3.59.988h.003zm-3.277-3.546c-.367-.88-1.082-1.864-2.215-3-1.738-1.753-2.3-3.045-2.31-5.318 0-1.597.687-3.24 1.887-4.51 1.257-1.332 2.897-2.065 4.58-2.065 2.25 0 4.227 1.052 5.263 2.81.456.774.71 1.58.727 2.28-.396-.28-.92-.324-1.028-.31-1.09 0-1.43.862-1.43 1.355 0 .465.3 1.31 1.44 1.333 0 0 .775.047 1.292-.568.333.704.997 1.416 1.04 1.463.19.228.297.42.223.53-.027.042-.504.254-.657.427a.794.794 0 0 0-.204.45c-.07.35.28.767.295.84-.047.144-.86.088-.876.62-.013.394.525.357.727.613-.007.017-.263.48-.19.97.07.466-.143.703-.357.836-.24.15-.59.254-.956.254-.52.002-.917.088-1.24.27-.427.232-.677.696-.677 1.208 0 .486.25 1.22.25 1.41 0 .63-1.65.834-2.32.834a6.26 6.26 0 0 1-2.996-.77s.063-1.144-.28-1.962zm7.872-8.823c-.035.077-.25.594-.76.647-.808.086-.9-.43-.9-.583 0-.16.077-.65.796-.61.338.01.632.21.864.54z"/><path fill="#0067A1" d="M84.718 47.758a2.472 2.472 0 0 0-1.182-.303c-.41 0-.804.1-1.182.303a2.207 2.207 0 0 0-.888.868 2.354 2.354 0 0 0-.324 1.184c0 .41.106.802.317 1.174.21.372.5.662.88.87a2.44 2.44 0 0 0 2.383 0c.378-.207.672-.497.884-.87a2.334 2.334 0 0 0-.006-2.358 2.203 2.203 0 0 0-.89-.868zm.49 2.996c-.17.3-.407.533-.71.7a1.95 1.95 0 0 1-1.914 0 1.796 1.796 0 0 1-.71-.7 1.888 1.888 0 0 1 .004-1.905c.173-.31.413-.536.715-.698a1.978 1.978 0 0 1 1.896 0c.3.162.54.395.71.698a1.875 1.875 0 0 1 .003 1.9z"/><path fill="#0067A1" d="M84.18 50.262a1.21 1.21 0 0 0-.172-.192.647.647 0 0 0-.178-.094.818.818 0 0 0 .504-.238.652.652 0 0 0 .18-.463.692.692 0 0 0-.333-.598 1 1 0 0 0-.392-.1c-.058-.004-.33-.007-.812-.007h-.515v2.5h.516v-1.026h.136a.58.58 0 0 1 .357.106c.094.07.213.243.356.515l.212.406h.637l-.3-.5a5.134 5.134 0 0 0-.186-.302zm-.445-.646c-.07.023-.256.034-.554.034h-.202v-.683h.21c.293 0 .477.012.552.036a.33.33 0 0 1 .172.117.322.322 0 0 1 0 .38.322.322 0 0 1-.172.116z"/></svg>