<svg xmlns="http://www.w3.org/2000/svg" width="826" height="670" viewBox="0 0 826 670"><path fill="none" stroke="#A31C3F" stroke-width="1.5" stroke-miterlimit="10" d="M314.19 163.878c2.8 2.8 1.852 5.09-2.108 5.09H179.918c-3.96 0-7.2-3.24-7.2-7.2V29.606c0-3.96 2.29-4.91 5.09-2.11L314.192 163.88zm-292.38 0c-2.8 2.8-1.852 5.09 2.108 5.09h132.165c3.96 0 7.2-3.24 7.2-7.2V29.606c0-3.96-2.29-4.91-5.09-2.11L21.808 163.88zm163-142.382c-2.8-2.8-1.852-5.09 2.108-5.09h132.165c3.96 0 7.2 3.24 7.2 7.2V155.77c0 3.96-2.29 4.91-5.09 2.11L184.808 21.495zm-33.62 0c2.8-2.8 1.852-5.09-2.108-5.09H16.918c-3.96 0-7.2 3.24-7.2 7.2V155.77c0 3.96 2.29 4.91 5.09 2.11L151.192 21.495zm163 305.382c2.8 2.8 1.852 5.09-2.108 5.09H179.918c-3.96 0-7.2-3.24-7.2-7.2V192.606c0-3.96 2.29-4.91 5.09-2.11L314.192 326.88zm-292.38 0c-2.8 2.8-1.852 5.09 2.108 5.09h132.165c3.96 0 7.2-3.24 7.2-7.2V192.606c0-3.96-2.29-4.91-5.09-2.11L21.808 326.88zm163-142.382c-2.8-2.8-1.852-5.09 2.108-5.09h132.165c3.96 0 7.2 3.24 7.2 7.2V318.77c0 3.96-2.29 4.91-5.09 2.11L184.808 184.495zm-33.62 0c2.8-2.8 1.852-5.09-2.108-5.09H16.918c-3.96 0-7.2 3.24-7.2 7.2V318.77c0 3.96 2.29 4.91 5.09 2.11L151.19 184.496zm163 305.382c2.8 2.8 1.852 5.09-2.108 5.09H179.918c-3.96 0-7.2-3.24-7.2-7.2V355.606c0-3.96 2.29-4.91 5.09-2.11L314.192 489.88zm-292.38 0c-2.8 2.8-1.852 5.09 2.108 5.09h132.165c3.96 0 7.2-3.24 7.2-7.2V355.606c0-3.96-2.29-4.91-5.09-2.11L21.808 489.88zm163-142.382c-2.8-2.8-1.852-5.09 2.108-5.09h132.165c3.96 0 7.2 3.24 7.2 7.2V481.77c0 3.96-2.29 4.91-5.09 2.11L184.808 347.495zm-33.62 0c2.8-2.8 1.852-5.09-2.108-5.09H16.918c-3.96 0-7.2 3.24-7.2 7.2V481.77c0 3.96 2.29 4.91 5.09 2.11L151.19 347.496zm163 305.382c2.8 2.8 1.852 5.09-2.108 5.09H179.918c-3.96 0-7.2-3.24-7.2-7.2V518.606c0-3.96 2.29-4.91 5.09-2.11L314.192 652.88zm-292.38 0c-2.8 2.8-1.852 5.09 2.108 5.09h132.165c3.96 0 7.2-3.24 7.2-7.2V518.606c0-3.96-2.29-4.91-5.09-2.11L21.808 652.88zm163-142.382c-2.8-2.8-1.852-5.09 2.108-5.09h132.165c3.96 0 7.2 3.24 7.2 7.2V644.77c0 3.96-2.29 4.91-5.09 2.11L184.808 510.495zm-33.62 0c2.8-2.8 1.852-5.09-2.108-5.09H16.918c-3.96 0-7.2 3.24-7.2 7.2V644.77c0 3.96 2.29 4.91 5.09 2.11L151.19 510.496zm197.62-346.618c-2.8 2.8-1.852 5.09 2.108 5.09h132.165c3.96 0 7.2-3.24 7.2-7.2V29.606c0-3.96-2.29-4.91-5.09-2.11L348.808 163.88zM478.19 21.496c2.8-2.8 1.852-5.09-2.108-5.09H343.918c-3.96 0-7.2 3.24-7.2 7.2V155.77c0 3.96 2.29 4.91 5.09 2.11L478.192 21.495zm163 305.382c2.8 2.8 1.852 5.09-2.108 5.09H506.918c-3.96 0-7.2-3.24-7.2-7.2V192.606c0-3.96 2.29-4.91 5.09-2.11L641.192 326.88zm-292.38 0c-2.8 2.8-1.852 5.09 2.108 5.09h132.165c3.96 0 7.2-3.24 7.2-7.2V192.606c0-3.96-2.29-4.91-5.09-2.11L348.808 326.88zm129.38-142.382c2.8-2.8 1.852-5.09-2.108-5.09H343.918c-3.96 0-7.2 3.24-7.2 7.2V318.77c0 3.96 2.29 4.91 5.09 2.11L478.19 184.496zm163 305.382c2.8 2.8 1.852 5.09-2.108 5.09H506.918c-3.96 0-7.2-3.24-7.2-7.2V355.606c0-3.96 2.29-4.91 5.09-2.11L641.192 489.88zm-292.38 0c-2.8 2.8-1.852 5.09 2.108 5.09h132.165c3.96 0 7.2-3.24 7.2-7.2V355.606c0-3.96-2.29-4.91-5.09-2.11L348.808 489.88zm163-142.382c-2.8-2.8-1.852-5.09 2.108-5.09h132.165c3.96 0 7.2 3.24 7.2 7.2V481.77c0 3.96-2.29 4.91-5.09 2.11L511.808 347.495zm-33.62 0c2.8-2.8 1.852-5.09-2.108-5.09H343.918c-3.96 0-7.2 3.24-7.2 7.2V481.77c0 3.96 2.29 4.91 5.09 2.11L478.19 347.496zm163 305.382c2.8 2.8 1.852 5.09-2.108 5.09H506.918c-3.96 0-7.2-3.24-7.2-7.2V518.606c0-3.96 2.29-4.91 5.09-2.11L641.192 652.88zm-292.38 0c-2.8 2.8-1.852 5.09 2.108 5.09h132.165c3.96 0 7.2-3.24 7.2-7.2V518.606c0-3.96-2.29-4.91-5.09-2.11L348.808 652.88zm163-142.382c-2.8-2.8-1.852-5.09 2.108-5.09h132.165c3.96 0 7.2 3.24 7.2 7.2V644.77c0 3.96-2.29 4.91-5.09 2.11L511.808 510.495zm156.842 135.882c-2.8 2.8-5.09 1.85-5.09-2.11V512.106c0-3.96 3.24-7.2 7.2-7.2h132.164c3.96 0 4.91 2.29 2.11 5.09L668.65 646.38zm142.383-129.382c2.8-2.8 5.09-1.85 5.09 2.11V651.27c0 3.96-3.24 7.2-7.2 7.2H676.762c-3.96 0-4.908-2.29-2.108-5.09l136.383-136.384zm-332.845-6.5c2.8-2.8 1.852-5.09-2.108-5.09H343.918c-3.96 0-7.2 3.24-7.2 7.2V644.77c0 3.96 2.29 4.91 5.09 2.11L478.19 510.496z"/></svg>