<?xml version="1.0" encoding="utf-8"?>
<!-- Generator: Adobe Illustrator 17.0.2, SVG Export Plug-In . SVG Version: 6.00 Build 0)  -->
<!DOCTYPE svg PUBLIC "-//W3C//DTD SVG 1.1//EN" "http://www.w3.org/Graphics/SVG/1.1/DTD/svg11.dtd">
<svg version="1.1" id="Layer_1" xmlns="http://www.w3.org/2000/svg" xmlns:xlink="http://www.w3.org/1999/xlink" x="0px" y="0px"
	 width="500px" height="84px" viewBox="0 0 500 84" enable-background="new 0 0 500 84" xml:space="preserve">
<path fill="#242A6A" d="M501.348,0.175c-0.36,0-0.652,0.292-0.652,0.65v17.498l-17.377-17.38c-0.99-0.99-2.717-0.99-3.71,0
	l-16.93,16.932l0-17.05c0-0.36-0.292-0.652-0.652-0.652s-0.652,0.292-0.652,0.652v17.498l-17.377-17.38
	c-0.99-0.99-2.717-0.99-3.71,0l-17.733,17.735V0.826c0-0.36-0.292-0.652-0.652-0.652c-0.36,0-0.652,0.292-0.652,0.652v17.495
	L403.877,0.943c-1.026-1.022-2.684-1.022-3.71,0l-17.58,17.58l0-17.698c0-0.36-0.292-0.651-0.652-0.651
	c-0.36,0-0.651,0.292-0.651,0.651l0,0v17.494l-17.37-17.376c-0.99-0.99-2.717-0.99-3.707,0l-17.37,17.37V0.825
	c0-0.36-0.292-0.652-0.652-0.652s-0.652,0.292-0.652,0.652V18.32l-17.38-17.377c-1.026-1.022-2.684-1.022-3.71,0l-17.245,17.24
	l0-17.363c0-0.36-0.292-0.651-0.652-0.651c-0.36,0-0.651,0.292-0.651,0.651v17.493l-17.38-17.374c-0.99-0.99-2.72-0.99-3.71,0
	l-17.5,17.5l0-17.62c0-0.36-0.292-0.652-0.652-0.652c-0.36,0-0.652,0.292-0.652,0.652l0,17.5L244.62,0.941
	c-0.99-0.99-2.716-0.993-3.706,0l-16.935,16.93l0-17.05c0-0.36-0.291-0.651-0.651-0.651s-0.651,0.291-0.651,0.651l0,0l0,17.5
	l-17.38-17.38c-0.99-0.99-2.715-0.99-3.705,0l-17.736,17.736l0-17.854c-0.002-0.359-0.294-0.649-0.653-0.647
	c-0.357,0.002-0.646,0.29-0.647,0.647l0,17.495L165.176,0.94c-0.99-0.996-2.717-0.996-3.707,0l-17.58,17.58V0.82
	c0-0.36-0.292-0.652-0.652-0.652c-0.36,0-0.651,0.292-0.651,0.652v17.5l-17.38-17.38c-0.99-0.99-2.717-0.99-3.707,0l-17.368,17.37
	l0-17.49c0-0.36-0.291-0.651-0.651-0.651s-0.651,0.291-0.651,0.651l0,0l0,17.495L85.449,0.937c-0.99-0.99-2.717-0.99-3.707,0
	L64.493,18.183l0-17.364c0-0.36-0.292-0.652-0.652-0.652c-0.36,0-0.652,0.292-0.652,0.652l0,17.494L45.811,0.933
	c-0.99-0.99-2.72-0.99-3.71,0L2.951,40.087c-0.494,0.49-0.771,1.158-0.77,1.854c0,0.7,0.274,1.36,0.77,1.854l39.15,39.153
	c0.491,0.494,1.159,0.771,1.855,0.77c0.7,0,1.36-0.274,1.854-0.77l17.38-17.377l0,17.952c0.028,0.359,0.342,0.627,0.701,0.599
	c0.32-0.025,0.574-0.279,0.599-0.599l0-17.814l17.248,17.248c0.49,0.492,1.156,0.768,1.85,0.768c0.7,0,1.36-0.273,1.854-0.768
	l17.375-17.378l0,17.944c0.02,0.36,0.328,0.635,0.687,0.615c0.332-0.018,0.597-0.283,0.615-0.615l0-17.937l17.37,17.37
	c0.496,0.495,1.154,0.768,1.854,0.768s1.36-0.27,1.854-0.76l17.376-17.381l0,17.94c0.002,0.36,0.295,0.651,0.655,0.649
	c0.358-0.002,0.647-0.291,0.649-0.649l0-18.15l17.58,17.583c0.492,0.494,1.16,0.77,1.857,0.768c0.7,0,1.36-0.272,1.855-0.767
	l17.38-17.377v17.94c0.028,0.359,0.342,0.627,0.701,0.599c0.32-0.025,0.574-0.279,0.599-0.599V65.218l17.735,17.736
	c0.491,0.493,1.159,0.77,1.855,0.768c0.7,0,1.36-0.273,1.854-0.768l17.376-17.378l0,17.947c0.014,0.36,0.317,0.64,0.677,0.626
	c0.34-0.013,0.613-0.286,0.626-0.626l0-17.5l16.93,16.934c0.491,0.493,1.159,0.77,1.855,0.768c0.7,0,1.36-0.273,1.856-0.768
	l17.38-17.377v17.943c0,0.36,0.292,0.652,0.652,0.652c0.36,0,0.652-0.292,0.652-0.652v-18.07l17.503,17.5
	c0.49,0.495,1.158,0.772,1.855,0.77c0.7,0,1.36-0.273,1.854-0.768l17.374-17.376v17.944c0,0.36,0.292,0.652,0.652,0.652
	c0.36,0,0.652-0.292,0.652-0.652l0-17.815l17.246,17.247c0.491,0.493,1.158,0.77,1.854,0.768c0.7,0,1.358-0.273,1.854-0.768
	l17.378-17.376v17.944c0,0.36,0.292,0.652,0.652,0.652c0.36,0,0.652-0.292,0.652-0.652l0-17.938l17.37,17.37
	c0.491,0.494,1.159,0.771,1.855,0.768c0.696,0.002,1.363-0.274,1.853-0.768l17.376-17.376v17.944c0.014,0.36,0.317,0.64,0.677,0.626
	c0.34-0.013,0.613-0.286,0.626-0.626V65.375l17.58,17.58c0.491,0.494,1.158,0.771,1.854,0.77c0.7,0,1.36-0.274,1.857-0.77
	l17.372-17.375l0,17.943c0,0.36,0.292,0.652,0.652,0.652c0.36,0,0.652-0.292,0.652-0.652V65.221l17.734,17.735
	c0.491,0.493,1.159,0.77,1.855,0.768c0.7,0,1.36-0.27,1.852-0.76l17.385-17.381l0,17.94c0.014,0.36,0.317,0.64,0.677,0.626
	c0.34-0.013,0.613-0.286,0.626-0.626v-17.5l16.932,16.932c0.491,0.493,1.159,0.77,1.855,0.768c0.7,0,1.36-0.273,1.854-0.768
	l17.38-17.375l0,17.943c0.014,0.36,0.317,0.64,0.677,0.626c0.34-0.013,0.613-0.286,0.626-0.626l0-82.697
	c0-0.36-0.292-0.65-0.652-0.65V0.175z M461.376,62.878L441.38,42.883c-0.515-0.515-0.515-1.351,0-1.866l19.996-19.994
	L461.376,62.878z M341.529,62.44l-19.558-19.558c-0.516-0.511-0.52-1.345-0.009-1.861c0.003-0.003,0.006-0.006,0.009-0.009
	l19.56-19.56v40.98L341.529,62.44z M301.894,62.563l-19.68-19.68c-0.515-0.515-0.515-1.351,0-1.866l19.68-19.68V62.563
	L301.894,62.563z M222.692,62.88l-19.999-19.997c-0.514-0.516-0.514-1.35,0-1.866l19.996-19.997l0,41.86L222.692,62.88z
	 M102.843,62.443l-19.56-19.56c-0.516-0.516-0.517-1.353,0-1.87c0,0,0,0,0,0l19.56-19.56l0,40.984V62.443z M63.207,62.563
	L43.524,42.877c-0.515-0.516-0.515-1.351,0-1.867l19.685-19.68l0,41.23L63.207,62.563z M44.907,82.033c-0.496,0.5-1.365,0.5-1.864,0
	L3.889,42.877c-0.515-0.516-0.515-1.351,0-1.867L43.041,1.857c0.515-0.516,1.351-0.516,1.867,0c0,0,0,0,0,0l17.965,17.966
	l-20.268,20.27c-0.494,0.49-0.77,1.157-0.768,1.853c0,0.7,0.27,1.36,0.767,1.854l20.27,20.27L44.911,82.032L44.907,82.033z
	 M84.544,82.033c-0.5,0.5-1.366,0.5-1.865,0l-18.17-18.17l0-43.838l18.17-18.166c0.515-0.516,1.351-0.516,1.867-0.001
	c0,0,0.001,0.001,0.001,0.001l18.026,18.024L82.365,40.091c-0.494,0.49-0.771,1.158-0.77,1.854c0,0.7,0.274,1.36,0.77,1.854
	l20.207,20.206L84.546,82.03L84.544,82.033z M124.302,82.033c-0.498,0.5-1.367,0.5-1.866,0l-18.29-18.29l0-43.59l18.29-18.29
	c0.515-0.515,1.351-0.515,1.866,0l18.13,18.13l-20.1,20.1c-1.024,1.025-1.024,2.685,0,3.71l20.1,20.1L124.302,82.033z
	 M142.593,21.663l0,40.563l-19.347-19.348c-0.25-0.25-0.386-0.58-0.386-0.935c0-0.353,0.137-0.684,0.386-0.933L142.593,21.663z
	 M164.263,82.029c-0.497,0.5-1.366,0.5-1.865,0l-18.502-18.5l0-43.168l18.5-18.5c0.515-0.516,1.351-0.516,1.867-0.001
	c0,0,0.001,0.001,0.001,0.001l18.21,18.207l-20.02,20.02c-0.494,0.491-0.772,1.159-0.77,1.855c0,0.7,0.275,1.36,0.77,1.854
	l20.024,20.024l-18.21,18.206L164.263,82.029z M182.563,21.819l0,40.254L163.368,42.88c-0.516-0.516-0.517-1.353,0-1.87c0,0,0,0,0,0
	l19.195-19.19V21.819z M204.386,82.031c-0.497,0.5-1.366,0.5-1.866,0l-18.657-18.656l0-42.858l18.656-18.658
	c0.515-0.515,1.351-0.515,1.866,0l17.806,17.806l-20.425,20.424c-0.493,0.491-0.77,1.158-0.768,1.854c0,0.7,0.273,1.36,0.768,1.854
	l20.425,20.427L204.386,82.031L204.386,82.031z M243.706,82.031c-0.497,0.5-1.366,0.5-1.866,0l-17.854-17.853l0-44.467
	l17.853-17.853c0.515-0.515,1.351-0.515,1.866,0l18.09,18.09l-20.138,20.14c-1.024,1.025-1.024,2.685,0,3.71l20.14,20.14
	l-18.09,18.09L243.706,82.031z M262.006,21.587v40.716l-19.427-19.424c-0.25-0.25-0.386-0.58-0.386-0.932
	c0-0.353,0.137-0.684,0.386-0.933l19.426-19.424L262.006,21.587z M283.596,82.029c-0.496,0.497-1.367,0.498-1.864,0l-18.43-18.425
	l0-43.322l18.422-18.423c0.497-0.496,1.368-0.496,1.865,0l17.964,17.964l-20.266,20.268c-1.021,1.025-1.021,2.683,0,3.708
	l20.267,20.27l-17.96,17.964L283.596,82.029z M323.232,82.029c-0.515,0.516-1.35,0.518-1.867,0.003
	c-0.001-0.001-0.002-0.002-0.003-0.003l-18.17-18.17V20.025l18.17-18.17c0.515-0.513,1.348-0.513,1.863,0l18.028,18.028
	l-20.205,20.206c-0.496,0.496-0.77,1.154-0.77,1.854s0.274,1.36,0.77,1.854l20.205,20.206l-18.022,18.025L323.232,82.029z
	 M362.982,82.029c-0.498,0.497-1.37,0.498-1.866,0l-18.29-18.292l0-43.587l18.29-18.29c0.495-0.498,1.366-0.498,1.863,0l18.13,18.13
	l-20.1,20.1c-1.022,1.025-1.022,2.685,0,3.71l20.1,20.1l-18.13,18.13L362.982,82.029z M381.278,21.664v40.56l-19.347-19.347
	c-0.516-0.515-0.518-1.35-0.003-1.867c0.001-0.001,0.002-0.002,0.003-0.003l19.347-19.345L381.278,21.664z M402.956,82.034
	c-0.515,0.515-1.351,0.515-1.866,0l-18.505-18.5V20.367l18.502-18.5c0.515-0.514,1.35-0.515,1.866-0.002l18.21,18.21L401.141,40.1
	c-1.021,1.025-1.021,2.683,0,3.708l20.022,20.025l-18.206,18.206L402.956,82.034z M421.253,21.823v40.252l-19.192-19.193
	c-0.516-0.515-0.518-1.35-0.003-1.867c0.001-0.001,0.002-0.002,0.003-0.003L421.253,21.823z M443.079,82.035
	c-0.498,0.498-1.368,0.497-1.866,0l-18.656-18.657l0-42.858l18.656-18.655c0.495-0.498,1.367-0.5,1.865,0l17.805,17.804
	l-20.424,20.425c-1.022,1.025-1.022,2.685,0,3.71l20.424,20.429L443.079,82.04V82.035z M482.399,82.035
	c-0.498,0.498-1.368,0.497-1.866,0L462.679,64.18l0-44.463l17.854-17.854c0.494-0.497,1.366-0.5,1.865,0l18.298,18.3l0,43.574
	C500.696,63.737,482.399,82.035,482.399,82.035z"/>
</svg>
