<svg xmlns="http://www.w3.org/2000/svg" width="114" height="112" viewBox="0 0 114 112"><path fill="#5FC197" d="M105.62 2H89.49c-3.217 0-7.518 1.763-9.792 4.013l-22.84 22.604L34.014 6.013C31.74 3.763 27.44 2 24.224 2H8.38C4.862 2 2 4.832 2 8.314v95.373C2 107.167 4.862 110 8.38 110h15.844c3.216 0 7.517-1.763 9.79-4.014l22.842-22.604 22.84 22.604c2.275 2.25 6.576 4.014 9.793 4.014h16.13c3.512 0 6.38-2.833 6.38-6.314V8.314C112 4.832 109.132 2 105.62 2zM56.857 80.225c-1.6-1.962-2.87-5.204-2.87-7.533V39.308c0-2.33 1.27-5.57 2.87-7.533 1.6 1.962 2.87 5.204 2.87 7.533V72.69c-.002 2.33-1.27 5.573-2.87 7.535zM32.46 104.447c-1.85 1.83-5.62 3.376-8.236 3.376H8.38c-2.305 0-4.18-1.855-4.18-4.137V8.314c0-2.28 1.875-4.137 4.18-4.137h15.844c2.615 0 6.386 1.546 8.236 3.375L55.337 30.19c-2.023 2.345-3.548 6.18-3.548 9.117V72.69c0 2.938 1.52 6.772 3.54 9.117l-22.876 22.64zm77.34-.76c0 2.28-1.875 4.136-4.18 4.136H89.49c-2.616 0-6.388-1.546-8.237-3.376l-22.876-22.64c2.023-2.344 3.548-6.178 3.548-9.116V39.31c0-2.938-1.525-6.772-3.548-9.117l22.877-22.64c1.85-1.83 5.62-3.374 8.236-3.374h16.13c2.306 0 4.18 1.85 4.18 4.13v95.37z"/></svg>