<svg xmlns="http://www.w3.org/2000/svg" width="33" height="33" viewBox="-221.25 278.953 33 33"><g fill="#F2CD32"><path d="M-188.25 286.594c0-1.29-.928-2.34-2.067-2.34h-5.765c.606-.61.946-1.41.978-2.347a3.02 3.02 0 0 0-.853-2.206 2.44 2.44 0 0 0-3.518 0 3.02 3.02 0 0 0-.853 2.21c.032.94.37 1.74.978 2.35h-10.79c.606-.61.945-1.41.977-2.35a3.02 3.02 0 0 0-.853-2.204 2.44 2.44 0 0 0-3.52.002 3.02 3.02 0 0 0-.852 2.205c.03.937.37 1.736.978 2.348h-5.776c-1.14 0-2.066 1.05-2.066 2.34v23.02c0 1.29.927 2.34 2.066 2.34h28.868c1.14 0 2.066-1.05 2.066-2.34V286.6zm-10.38-6.084c.265-.27.59-.42.914-.42.325 0 .65.15.914.42.344.352.54.86.523 1.358-.03.98-.51 1.69-1.43 2.12-.92-.43-1.405-1.14-1.44-2.12a1.894 1.894 0 0 1 .525-1.358zm-14.058 0c.265-.27.59-.42.914-.42.325 0 .65.15.915.42.35.353.54.86.53 1.358-.034.98-.517 1.69-1.44 2.12-.92-.43-1.404-1.14-1.436-2.12a1.885 1.885 0 0 1 .523-1.358zm22.372 30.28h-28.868c-.483 0-.89-.538-.89-1.176v-23.02c0-.638.407-1.176.89-1.176h28.867c.483 0 .89.538.89 1.176l.002 23.02c0 .638-.408 1.176-.89 1.176z"/><path d="M-194.266 290.215h-20.974a.978.978 0 0 0-.974.98v14.32c0 .54.437.98.974.98h20.974c.537 0 .974-.44.974-.98v-14.32c0-.54-.437-.98-.974-.98zm-.2 5.088h-4.212v-3.925h4.21v3.925zm-15.127 1.163h4.363v3.806h-4.363v-3.806zm-1.175 3.806h-4.272v-3.806h4.272v3.806zm5.538-4.97h-4.363v-3.924h4.363v3.925zm1.175-3.924h4.202v3.925h-4.202v-3.925zm-1.175 10.057v3.897h-4.363v-3.897h4.363zm1.175 0h4.202v3.897h-4.202v-3.897zm0-1.163v-3.806h4.202v3.806h-4.202zm5.377-3.806h4.21v3.806h-4.21v-3.806zm-12.09-5.088v3.925h-4.272v-3.925h4.272zm-4.272 10.057h4.272v3.897h-4.272v-3.897zm16.362 3.897v-3.897h4.21v3.897h-4.21z"/></g></svg>