<svg xmlns="http://www.w3.org/2000/svg" width="25" height="25" viewBox="-331.25 388.953 25 25"><g fill="#F2CD32"><path d="M-306.25 394.742c0-.977-.702-1.772-1.565-1.772h-4.367c.46-.464.716-1.07.74-1.78a2.282 2.282 0 0 0-.645-1.67 1.85 1.85 0 0 0-2.666 0 2.29 2.29 0 0 0-.646 1.67c.03.71.288 1.316.748 1.78h-8.174c.46-.464.717-1.07.74-1.78a2.286 2.286 0 0 0-.645-1.67 1.85 1.85 0 0 0-2.667 0 2.292 2.292 0 0 0-.646 1.67c.025.71.282 1.316.742 1.78h-4.377c-.864 0-1.566.795-1.566 1.772v17.44c0 .977.703 1.772 1.566 1.772h21.87c.86 0 1.563-.795 1.563-1.772v-17.44zm-7.864-4.61c.2-.204.446-.317.693-.317a.98.98 0 0 1 .69.318c.26.267.41.65.392 1.03-.025.74-.39 1.28-1.09 1.606-.697-.33-1.063-.87-1.088-1.61a1.433 1.433 0 0 1 .395-1.03zm-10.65 0c.2-.204.446-.317.693-.317a.98.98 0 0 1 .69.318c.26.267.41.65.392 1.03-.025.74-.39 1.28-1.09 1.606-.697-.33-1.063-.87-1.088-1.61a1.43 1.43 0 0 1 .395-1.03zm16.95 22.94h-21.87c-.367 0-.676-.408-.676-.89v-17.44c0-.484.31-.892.675-.892h21.87c.365 0 .674.408.674.89v17.44c0 .484-.31.892-.68.892z"/><path d="M-323.154 398.413h-3.404c-.38 0-.69.306-.69.68v3.37c0 .376.31.68.69.68h3.404c.38 0 .69-.305.69-.68v-3.37a.688.688 0 0 0-.69-.68zm-.202 3.85h-3v-2.97h3v2.97zm6.282-3.85h-3.404c-.38 0-.69.306-.69.68v3.37c0 .376.31.68.69.68h3.404c.38 0 .69-.305.69-.68v-3.37a.688.688 0 0 0-.69-.68zm-.202 3.85h-3v-2.97h3v2.97zm6.296-3.85h-3.405c-.38 0-.69.306-.69.68v3.37c0 .376.31.68.69.68h3.404a.68.68 0 0 0 .682-.68v-3.37c0-.374-.31-.68-.69-.68zm-.203 3.85h-3v-2.97h3v2.97zm-11.97 2.082h-3.405c-.38 0-.69.306-.69.68v3.37c0 .376.31.68.69.68h3.404c.38 0 .69-.305.69-.68v-3.37a.688.688 0 0 0-.69-.68zm-.203 3.85h-3v-2.97h3v2.97zm6.282-3.85h-3.404c-.38 0-.69.306-.69.68v3.37c0 .376.31.68.69.68h3.404c.38 0 .69-.305.69-.68v-3.37a.688.688 0 0 0-.69-.68zm-.202 3.85h-3v-2.97h3v2.97zm6.296-3.85h-3.405c-.38 0-.69.306-.69.68v3.37c0 .376.31.68.69.68h3.404a.68.68 0 0 0 .682-.68v-3.37c0-.374-.31-.68-.69-.68zm-.203 3.85h-3v-2.97h3v2.97z"/></g></svg>