<svg xmlns="http://www.w3.org/2000/svg" width="24" height="19" viewBox="0 0 24 19"><path fill="#F9E28A" d="M24 2.256c-.68.97-1.503 1.796-2.467 2.48a13.298 13.298 0 0 1-.563 4.475 13.78 13.78 0 0 1-1.76 3.69 14.585 14.585 0 0 1-2.81 3.127c-1.086.905-2.396 1.628-3.93 2.167-1.53.54-3.17.81-4.917.81-2.75 0-5.27-.72-7.553-2.153.355.04.75.06 1.188.06 2.285 0 4.32-.683 6.106-2.05a4.876 4.876 0 0 1-2.864-.96c-.842-.617-1.42-1.407-1.736-2.367.335.05.645.074.93.074.435 0 .867-.054 1.293-.163A4.864 4.864 0 0 1 2.092 9.79a4.563 4.563 0 0 1-1.12-3.05v-.06a4.98 4.98 0 0 0 2.224.608c-.67-.435-1.203-1.004-1.6-1.707s-.59-1.46-.59-2.28a4.6 4.6 0 0 1 .67-2.42A13.888 13.888 0 0 0 6.16 4.42a13.992 13.992 0 0 0 5.653 1.477 5.213 5.213 0 0 1-.12-1.098c0-1.33.48-2.46 1.438-3.395S15.255 0 16.615 0c1.42 0 2.62.504 3.596 1.514A9.814 9.814 0 0 0 23.33.356c-.375 1.138-1.096 2.02-2.162 2.643A10.04 10.04 0 0 0 24 2.25z"/></svg>