<svg xmlns="http://www.w3.org/2000/svg" width="16" height="16" viewBox="0 0 16 16"><path fill="#4A4A4A" d="M15.2 10.993c0 .696-.247 1.285-.74 1.766l-1.278 1.27a2.4 2.4 0 0 1-1.765.72 2.384 2.384 0 0 1-1.774-.74l-1.792-1.8a2.403 2.403 0 0 1-.72-1.77c0-.713.26-1.32.77-1.817l-.77-.764c-.5.51-1.102.765-1.81.765a2.418 2.418 0 0 1-1.773-.73l-1.81-1.81a2.417 2.417 0 0 1-.73-1.773c0-.696.247-1.284.74-1.766l1.277-1.27c.48-.48 1.07-.72 1.767-.72.7 0 1.293.246 1.774.74l1.792 1.8c.48.48.722 1.07.722 1.764a2.44 2.44 0 0 1-.767 1.82l.77.768a2.44 2.44 0 0 1 1.81-.766 2.41 2.41 0 0 1 1.772.73l1.81 1.808c.49.488.73 1.08.73 1.775zm-7.784-6.13a.81.81 0 0 0-.244-.593L5.38 2.47a.804.804 0 0 0-.59-.243.837.837 0 0 0-.592.235l-1.28 1.27a.795.795 0 0 0-.242.583c0 .232.08.43.243.59l1.802 1.81a.805.805 0 0 0 .592.234.84.84 0 0 0 .625-.27l-.165-.16a6.064 6.064 0 0 1-.186-.19 2.01 2.01 0 0 1-.13-.17.667.667 0 0 1-.114-.22.894.894 0 0 1-.03-.24c0-.23.08-.43.244-.59a.805.805 0 0 1 .59-.245.725.725 0 0 1 .46.142c.08.055.135.1.17.13.036.033.098.095.188.188l.16.166a.85.85 0 0 0 .285-.635zm6.114 6.13c0-.23-.08-.43-.244-.59l-1.81-1.81a.805.805 0 0 0-.59-.244.83.83 0 0 0-.627.27l.16.16a1.898 1.898 0 0 1 .316.356.718.718 0 0 1 .142.46c0 .233-.08.43-.243.59a.81.81 0 0 1-.59.246.854.854 0 0 1-.24-.03.697.697 0 0 1-.22-.114 1.976 1.976 0 0 1-.354-.32l-.157-.164a.843.843 0 0 0-.287.636.8.8 0 0 0 .244.592l1.792 1.8a.8.8 0 0 0 .59.235c.233 0 .43-.075.592-.226l1.276-1.27a.792.792 0 0 0 .244-.582z"/></svg>