<?xml version="1.0" encoding="utf-8"?>
<!-- Generator: Adobe Illustrator 17.0.2, SVG Export Plug-In . SVG Version: 6.00 Build 0)  -->
<!DOCTYPE svg PUBLIC "-//W3C//DTD SVG 1.1//EN" "http://www.w3.org/Graphics/SVG/1.1/DTD/svg11.dtd">
<svg version="1.1" id="Layer_1" xmlns="http://www.w3.org/2000/svg" xmlns:xlink="http://www.w3.org/1999/xlink" x="0px" y="0px"
	 width="16px" height="16px" viewBox="0 0 16 16" enable-background="new 0 0 16 16" xml:space="preserve">
<path fill="#7A807C" d="M14.652,3.936c0,0.39-0.122,0.765-0.364,1.12c-0.243,0.358-0.55,0.668-0.906,0.914L9.907,8.383L9.592,8.609
	c-0.16,0.11-0.294,0.21-0.4,0.28s-0.235,0.15-0.387,0.24c-0.135,0.082-0.278,0.149-0.427,0.2c-0.119,0.043-0.244,0.067-0.37,0.07
	H7.993c-0.114,0-0.238-0.028-0.372-0.07c-0.147-0.052-0.288-0.119-0.42-0.2c-0.131-0.076-0.26-0.156-0.386-0.24
	c-0.135-0.091-0.269-0.184-0.4-0.28c-0.104-0.078-0.21-0.154-0.316-0.23c-0.45-0.32-1.1-0.77-1.945-1.357L2.63,5.965
	C2.294,5.729,2,5.438,1.76,5.105c-0.27-0.362-0.406-0.7-0.406-1.012c0-0.388,0.1-0.71,0.307-0.967c0.206-0.257,0.5-0.386,0.88-0.386
	h10.93c0.32,0,0.6,0.117,0.834,0.35c0.232,0.233,0.35,0.513,0.35,0.84L14.652,3.936z M14.652,6.118v5.895
	c0,0.327-0.117,0.606-0.35,0.84c-0.232,0.23-0.51,0.348-0.838,0.348H2.536c-0.315,0.007-0.619-0.117-0.84-0.342
	c-0.227-0.22-0.353-0.524-0.348-0.84V6.12c0.218,0.243,0.468,0.458,0.75,0.646c1.792,1.216,3.022,2.07,3.69,2.56
	c0.282,0.208,0.51,0.37,0.687,0.486c0.176,0.117,0.41,0.235,0.702,0.356c0.29,0.122,0.563,0.182,0.816,0.182h0.014
	c0.252,0,0.524-0.06,0.816-0.182c0.292-0.12,0.526-0.24,0.702-0.356s0.405-0.278,0.687-0.486c1.22-0.872,2.452-1.726,3.697-2.562
	c0.28-0.193,0.53-0.408,0.74-0.646H14.652z"/>
</svg>
