<?xml version="1.0" encoding="utf-8"?>
<!-- Generator: Adobe Illustrator 17.0.2, SVG Export Plug-In . SVG Version: 6.00 Build 0)  -->
<!DOCTYPE svg PUBLIC "-//W3C//DTD SVG 1.1//EN" "http://www.w3.org/Graphics/SVG/1.1/DTD/svg11.dtd">
<svg version="1.1" id="Layer_1" xmlns="http://www.w3.org/2000/svg" xmlns:xlink="http://www.w3.org/1999/xlink" x="0px" y="0px"
	 width="25.212px" height="11.114px" viewBox="0 0 25.212 11.114" enable-background="new 0 0 25.212 11.114" xml:space="preserve">
<path fill="#EEAE30" d="M25.208,1.501c-1.757,0-4.167,1.16-5.263,2.53l-4.503,5.633c-0.75,0.94-1.75,1.45-2.84,1.45
	c-1.08,0-2.09-0.51-2.83-1.44l-4.5-5.634C4.169,2.66,1.76,1.5,0.002,1.5V0c2.223,0,5.05,1.36,6.435,3.095l4.503,5.64
	c0.46,0.576,1.05,0.888,1.668,0.888c0.62,0,1.21-0.312,1.663-0.88l4.502-5.632c1.394-1.743,4.22-3.102,6.44-3.102v1.5L25.208,1.501z
	"/>
<path fill="#FFFFFF" d="M25.208,0.001c-2.222,0-5.048,1.36-6.44,3.103l-4.504,5.633c-0.453,0.567-1.043,0.88-1.662,0.88
	c-0.612,0-1.202-0.313-1.66-0.89l-4.51-5.633c-1.385-1.733-4.21-3.092-6.433-3.092L25.208,0.001L25.208,0.001z"/>
</svg>
