<svg xmlns="http://www.w3.org/2000/svg" width="29.561" height="16.5" viewBox="0 0 29.561 16.5"><path fill="#FFF" d="M27.952 3.82h-2.135l-4.285 2.667-4.503 5.633-2.26 1.17-1.865-.754-4.13-5.092L4.79 4.248 1.5 3.675l.67-.76h25.31l.472.906z"/><path fill="#7E7E7E" d="M14.782 14.03c-1.085 0-2.09-.514-2.834-1.443L7.445 6.954c-1.103-1.38-3.513-2.54-5.27-2.54a.75.75 0 0 1 0-1.5c2.222 0 5.048 1.36 6.435 3.095l4.503 5.63c.46.57 1.05.89 1.668.89h.008c.62 0 1.21-.318 1.662-.88l4.502-5.638c1.394-1.744 4.22-3.103 6.44-3.103a.75.75 0 0 1 0 1.5c-1.756 0-4.166 1.16-5.262 2.53l-4.503 5.633c-.75.94-1.756 1.45-2.84 1.45z"/></svg>