<?xml version="1.0" encoding="utf-8"?>
<!-- Generator: Adobe Illustrator 17.0.2, SVG Export Plug-In . SVG Version: 6.00 Build 0)  -->
<!DOCTYPE svg PUBLIC "-//W3C//DTD SVG 1.1//EN" "http://www.w3.org/Graphics/SVG/1.1/DTD/svg11.dtd">
<svg version="1.1" id="Layer_1" xmlns="http://www.w3.org/2000/svg" xmlns:xlink="http://www.w3.org/1999/xlink" x="0px" y="0px"
	 width="29.561px" height="16.5px" viewBox="0 0 29.561 16.5" enable-background="new 0 0 29.561 16.5" xml:space="preserve">
<polygon fill="#FFFFFF" points="2.399,3.167 26.942,3.167 22.614,5.292 16.031,12.958 13.531,12.667 9.947,8.417 5.447,4.542 
	2.656,4 "/>
<g>
	<path fill="none" d="M8.883,5.791l4.503,5.632c0.377,0.472,0.874,0.732,1.398,0.732c0.521,0,1.014-0.257,1.386-0.723l4.503-5.633
		c0.858-1.073,2.293-2.041,3.833-2.633H5.058C6.596,3.757,8.029,4.722,8.883,5.791z"/>
	<path fill="#7A807C" d="M24.506,3.167c-1.539,0.591-2.975,1.56-3.833,2.633l-4.503,5.633c-0.372,0.466-0.864,0.723-1.386,0.723
		c-0.525,0-1.021-0.261-1.398-0.732L8.883,5.791C8.029,4.722,6.596,3.757,5.058,3.167H2.399v1.616L2.491,4.79
		c1.658,0.126,3.713,1.173,4.68,2.383l4.503,5.633c0.812,1.015,1.916,1.573,3.107,1.573c1.193,0,2.298-0.562,3.114-1.582
		l4.503-5.633c0.917-1.146,2.833-2.159,4.456-2.357l0.088-0.011V3.167H24.506z"/>
</g>
</svg>
