<svg xmlns="http://www.w3.org/2000/svg" width="16" height="16" viewBox="0 0 16 16"><path fill="#7A807C" d="M14.853 3.372a5.915 5.915 0 0 1-1.41 1.453 7.997 7.997 0 0 1-.322 2.622c-.22.75-.55 1.47-1 2.16s-.982 1.3-1.602 1.832c-.62.53-1.368.95-2.244 1.27a8.21 8.21 0 0 1-2.81.47c-1.57 0-3.01-.42-4.313-1.26.203.02.43.03.678.03 1.305 0 2.467-.4 3.487-1.2a2.743 2.743 0 0 1-1.633-.56 2.76 2.76 0 0 1-.99-1.39c.19.03.368.044.53.044a2.9 2.9 0 0 0 .74-.097 2.76 2.76 0 0 1-1.613-.97 2.71 2.71 0 0 1-.64-1.786v-.03c.394.22.817.34 1.27.356-.383-.256-.687-.59-.913-1s-.34-.858-.34-1.34c0-.51.13-.983.385-1.417a7.955 7.955 0 0 0 2.56 2.07 7.822 7.822 0 0 0 3.23.864 3.145 3.145 0 0 1-.07-.645c0-.778.276-1.44.824-1.988s1.21-.82 1.985-.82a2.7 2.7 0 0 1 2.05.885 5.507 5.507 0 0 0 1.784-.68A2.723 2.723 0 0 1 13.24 3.8a5.532 5.532 0 0 0 1.616-.433z"/></svg>