<?xml version="1.0" encoding="utf-8"?>
<!-- Generator: Adobe Illustrator 17.0.2, SVG Export Plug-In . SVG Version: 6.00 Build 0)  -->
<!DOCTYPE svg PUBLIC "-//W3C//DTD SVG 1.1//EN" "http://www.w3.org/Graphics/SVG/1.1/DTD/svg11.dtd">
<svg version="1.1" id="Layer_1" xmlns="http://www.w3.org/2000/svg" xmlns:xlink="http://www.w3.org/1999/xlink" x="0px" y="0px"
	 width="500px" height="84px" viewBox="0 0 500 84" enable-background="new 0 0 500 84" xml:space="preserve">
<path fill="#0067A0" d="M500.348-0.244c-0.36,0-0.652,0.292-0.652,0.65v17.498l-17.377-17.38c-0.99-0.99-2.717-0.99-3.71,0
	l-16.93,16.932V0.406c0-0.36-0.292-0.652-0.652-0.652c-0.36,0-0.652,0.292-0.652,0.652v17.498l-17.377-17.38
	c-0.99-0.99-2.717-0.99-3.71,0l-17.733,17.735V0.407c0-0.36-0.292-0.652-0.652-0.652c-0.36,0-0.652,0.292-0.652,0.652v17.495
	L402.877,0.524c-1.026-1.022-2.684-1.022-3.71,0l-17.58,17.58V0.406c0-0.36-0.292-0.651-0.652-0.651
	c-0.36,0-0.651,0.292-0.651,0.651l0,0V17.9l-17.37-17.376c-0.99-0.99-2.717-0.99-3.707,0l-17.37,17.37V0.406
	c0-0.36-0.292-0.652-0.652-0.652s-0.652,0.292-0.652,0.652V17.9l-17.38-17.377c-1.026-1.022-2.684-1.022-3.71,0l-17.245,17.24V0.4
	c0-0.36-0.292-0.651-0.652-0.651c-0.36,0-0.651,0.292-0.651,0.651v17.494L283.515,0.52c-0.99-0.99-2.72-0.99-3.71,0l-17.5,17.5V0.4
	c0-0.36-0.292-0.652-0.652-0.652s-0.652,0.292-0.652,0.652v17.5l-17.38-17.378c-0.99-0.99-2.716-0.993-3.706,0l-16.935,16.93V0.402
	c0-0.36-0.291-0.651-0.651-0.651s-0.651,0.291-0.651,0.651l0,0v17.5l-17.38-17.38c-0.99-0.99-2.715-0.99-3.705,0l-17.736,17.736
	V0.404c-0.002-0.359-0.294-0.649-0.653-0.647c-0.357,0.002-0.646,0.29-0.647,0.647v17.495l-17.38-17.378
	c-0.99-0.996-2.717-0.996-3.707,0l-17.58,17.58v-17.7c0-0.36-0.292-0.652-0.652-0.652c-0.36,0-0.651,0.292-0.651,0.652v17.5
	l-17.38-17.38c-0.99-0.99-2.717-0.99-3.707,0l-17.368,17.37V0.401c0-0.36-0.291-0.651-0.651-0.651s-0.651,0.291-0.651,0.651l0,0
	v17.495L84.45,0.518c-0.99-0.99-2.717-0.99-3.707,0L63.494,17.764V0.4c0-0.36-0.292-0.652-0.652-0.652
	c-0.36,0-0.652,0.292-0.652,0.652v17.494L44.812,0.514c-0.99-0.99-2.72-0.99-3.71,0L1.952,39.668
	c-0.494,0.49-0.771,1.158-0.77,1.854c0,0.7,0.274,1.36,0.77,1.854l39.15,39.153c0.491,0.494,1.159,0.771,1.855,0.77
	c0.7,0,1.36-0.274,1.854-0.77l17.38-17.377v17.952c0.028,0.359,0.342,0.627,0.701,0.599c0.32-0.025,0.574-0.279,0.599-0.599V65.29
	l17.247,17.248c0.49,0.492,1.156,0.768,1.85,0.768c0.7,0,1.36-0.273,1.854-0.768l17.375-17.378v17.944
	c0.02,0.36,0.328,0.635,0.687,0.615c0.332-0.018,0.597-0.283,0.615-0.615V65.167l17.37,17.37c0.496,0.495,1.154,0.768,1.854,0.768
	s1.36-0.27,1.854-0.76l17.376-17.381v17.94c0.002,0.36,0.295,0.651,0.655,0.649c0.358-0.002,0.647-0.291,0.649-0.649v-18.15
	l17.58,17.583c0.492,0.494,1.16,0.77,1.857,0.768c0.7,0,1.36-0.272,1.855-0.767l17.38-17.377v17.94
	c0.028,0.359,0.342,0.627,0.701,0.599c0.32-0.025,0.574-0.279,0.599-0.599V64.799l17.735,17.736c0.491,0.493,1.159,0.77,1.855,0.768
	c0.7,0,1.36-0.273,1.854-0.768l17.376-17.378v17.947c0.014,0.36,0.317,0.64,0.677,0.626c0.34-0.013,0.613-0.286,0.626-0.626v-17.5
	l16.93,16.934c0.491,0.493,1.159,0.77,1.855,0.768c0.7,0,1.36-0.273,1.856-0.768l17.38-17.377v17.943
	c0,0.36,0.292,0.652,0.652,0.652s0.652-0.292,0.652-0.652v-18.07l17.503,17.5c0.49,0.495,1.158,0.772,1.855,0.77
	c0.7,0,1.36-0.273,1.854-0.768l17.374-17.376v17.944c0,0.36,0.292,0.652,0.652,0.652s0.652-0.292,0.652-0.652V65.289l17.246,17.247
	c0.491,0.493,1.158,0.77,1.854,0.768c0.7,0,1.358-0.273,1.854-0.768l17.378-17.376v17.944c0,0.36,0.292,0.652,0.652,0.652
	c0.36,0,0.652-0.292,0.652-0.652V65.166l17.37,17.37c0.491,0.494,1.159,0.771,1.855,0.768c0.696,0.002,1.363-0.274,1.853-0.768
	l17.376-17.376v17.944c0.014,0.36,0.317,0.64,0.677,0.626c0.34-0.013,0.613-0.286,0.626-0.626V64.956l17.58,17.58
	c0.491,0.494,1.158,0.771,1.854,0.77c0.7,0,1.36-0.274,1.857-0.77l17.372-17.375v17.943c0,0.36,0.292,0.652,0.652,0.652
	c0.36,0,0.652-0.292,0.652-0.652V64.802l17.734,17.735c0.491,0.493,1.159,0.77,1.855,0.768c0.7,0,1.36-0.27,1.852-0.76
	l17.385-17.381v17.94c0.014,0.359,0.317,0.64,0.677,0.626c0.34-0.014,0.613-0.286,0.626-0.626v-17.5l16.932,16.932
	c0.491,0.493,1.159,0.77,1.855,0.768c0.7,0,1.36-0.273,1.854-0.768l17.38-17.375v17.943c0.014,0.36,0.317,0.64,0.677,0.626
	c0.34-0.014,0.613-0.286,0.626-0.626V0.407C501,0.047,500.708-0.243,500.348-0.244L500.348-0.244z M460.376,62.459L440.38,42.464
	c-0.515-0.515-0.515-1.351,0-1.866l19.996-19.994V62.459z M340.529,62.021l-19.558-19.558c-0.516-0.511-0.52-1.345-0.009-1.861
	c0.003-0.003,0.006-0.006,0.009-0.009l19.56-19.56v40.98L340.529,62.021z M300.894,62.144l-19.68-19.68
	c-0.515-0.515-0.515-1.351,0-1.866l19.68-19.68V62.144L300.894,62.144z M221.692,62.461l-19.999-19.997
	c-0.514-0.516-0.514-1.35,0-1.866l19.996-19.997v41.86H221.692z M101.843,62.024l-19.56-19.56c-0.516-0.516-0.517-1.353,0-1.87l0,0
	l19.56-19.56v40.984V62.024z M62.207,62.144L42.524,42.458c-0.515-0.516-0.515-1.351,0-1.867l19.685-19.68v41.23L62.207,62.144z
	 M43.907,81.614c-0.496,0.5-1.365,0.5-1.864,0L2.889,42.458c-0.515-0.516-0.515-1.351,0-1.867L42.041,1.438
	c0.515-0.516,1.351-0.516,1.867,0l0,0l17.965,17.966l-20.268,20.27c-0.494,0.49-0.77,1.157-0.768,1.853c0,0.7,0.27,1.36,0.767,1.854
	l20.27,20.27L43.911,81.613L43.907,81.614z M83.544,81.614c-0.5,0.5-1.366,0.5-1.865,0l-18.17-18.17V19.606L81.679,1.44
	c0.515-0.516,1.351-0.516,1.867-0.001l0.001,0.001l18.026,18.024L81.365,39.672c-0.494,0.49-0.771,1.158-0.77,1.854
	c0,0.7,0.274,1.36,0.77,1.854l20.207,20.206L83.546,81.611L83.544,81.614z M123.302,81.614c-0.498,0.5-1.367,0.5-1.866,0
	l-18.29-18.29v-43.59l18.29-18.29c0.515-0.515,1.351-0.515,1.866,0l18.13,18.13l-20.1,20.1c-1.024,1.025-1.024,2.685,0,3.71
	l20.1,20.1L123.302,81.614z M141.593,21.244v40.563l-19.347-19.348c-0.25-0.25-0.386-0.58-0.386-0.935
	c0-0.353,0.137-0.684,0.386-0.933L141.593,21.244z M163.263,81.61c-0.497,0.5-1.366,0.5-1.865,0l-18.502-18.5V19.942l18.5-18.5
	c0.515-0.516,1.351-0.516,1.867-0.001l0.001,0.001l18.21,18.207l-20.02,20.02c-0.494,0.491-0.772,1.159-0.77,1.855
	c0,0.7,0.275,1.36,0.77,1.854l20.024,20.024l-18.21,18.206L163.263,81.61z M181.563,21.4v40.254l-19.195-19.193
	c-0.516-0.516-0.517-1.353,0-1.87l0,0l19.195-19.19V21.4z M203.386,81.612c-0.497,0.5-1.366,0.5-1.866,0l-18.657-18.656V20.098
	L201.519,1.44c0.515-0.515,1.351-0.515,1.866,0l17.806,17.806L200.766,39.67c-0.493,0.491-0.77,1.158-0.768,1.854
	c0,0.7,0.273,1.36,0.768,1.854l20.425,20.427L203.386,81.612L203.386,81.612z M242.706,81.612c-0.497,0.5-1.366,0.5-1.866,0
	l-17.854-17.853V19.292l17.853-17.853c0.515-0.515,1.351-0.515,1.866,0l18.09,18.09l-20.138,20.14c-1.024,1.025-1.024,2.685,0,3.71
	l20.14,20.14l-18.09,18.09L242.706,81.612z M261.006,21.168v40.716L241.579,42.46c-0.25-0.25-0.386-0.58-0.386-0.932
	c0-0.353,0.137-0.684,0.386-0.933l19.426-19.424L261.006,21.168z M282.596,81.61c-0.496,0.497-1.367,0.498-1.864,0l-18.43-18.425
	V19.863L280.724,1.44c0.497-0.496,1.368-0.496,1.865,0l17.964,17.964l-20.266,20.268c-1.021,1.025-1.021,2.683,0,3.708l20.267,20.27
	l-17.96,17.964L282.596,81.61z M322.232,81.61c-0.515,0.516-1.35,0.518-1.867,0.003c-0.001-0.001-0.002-0.002-0.003-0.003
	l-18.17-18.17V19.606l18.17-18.17c0.515-0.513,1.348-0.513,1.863,0l18.028,18.028L320.048,39.67c-0.496,0.496-0.77,1.154-0.77,1.854
	s0.274,1.36,0.77,1.854l20.205,20.206l-18.022,18.025L322.232,81.61z M361.982,81.61c-0.498,0.497-1.37,0.498-1.866,0l-18.29-18.292
	V19.731l18.29-18.29c0.495-0.498,1.366-0.498,1.863,0l18.13,18.13l-20.1,20.1c-1.022,1.025-1.022,2.685,0,3.71l20.1,20.1
	l-18.13,18.13L361.982,81.61z M380.278,21.245v40.56l-19.347-19.347c-0.516-0.515-0.518-1.35-0.003-1.867
	c0.001-0.001,0.002-0.002,0.003-0.003l19.347-19.345V21.245z M401.956,81.615c-0.515,0.515-1.351,0.515-1.866,0l-18.505-18.5V19.948
	l18.502-18.5c0.515-0.514,1.35-0.515,1.866-0.002l18.21,18.21l-20.022,20.025c-1.021,1.025-1.021,2.683,0,3.708l20.022,20.025
	L401.957,81.62L401.956,81.615z M420.253,21.404v40.252l-19.192-19.193c-0.516-0.515-0.518-1.35-0.003-1.867
	c0.001-0.001,0.002-0.002,0.003-0.003L420.253,21.404z M442.079,81.616c-0.498,0.498-1.368,0.497-1.866,0l-18.656-18.657V20.101
	l18.656-18.655c0.495-0.498,1.367-0.5,1.865,0l17.805,17.804l-20.424,20.425c-1.022,1.025-1.022,2.685,0,3.71l20.424,20.429
	l-17.804,17.807V81.616z M481.399,81.616c-0.498,0.498-1.368,0.497-1.866,0l-17.854-17.855V19.298l17.854-17.854
	c0.494-0.497,1.366-0.5,1.865,0l18.298,18.3v43.574L481.399,81.616z"/>
</svg>
