<?xml version="1.0" encoding="utf-8"?>
<!-- Generator: Adobe Illustrator 17.0.2, SVG Export Plug-In . SVG Version: 6.00 Build 0)  -->
<!DOCTYPE svg PUBLIC "-//W3C//DTD SVG 1.1//EN" "http://www.w3.org/Graphics/SVG/1.1/DTD/svg11.dtd">
<svg version="1.1" id="Layer_1" xmlns="http://www.w3.org/2000/svg" xmlns:xlink="http://www.w3.org/1999/xlink" x="0px" y="0px"
	 width="16px" height="16px" viewBox="0 0 16 16" enable-background="new 0 0 16 16" xml:space="preserve">
<path fill="#4DB789" d="M6.81,0.985h3.48l-1.074,0.63H8.14c0.377,0.24,0.67,0.574,0.877,1.004s0.31,0.872,0.31,1.34
	c0,0.393-0.06,0.742-0.182,1.05s-0.272,0.55-0.447,0.736s-0.35,0.357-0.526,0.514C8.007,6.405,7.857,6.568,7.726,6.746
	c-0.119,0.155-0.184,0.345-0.184,0.54c0,0.138,0.044,0.273,0.132,0.406c0.087,0.133,0.202,0.26,0.343,0.383
	c0.14,0.12,0.295,0.25,0.465,0.38c0.17,0.133,0.34,0.28,0.51,0.442s0.326,0.336,0.467,0.525c0.14,0.186,0.25,0.412,0.34,0.675
	c0.09,0.264,0.13,0.547,0.13,0.85c0,0.85-0.37,1.6-1.12,2.247c-0.807,0.697-1.922,1.045-3.346,1.045c-0.314,0-0.63-0.026-0.954-0.08
	c-0.32-0.053-0.645-0.142-0.97-0.267s-0.615-0.28-0.865-0.464c-0.254-0.189-0.464-0.431-0.614-0.71
	c-0.162-0.296-0.245-0.629-0.24-0.967c0-0.325,0.1-0.684,0.298-1.077c0.17-0.34,0.424-0.634,0.764-0.88
	c0.34-0.248,0.726-0.437,1.156-0.567C4.827,8.985,5.645,8.852,6.47,8.832c-0.34-0.44-0.51-0.836-0.51-1.187
	c0-0.117,0.019-0.233,0.056-0.344l0.063-0.17c0.02-0.057,0.038-0.115,0.054-0.173c-0.186,0.025-0.373,0.038-0.56,0.04
	c-0.79,0-1.47-0.26-2.034-0.78s-0.85-1.175-0.85-1.96c0-0.745,0.253-1.41,0.758-2C3.93,1.688,4.589,1.294,5.32,1.14
	c0.498-0.105,0.995-0.16,1.49-0.16L6.81,0.985z M8.81,11.64c0-0.11-0.013-0.22-0.037-0.323s-0.05-0.2-0.076-0.287
	c-0.032-0.098-0.079-0.191-0.14-0.275L8.39,10.512c-0.045-0.066-0.116-0.145-0.21-0.235s-0.17-0.157-0.22-0.203
	c-0.082-0.071-0.167-0.139-0.255-0.203C7.459,9.687,7.208,9.51,6.952,9.341C6.82,9.33,6.687,9.325,6.554,9.328
	c-0.287,0-0.57,0.02-0.845,0.057c-0.292,0.041-0.58,0.108-0.86,0.2C4.57,9.67,4.304,9.793,4.059,9.951
	c-0.222,0.147-0.405,0.347-0.55,0.597s-0.214,0.535-0.214,0.854c0,0.36,0.094,0.686,0.283,0.97c0.19,0.284,0.436,0.507,0.74,0.67
	c0.608,0.319,1.286,0.484,1.973,0.48c0.313,0,0.612-0.03,0.896-0.1s0.55-0.17,0.8-0.31c0.25-0.14,0.447-0.335,0.594-0.584
	c0.151-0.267,0.227-0.57,0.22-0.876L8.81,11.64z M7.853,4.77c0-0.318-0.044-0.656-0.13-1.015c-0.089-0.359-0.215-0.707-0.376-1.04
	c-0.155-0.326-0.384-0.61-0.67-0.83C6.405,1.672,6.07,1.557,5.725,1.559c-0.494,0-0.876,0.18-1.147,0.55s-0.408,0.8-0.408,1.31
	c0.013,0.559,0.141,1.109,0.378,1.616C4.675,5.311,4.824,5.56,4.994,5.78s0.377,0.4,0.622,0.54C5.86,6.46,6.118,6.527,6.389,6.527
	c0.51,0,0.89-0.16,1.12-0.48s0.34-0.75,0.34-1.28L7.853,4.77z M15.089,3.025v1.02H13.04v2.04h-1.02v-2.04H9.98v-1.02h2.04v-2.04
	h1.02v2.04h2.04L15.089,3.025z"/>
</svg>
