<?xml version="1.0" encoding="utf-8"?>
<!-- Generator: Adobe Illustrator 17.0.2, SVG Export Plug-In . SVG Version: 6.00 Build 0)  -->
<!DOCTYPE svg PUBLIC "-//W3C//DTD SVG 1.1//EN" "http://www.w3.org/Graphics/SVG/1.1/DTD/svg11.dtd">
<svg version="1.1" id="Layer_1" xmlns="http://www.w3.org/2000/svg" xmlns:xlink="http://www.w3.org/1999/xlink" x="0px" y="0px"
	 width="16px" height="16px" viewBox="0 0 16 16" enable-background="new 0 0 16 16" xml:space="preserve">
<path fill="#4DB789" d="M14.853,3.372c-0.383,0.562-0.86,1.053-1.41,1.453c0.039,0.886-0.07,1.772-0.322,2.622
	c-0.22,0.75-0.55,1.47-1,2.16s-0.982,1.3-1.602,1.832c-0.62,0.53-1.368,0.95-2.244,1.27c-0.902,0.319-1.853,0.478-2.81,0.47
	c-1.57,0-3.01-0.42-4.313-1.26c0.203,0.02,0.43,0.03,0.678,0.03c1.305,0,2.467-0.4,3.487-1.2c-0.59-0.006-1.163-0.202-1.633-0.56
	c-0.469-0.347-0.815-0.834-0.99-1.39c0.19,0.03,0.368,0.044,0.53,0.044c0.25,0,0.499-0.033,0.74-0.097
	c-0.635-0.124-1.206-0.468-1.613-0.97C1.929,7.277,1.702,6.643,1.711,5.99V5.96c0.394,0.22,0.817,0.34,1.27,0.356
	c-0.383-0.256-0.687-0.59-0.913-1s-0.34-0.858-0.34-1.34c0-0.51,0.13-0.983,0.385-1.417c0.7,0.861,1.572,1.566,2.56,2.07
	c1.002,0.517,2.104,0.812,3.23,0.864c-0.046-0.212-0.069-0.428-0.07-0.645c0-0.778,0.276-1.44,0.824-1.988s1.21-0.82,1.985-0.82
	c0.779-0.015,1.526,0.308,2.05,0.885c0.63-0.121,1.233-0.351,1.784-0.68C14.275,2.9,13.833,3.456,13.24,3.8
	c0.558-0.062,1.102-0.208,1.616-0.433L14.853,3.372z"/>
</svg>
